<?xml version="1.0" encoding="UTF-8" standalone="no"?>
<svg width="422px" height="193px" viewBox="0 0 422 193" version="1.1" xmlns="http://www.w3.org/2000/svg" xmlns:xlink="http://www.w3.org/1999/xlink">
    <!-- Generator: Sketch 46.2 (44496) - http://www.bohemiancoding.com/sketch -->
    <title>Group 4</title>
    <desc>Created with Sketch.</desc>
    <defs></defs>
    <g id="Ant-Design-Pro-3.0" stroke="none" stroke-width="1" fill="none" fill-rule="evenodd">
        <g id="500" transform="translate(-477.000000, -299.000000)">
            <g id="Group-4" transform="translate(479.000000, 290.000000)">
                <polygon id="Fill-1" fill-opacity="0.25" fill="#A3B1BF" opacity="0.900000036" transform="translate(271.351592, 80.180646) rotate(90.000000) translate(-271.351592, -80.180646) " points="214.065678 134.970601 328.637506 134.970601 328.637506 25.3906904 214.065678 25.3906904"></polygon>
                <polygon id="Stroke-2" stroke="#A3B1BF" stroke-width="1.62" transform="translate(271.351592, 80.180646) rotate(90.000000) translate(-271.351592, -80.180646) " points="214.065678 134.970601 328.637506 134.970601 328.637506 25.3906904 214.065678 25.3906904"></polygon>
                <path d="M276.053859,94.8252648 C271.491929,94.8252648 267.759441,91.0782313 267.759441,86.4985238 L267.759441,73.9594928 C267.759441,69.3797853 271.491929,65.6327519 276.053859,65.6327519 L393.542211,65.6327519 C398.104141,65.6327519 401.836629,69.3797853 401.836629,73.9594928 L401.836629,86.4985238 C401.836629,91.0782313 398.104141,94.8252648 393.542211,94.8252648 L276.053859,94.8252648 Z" id="Fill-3" fill="#F0F2F5" transform="translate(334.798035, 80.229008) rotate(90.000000) translate(-334.798035, -80.229008) "></path>
                <path d="M276.053859,94.8252648 C271.491929,94.8252648 267.759441,91.0782313 267.759441,86.4985238 L267.759441,73.9594928 C267.759441,69.3797853 271.491929,65.6327519 276.053859,65.6327519 L393.542211,65.6327519 C398.104141,65.6327519 401.836629,69.3797853 401.836629,73.9594928 L401.836629,86.4985238 C401.836629,91.0782313 398.104141,94.8252648 393.542211,94.8252648 L276.053859,94.8252648 L276.053859,94.8252648 Z" id="Stroke-5" stroke="#A3B1BF" stroke-width="1.62" transform="translate(334.798035, 80.229008) rotate(90.000000) translate(-334.798035, -80.229008) "></path>
                <path d="M373.091719,31.232323 C373.091719,32.058752 372.424019,32.7290547 371.600798,32.7290547 C370.77654,32.7290547 370.108839,32.058752 370.108839,31.232323 C370.108839,30.405894 370.77654,29.7355913 371.600798,29.7355913 C372.424019,29.7355913 373.091719,30.405894 373.091719,31.232323 L356.360842,4.74110287 L349.082491,-8.6444393" id="Fill-7" transform="translate(361.087105, 12.042308) rotate(90.000000) translate(-361.087105, -12.042308) "></path>
                <path d="M343.448596,22.5884924 C343.448596,23.4149215 342.780895,24.0852241 341.957674,24.0852241 C341.133416,24.0852241 340.465716,23.4149215 340.465716,22.5884924 C340.465716,21.7620634 341.133416,21.0917607 341.957674,21.0917607 C342.780895,21.0917607 343.448596,21.7620634 343.448596,22.5884924 L343.448596,22.5884924 Z" id="Stroke-9" stroke="#A3B1BF" stroke-width="0.81" transform="translate(341.957156, 22.588492) rotate(90.000000) translate(-341.957156, -22.588492) "></path>
                <path d="M343.448596,31.5121872 C343.448596,32.3386162 342.780895,33.0089189 341.957674,33.0089189 C341.133416,33.0089189 340.465716,32.3386162 340.465716,31.5121872 C340.465716,30.6857582 341.133416,30.0154555 341.957674,30.0154555 C342.780895,30.0154555 343.448596,30.6857582 343.448596,31.5121872" id="Fill-11" fill="#FFFFFF" transform="translate(341.957156, 31.512187) rotate(90.000000) translate(-341.957156, -31.512187) "></path>
                <path d="M343.448596,31.5121872 C343.448596,32.3386162 342.780895,33.0089189 341.957674,33.0089189 C341.133416,33.0089189 340.465716,32.3386162 340.465716,31.5121872 C340.465716,30.6857582 341.133416,30.0154555 341.957674,30.0154555 C342.780895,30.0154555 343.448596,30.6857582 343.448596,31.5121872 L343.448596,31.5121872 Z" id="Stroke-13" stroke="#A3B1BF" stroke-width="0.81" transform="translate(341.957156, 31.512187) rotate(90.000000) translate(-341.957156, -31.512187) "></path>
                <path d="M343.448596,40.435882 C343.448596,41.262311 342.780895,41.9326137 341.957674,41.9326137 C341.133416,41.9326137 340.465716,41.262311 340.465716,40.435882 C340.465716,39.609453 341.133416,38.9391503 341.957674,38.9391503 C342.780895,38.9391503 343.448596,39.609453 343.448596,40.435882" id="Fill-15" fill="#FFFFFF" transform="translate(341.957156, 40.435882) rotate(90.000000) translate(-341.957156, -40.435882) "></path>
                <path d="M343.448596,40.435882 C343.448596,41.262311 342.780895,41.9326137 341.957674,41.9326137 C341.133416,41.9326137 340.465716,41.262311 340.465716,40.435882 C340.465716,39.609453 341.133416,38.9391503 341.957674,38.9391503 C342.780895,38.9391503 343.448596,39.609453 343.448596,40.435882 L343.448596,40.435882 Z" id="Stroke-17" stroke="#A3B1BF" stroke-width="0.81" transform="translate(341.957156, 40.435882) rotate(90.000000) translate(-341.957156, -40.435882) "></path>
                <path d="M343.448596,49.3595768 C343.448596,50.1860058 342.780895,50.8563085 341.957674,50.8563085 C341.133416,50.8563085 340.465716,50.1860058 340.465716,49.3595768 C340.465716,48.5331477 341.133416,47.8628451 341.957674,47.8628451 C342.780895,47.8628451 343.448596,48.5331477 343.448596,49.3595768" id="Fill-19" fill="#FFFFFF" transform="translate(341.957156, 49.359577) rotate(90.000000) translate(-341.957156, -49.359577) "></path>
                <path d="M343.448596,49.3595768 C343.448596,50.1860058 342.780895,50.8563085 341.957674,50.8563085 C341.133416,50.8563085 340.465716,50.1860058 340.465716,49.3595768 C340.465716,48.5331477 341.133416,47.8628451 341.957674,47.8628451 C342.780895,47.8628451 343.448596,48.5331477 343.448596,49.3595768 L343.448596,49.3595768 Z" id="Stroke-21" stroke="#A3B1BF" stroke-width="0.81" transform="translate(341.957156, 49.359577) rotate(90.000000) translate(-341.957156, -49.359577) "></path>
                <path d="M343.448596,58.2832715 C343.448596,59.1097006 342.780895,59.7800032 341.957674,59.7800032 C341.133416,59.7800032 340.465716,59.1097006 340.465716,58.2832715 C340.465716,57.4568425 341.133416,56.7865399 341.957674,56.7865399 C342.780895,56.7865399 343.448596,57.4568425 343.448596,58.2832715" id="Fill-23" fill="#FFFFFF" transform="translate(341.957156, 58.283272) rotate(90.000000) translate(-341.957156, -58.283272) "></path>
                <path d="M343.448596,58.2832715 C343.448596,59.1097006 342.780895,59.7800032 341.957674,59.7800032 C341.133416,59.7800032 340.465716,59.1097006 340.465716,58.2832715 C340.465716,57.4568425 341.133416,56.7865399 341.957674,56.7865399 C342.780895,56.7865399 343.448596,57.4568425 343.448596,58.2832715 L343.448596,58.2832715 Z" id="Stroke-25" stroke="#A3B1BF" stroke-width="0.81" transform="translate(341.957156, 58.283272) rotate(90.000000) translate(-341.957156, -58.283272) "></path>
                <path d="M343.448596,67.2069663 C343.448596,68.0333954 342.780895,68.703698 341.957674,68.703698 C341.133416,68.703698 340.465716,68.0333954 340.465716,67.2069663 C340.465716,66.3805373 341.133416,65.7102346 341.957674,65.7102346 C342.780895,65.7102346 343.448596,66.3805373 343.448596,67.2069663" id="Fill-27" fill="#FFFFFF" transform="translate(341.957156, 67.206966) rotate(90.000000) translate(-341.957156, -67.206966) "></path>
                <path d="M343.448596,67.2069663 C343.448596,68.0333954 342.780895,68.703698 341.957674,68.703698 C341.133416,68.703698 340.465716,68.0333954 340.465716,67.2069663 C340.465716,66.3805373 341.133416,65.7102346 341.957674,65.7102346 C342.780895,65.7102346 343.448596,66.3805373 343.448596,67.2069663 L343.448596,67.2069663 Z" id="Stroke-29" stroke="#A3B1BF" stroke-width="0.81" transform="translate(341.957156, 67.206966) rotate(90.000000) translate(-341.957156, -67.206966) "></path>
                <path d="M327.400971,24.0852241 C326.576713,24.0852241 325.909013,23.4149215 325.909013,22.5884924 C325.909013,21.7620634 326.576713,21.0917607 327.400971,21.0917607 C328.224192,21.0917607 328.891893,21.7620634 328.891893,22.5884924 C328.891893,23.4149215 328.224192,24.0852241 327.400971,24.0852241 Z" id="Fill-31" fill="#FFFFFF" transform="translate(327.400453, 22.588492) rotate(90.000000) translate(-327.400453, -22.588492) "></path>
                <path d="M328.891893,22.5884924 C328.891893,23.4149215 328.224192,24.0852241 327.400971,24.0852241 C326.576713,24.0852241 325.909013,23.4149215 325.909013,22.5884924 C325.909013,21.7620634 326.576713,21.0917607 327.400971,21.0917607 C328.224192,21.0917607 328.891893,21.7620634 328.891893,22.5884924 L328.891893,22.5884924 Z" id="Stroke-33" stroke="#A3B1BF" stroke-width="0.81" transform="translate(327.400453, 22.588492) rotate(90.000000) translate(-327.400453, -22.588492) "></path>
                <path d="M328.891893,31.5121872 C328.891893,32.3386162 328.224192,33.0089189 327.400971,33.0089189 C326.576713,33.0089189 325.909013,32.3386162 325.909013,31.5121872 C325.909013,30.6857582 326.576713,30.0154555 327.400971,30.0154555 C328.224192,30.0154555 328.891893,30.6857582 328.891893,31.5121872" id="Fill-35" fill="#FFFFFF" transform="translate(327.400453, 31.512187) rotate(90.000000) translate(-327.400453, -31.512187) "></path>
                <path d="M328.891893,31.5121872 C328.891893,32.3386162 328.224192,33.0089189 327.400971,33.0089189 C326.576713,33.0089189 325.909013,32.3386162 325.909013,31.5121872 C325.909013,30.6857582 326.576713,30.0154555 327.400971,30.0154555 C328.224192,30.0154555 328.891893,30.6857582 328.891893,31.5121872 L328.891893,31.5121872 Z" id="Stroke-37" stroke="#A3B1BF" stroke-width="0.81" transform="translate(327.400453, 31.512187) rotate(90.000000) translate(-327.400453, -31.512187) "></path>
                <path d="M328.891893,40.435882 C328.891893,41.262311 328.224192,41.9326137 327.400971,41.9326137 C326.576713,41.9326137 325.909013,41.262311 325.909013,40.435882 C325.909013,39.609453 326.576713,38.9391503 327.400971,38.9391503 C328.224192,38.9391503 328.891893,39.609453 328.891893,40.435882" id="Fill-39" fill="#FFFFFF" transform="translate(327.400453, 40.435882) rotate(90.000000) translate(-327.400453, -40.435882) "></path>
                <path d="M328.891893,40.435882 C328.891893,41.262311 328.224192,41.9326137 327.400971,41.9326137 C326.576713,41.9326137 325.909013,41.262311 325.909013,40.435882 C325.909013,39.609453 326.576713,38.9391503 327.400971,38.9391503 C328.224192,38.9391503 328.891893,39.609453 328.891893,40.435882 L328.891893,40.435882 Z" id="Stroke-41" stroke="#A3B1BF" stroke-width="0.81" transform="translate(327.400453, 40.435882) rotate(90.000000) translate(-327.400453, -40.435882) "></path>
                <path d="M328.891893,49.3595768 C328.891893,50.1860058 328.224192,50.8563085 327.400971,50.8563085 C326.576713,50.8563085 325.909013,50.1860058 325.909013,49.3595768 C325.909013,48.5331477 326.576713,47.8628451 327.400971,47.8628451 C328.224192,47.8628451 328.891893,48.5331477 328.891893,49.3595768" id="Fill-43" fill="#FFFFFF" transform="translate(327.400453, 49.359577) rotate(90.000000) translate(-327.400453, -49.359577) "></path>
                <path d="M328.891893,49.3595768 C328.891893,50.1860058 328.224192,50.8563085 327.400971,50.8563085 C326.576713,50.8563085 325.909013,50.1860058 325.909013,49.3595768 C325.909013,48.5331477 326.576713,47.8628451 327.400971,47.8628451 C328.224192,47.8628451 328.891893,48.5331477 328.891893,49.3595768 L328.891893,49.3595768 Z" id="Stroke-45" stroke="#A3B1BF" stroke-width="0.81" transform="translate(327.400453, 49.359577) rotate(90.000000) translate(-327.400453, -49.359577) "></path>
                <path d="M328.891893,58.2832715 C328.891893,59.1097006 328.224192,59.7800032 327.400971,59.7800032 C326.576713,59.7800032 325.909013,59.1097006 325.909013,58.2832715 C325.909013,57.4568425 326.576713,56.7865399 327.400971,56.7865399 C328.224192,56.7865399 328.891893,57.4568425 328.891893,58.2832715" id="Fill-47" fill="#FFFFFF" transform="translate(327.400453, 58.283272) rotate(90.000000) translate(-327.400453, -58.283272) "></path>
                <path d="M328.891893,58.2832715 C328.891893,59.1097006 328.224192,59.7800032 327.400971,59.7800032 C326.576713,59.7800032 325.909013,59.1097006 325.909013,58.2832715 C325.909013,57.4568425 326.576713,56.7865399 327.400971,56.7865399 C328.224192,56.7865399 328.891893,57.4568425 328.891893,58.2832715 L328.891893,58.2832715 Z" id="Stroke-49" stroke="#A3B1BF" stroke-width="0.81" transform="translate(327.400453, 58.283272) rotate(90.000000) translate(-327.400453, -58.283272) "></path>
                <path d="M328.891893,67.2069663 C328.891893,68.0333954 328.224192,68.703698 327.400971,68.703698 C326.576713,68.703698 325.909013,68.0333954 325.909013,67.2069663 C325.909013,66.3805373 326.576713,65.7102346 327.400971,65.7102346 C328.224192,65.7102346 328.891893,66.3805373 328.891893,67.2069663" id="Fill-51" fill="#FFFFFF" transform="translate(327.400453, 67.206966) rotate(90.000000) translate(-327.400453, -67.206966) "></path>
                <path d="M328.891893,67.2069663 C328.891893,68.0333954 328.224192,68.703698 327.400971,68.703698 C326.576713,68.703698 325.909013,68.0333954 325.909013,67.2069663 C325.909013,66.3805373 326.576713,65.7102346 327.400971,65.7102346 C328.224192,65.7102346 328.891893,66.3805373 328.891893,67.2069663 L328.891893,67.2069663 Z" id="Stroke-53" stroke="#A3B1BF" stroke-width="0.81" transform="translate(327.400453, 67.206966) rotate(90.000000) translate(-327.400453, -67.206966) "></path>
                <path d="M334.679323,28.141449 C333.855065,28.141449 333.187364,27.4711464 333.187364,26.6447173 C333.187364,25.8182883 333.855065,25.1479856 334.679323,25.1479856 C335.502544,25.1479856 336.170244,25.8182883 336.170244,26.6447173 C336.170244,27.4711464 335.502544,28.141449 334.679323,28.141449 Z" id="Fill-55" fill="#FFFFFF" transform="translate(334.678804, 26.644717) rotate(90.000000) translate(-334.678804, -26.644717) "></path>
                <path d="M336.170244,26.6447173 C336.170244,27.4711464 335.502544,28.141449 334.679323,28.141449 C333.855065,28.141449 333.187364,27.4711464 333.187364,26.6447173 C333.187364,25.8182883 333.855065,25.1479856 334.679323,25.1479856 C335.502544,25.1479856 336.170244,25.8182883 336.170244,26.6447173 L336.170244,26.6447173 Z" id="Stroke-57" stroke="#A3B1BF" stroke-width="0.81" transform="translate(334.678804, 26.644717) rotate(90.000000) translate(-334.678804, -26.644717) "></path>
                <path d="M336.170244,35.5684121 C336.170244,36.3948411 335.502544,37.0651438 334.679323,37.0651438 C333.855065,37.0651438 333.187364,36.3948411 333.187364,35.5684121 C333.187364,34.7419831 333.855065,34.0716804 334.679323,34.0716804 C335.502544,34.0716804 336.170244,34.7419831 336.170244,35.5684121" id="Fill-59" fill="#FFFFFF" transform="translate(334.678804, 35.568412) rotate(90.000000) translate(-334.678804, -35.568412) "></path>
                <path d="M336.170244,35.5684121 C336.170244,36.3948411 335.502544,37.0651438 334.679323,37.0651438 C333.855065,37.0651438 333.187364,36.3948411 333.187364,35.5684121 C333.187364,34.7419831 333.855065,34.0716804 334.679323,34.0716804 C335.502544,34.0716804 336.170244,34.7419831 336.170244,35.5684121 L336.170244,35.5684121 Z" id="Stroke-61" stroke="#A3B1BF" stroke-width="0.81" transform="translate(334.678804, 35.568412) rotate(90.000000) translate(-334.678804, -35.568412) "></path>
                <path d="M336.170244,44.4921069 C336.170244,45.3185359 335.502544,45.9888386 334.679323,45.9888386 C333.855065,45.9888386 333.187364,45.3185359 333.187364,44.4921069 C333.187364,43.6656779 333.855065,42.9953752 334.679323,42.9953752 C335.502544,42.9953752 336.170244,43.6656779 336.170244,44.4921069" id="Fill-63" fill="#FFFFFF" transform="translate(334.678804, 44.492107) rotate(90.000000) translate(-334.678804, -44.492107) "></path>
                <path d="M336.170244,44.4921069 C336.170244,45.3185359 335.502544,45.9888386 334.679323,45.9888386 C333.855065,45.9888386 333.187364,45.3185359 333.187364,44.4921069 C333.187364,43.6656779 333.855065,42.9953752 334.679323,42.9953752 C335.502544,42.9953752 336.170244,43.6656779 336.170244,44.4921069 L336.170244,44.4921069 Z" id="Stroke-65" stroke="#A3B1BF" stroke-width="0.81" transform="translate(334.678804, 44.492107) rotate(90.000000) translate(-334.678804, -44.492107) "></path>
                <path d="M336.170244,53.4158017 C336.170244,54.2422307 335.502544,54.9125333 334.679323,54.9125333 C333.855065,54.9125333 333.187364,54.2422307 333.187364,53.4158017 C333.187364,52.5893726 333.855065,51.91907 334.679323,51.91907 C335.502544,51.91907 336.170244,52.5893726 336.170244,53.4158017" id="Fill-67" fill="#FFFFFF" transform="translate(334.678804, 53.415802) rotate(90.000000) translate(-334.678804, -53.415802) "></path>
                <path d="M336.170244,53.4158017 C336.170244,54.2422307 335.502544,54.9125333 334.679323,54.9125333 C333.855065,54.9125333 333.187364,54.2422307 333.187364,53.4158017 C333.187364,52.5893726 333.855065,51.91907 334.679323,51.91907 C335.502544,51.91907 336.170244,52.5893726 336.170244,53.4158017 L336.170244,53.4158017 Z" id="Stroke-69" stroke="#A3B1BF" stroke-width="0.81" transform="translate(334.678804, 53.415802) rotate(90.000000) translate(-334.678804, -53.415802) "></path>
                <path d="M336.170244,62.3394964 C336.170244,63.1659255 335.502544,63.8362281 334.679323,63.8362281 C333.855065,63.8362281 333.187364,63.1659255 333.187364,62.3394964 C333.187364,61.5130674 333.855065,60.8427648 334.679323,60.8427648 C335.502544,60.8427648 336.170244,61.5130674 336.170244,62.3394964" id="Fill-71" fill="#FFFFFF" transform="translate(334.678804, 62.339496) rotate(90.000000) translate(-334.678804, -62.339496) "></path>
                <path d="M336.170244,62.3394964 C336.170244,63.1659255 335.502544,63.8362281 334.679323,63.8362281 C333.855065,63.8362281 333.187364,63.1659255 333.187364,62.3394964 C333.187364,61.5130674 333.855065,60.8427648 334.679323,60.8427648 C335.502544,60.8427648 336.170244,61.5130674 336.170244,62.3394964 L336.170244,62.3394964 Z" id="Stroke-73" stroke="#A3B1BF" stroke-width="0.81" transform="translate(334.678804, 62.339496) rotate(90.000000) translate(-334.678804, -62.339496) "></path>
                <path d="M336.170244,71.2631912 C336.170244,72.0896203 335.502544,72.7599229 334.679323,72.7599229 C333.855065,72.7599229 333.187364,72.0896203 333.187364,71.2631912 C333.187364,70.4367622 333.855065,69.7664595 334.679323,69.7664595 C335.502544,69.7664595 336.170244,70.4367622 336.170244,71.2631912" id="Fill-75" fill="#FFFFFF" transform="translate(334.678804, 71.263191) rotate(90.000000) translate(-334.678804, -71.263191) "></path>
                <path d="M336.170244,71.2631912 C336.170244,72.0896203 335.502544,72.7599229 334.679323,72.7599229 C333.855065,72.7599229 333.187364,72.0896203 333.187364,71.2631912 C333.187364,70.4367622 333.855065,69.7664595 334.679323,69.7664595 C335.502544,69.7664595 336.170244,70.4367622 336.170244,71.2631912 L336.170244,71.2631912 Z" id="Stroke-77" stroke="#A3B1BF" stroke-width="0.81" transform="translate(334.678804, 71.263191) rotate(90.000000) translate(-334.678804, -71.263191) "></path>
                <path d="M335.089444,136.046978 C332.700651,136.046978 330.763905,134.102684 330.763905,131.704582 C330.763905,129.306481 332.700651,127.362187 335.089444,127.362187 C337.478236,127.362187 339.414983,129.306481 339.414983,131.704582 C339.414983,134.102684 337.478236,136.046978 335.089444,136.046978 Z" id="Fill-79" fill="#A3B1BF" transform="translate(335.089444, 131.704582) rotate(90.000000) translate(-335.089444, -131.704582) "></path>
                <path d="M307.865544,121.56038 C307.865544,122.386809 307.197843,123.057112 306.374622,123.057112 C305.550365,123.057112 304.882664,122.386809 304.882664,121.56038 C304.882664,120.733951 305.550365,120.063648 306.374622,120.063648 C307.197843,120.063648 307.865544,120.733951 307.865544,121.56038" id="Fill-81" fill="#F5F5F5" transform="translate(306.374104, 121.560380) rotate(90.000000) translate(-306.374104, -121.560380) "></path>
                <path d="M307.865544,121.56038 C307.865544,122.386809 307.197843,123.057112 306.374622,123.057112 C305.550365,123.057112 304.882664,122.386809 304.882664,121.56038 C304.882664,120.733951 305.550365,120.063648 306.374622,120.063648 C307.197843,120.063648 307.865544,120.733951 307.865544,121.56038 L307.865544,121.56038 Z" id="Stroke-83" stroke="#A3B1BF" stroke-width="0.81" transform="translate(306.374104, 121.560380) rotate(90.000000) translate(-306.374104, -121.560380) "></path>
                <path d="M294.117547,121.56038 C294.117547,122.386809 293.449846,123.057112 292.626625,123.057112 C291.802367,123.057112 291.134667,122.386809 291.134667,121.56038 C291.134667,120.733951 291.802367,120.063648 292.626625,120.063648 C293.449846,120.063648 294.117547,120.733951 294.117547,121.56038" id="Fill-85" fill="#F5F5F5" transform="translate(292.626107, 121.560380) rotate(90.000000) translate(-292.626107, -121.560380) "></path>
                <path d="M294.117547,121.56038 C294.117547,122.386809 293.449846,123.057112 292.626625,123.057112 C291.802367,123.057112 291.134667,122.386809 291.134667,121.56038 C291.134667,120.733951 291.802367,120.063648 292.626625,120.063648 C293.449846,120.063648 294.117547,120.733951 294.117547,121.56038 L294.117547,121.56038 Z" id="Stroke-87" stroke="#A3B1BF" stroke-width="0.81" transform="translate(292.626107, 121.560380) rotate(90.000000) translate(-292.626107, -121.560380) "></path>
                <path d="M307.865544,38.813392 C307.865544,39.6398211 307.197843,40.3101237 306.374622,40.3101237 C305.550365,40.3101237 304.882664,39.6398211 304.882664,38.813392 C304.882664,37.986963 305.550365,37.3166603 306.374622,37.3166603 C307.197843,37.3166603 307.865544,37.986963 307.865544,38.813392" id="Fill-89" fill="#F5F5F5" transform="translate(306.374104, 38.813392) rotate(90.000000) translate(-306.374104, -38.813392) "></path>
                <path d="M307.865544,38.813392 C307.865544,39.6398211 307.197843,40.3101237 306.374622,40.3101237 C305.550365,40.3101237 304.882664,39.6398211 304.882664,38.813392 C304.882664,37.986963 305.550365,37.3166603 306.374622,37.3166603 C307.197843,37.3166603 307.865544,37.986963 307.865544,38.813392 L307.865544,38.813392 Z" id="Stroke-91" stroke="#A3B1BF" stroke-width="0.81" transform="translate(306.374104, 38.813392) rotate(90.000000) translate(-306.374104, -38.813392) "></path>
                <path d="M294.117547,38.813392 C294.117547,39.6398211 293.449846,40.3101237 292.626625,40.3101237 C291.802367,40.3101237 291.134667,39.6398211 291.134667,38.813392 C291.134667,37.986963 291.802367,37.3166603 292.626625,37.3166603 C293.449846,37.3166603 294.117547,37.986963 294.117547,38.813392" id="Fill-93" fill="#F5F5F5" transform="translate(292.626107, 38.813392) rotate(90.000000) translate(-292.626107, -38.813392) "></path>
                <path d="M294.117547,38.813392 C294.117547,39.6398211 293.449846,40.3101237 292.626625,40.3101237 C291.802367,40.3101237 291.134667,39.6398211 291.134667,38.813392 C291.134667,37.986963 291.802367,37.3166603 292.626625,37.3166603 C293.449846,37.3166603 294.117547,37.986963 294.117547,38.813392 L294.117547,38.813392 Z" id="Stroke-95" stroke="#A3B1BF" stroke-width="0.81" transform="translate(292.626107, 38.813392) rotate(90.000000) translate(-292.626107, -38.813392) "></path>
                <path d="M205.696461,94.8252648 C201.134531,94.8252648 197.402043,91.0782313 197.402043,86.4985238 L197.402043,73.9594928 C197.402043,69.3797853 201.134531,65.6327519 205.696461,65.6327519 L323.184813,65.6327519 C327.746743,65.6327519 331.479231,69.3797853 331.479231,73.9594928 L331.479231,86.4985238 C331.479231,91.0782313 327.746743,94.8252648 323.184813,94.8252648 L205.696461,94.8252648 Z" id="Fill-97" fill="#F0F2F5" transform="translate(264.440637, 80.229008) rotate(90.000000) translate(-264.440637, -80.229008) "></path>
                <path d="M205.696461,94.8252648 C201.134531,94.8252648 197.402043,91.0782313 197.402043,86.4985238 L197.402043,73.9594928 C197.402043,69.3797853 201.134531,65.6327519 205.696461,65.6327519 L323.184813,65.6327519 C327.746743,65.6327519 331.479231,69.3797853 331.479231,73.9594928 L331.479231,86.4985238 C331.479231,91.0782313 327.746743,94.8252648 323.184813,94.8252648 L205.696461,94.8252648 L205.696461,94.8252648 Z" id="Stroke-99" stroke="#A3B1BF" stroke-width="1.62" transform="translate(264.440637, 80.229008) rotate(90.000000) translate(-264.440637, -80.229008) "></path>
                <path d="M273.091198,22.5884924 C273.091198,23.4149215 272.423497,24.0852241 271.600276,24.0852241 C270.776019,24.0852241 270.108318,23.4149215 270.108318,22.5884924 C270.108318,21.7620634 270.776019,21.0917607 271.600276,21.0917607 C272.423497,21.0917607 273.091198,21.7620634 273.091198,22.5884924" id="Fill-101" fill="#FFFFFF" transform="translate(271.599758, 22.588492) rotate(90.000000) translate(-271.599758, -22.588492) "></path>
                <path d="M273.091198,22.5884924 C273.091198,23.4149215 272.423497,24.0852241 271.600276,24.0852241 C270.776019,24.0852241 270.108318,23.4149215 270.108318,22.5884924 C270.108318,21.7620634 270.776019,21.0917607 271.600276,21.0917607 C272.423497,21.0917607 273.091198,21.7620634 273.091198,22.5884924 L273.091198,22.5884924 Z" id="Stroke-103" stroke="#A3B1BF" stroke-width="0.81" transform="translate(271.599758, 22.588492) rotate(90.000000) translate(-271.599758, -22.588492) "></path>
                <path d="M273.091198,31.5121872 C273.091198,32.3386162 272.423497,33.0089189 271.600276,33.0089189 C270.776019,33.0089189 270.108318,32.3386162 270.108318,31.5121872 C270.108318,30.6857582 270.776019,30.0154555 271.600276,30.0154555 C272.423497,30.0154555 273.091198,30.6857582 273.091198,31.5121872" id="Fill-105" fill="#FFFFFF" transform="translate(271.599758, 31.512187) rotate(90.000000) translate(-271.599758, -31.512187) "></path>
                <path d="M273.091198,31.5121872 C273.091198,32.3386162 272.423497,33.0089189 271.600276,33.0089189 C270.776019,33.0089189 270.108318,32.3386162 270.108318,31.5121872 C270.108318,30.6857582 270.776019,30.0154555 271.600276,30.0154555 C272.423497,30.0154555 273.091198,30.6857582 273.091198,31.5121872 L273.091198,31.5121872 Z" id="Stroke-107" stroke="#A3B1BF" stroke-width="0.81" transform="translate(271.599758, 31.512187) rotate(90.000000) translate(-271.599758, -31.512187) "></path>
                <path d="M273.091198,40.435882 C273.091198,41.262311 272.423497,41.9326137 271.600276,41.9326137 C270.776019,41.9326137 270.108318,41.262311 270.108318,40.435882 C270.108318,39.609453 270.776019,38.9391503 271.600276,38.9391503 C272.423497,38.9391503 273.091198,39.609453 273.091198,40.435882" id="Fill-109" fill="#FFFFFF" transform="translate(271.599758, 40.435882) rotate(90.000000) translate(-271.599758, -40.435882) "></path>
                <path d="M273.091198,40.435882 C273.091198,41.262311 272.423497,41.9326137 271.600276,41.9326137 C270.776019,41.9326137 270.108318,41.262311 270.108318,40.435882 C270.108318,39.609453 270.776019,38.9391503 271.600276,38.9391503 C272.423497,38.9391503 273.091198,39.609453 273.091198,40.435882 L273.091198,40.435882 Z" id="Stroke-111" stroke="#A3B1BF" stroke-width="0.81" transform="translate(271.599758, 40.435882) rotate(90.000000) translate(-271.599758, -40.435882) "></path>
                <path d="M273.091198,49.3595768 C273.091198,50.1860058 272.423497,50.8563085 271.600276,50.8563085 C270.776019,50.8563085 270.108318,50.1860058 270.108318,49.3595768 C270.108318,48.5331477 270.776019,47.8628451 271.600276,47.8628451 C272.423497,47.8628451 273.091198,48.5331477 273.091198,49.3595768" id="Fill-113" fill="#FFFFFF" transform="translate(271.599758, 49.359577) rotate(90.000000) translate(-271.599758, -49.359577) "></path>
                <path d="M273.091198,49.3595768 C273.091198,50.1860058 272.423497,50.8563085 271.600276,50.8563085 C270.776019,50.8563085 270.108318,50.1860058 270.108318,49.3595768 C270.108318,48.5331477 270.776019,47.8628451 271.600276,47.8628451 C272.423497,47.8628451 273.091198,48.5331477 273.091198,49.3595768 L273.091198,49.3595768 Z" id="Stroke-115" stroke="#A3B1BF" stroke-width="0.81" transform="translate(271.599758, 49.359577) rotate(90.000000) translate(-271.599758, -49.359577) "></path>
                <path d="M273.091198,58.2832715 C273.091198,59.1097006 272.423497,59.7800032 271.600276,59.7800032 C270.776019,59.7800032 270.108318,59.1097006 270.108318,58.2832715 C270.108318,57.4568425 270.776019,56.7865399 271.600276,56.7865399 C272.423497,56.7865399 273.091198,57.4568425 273.091198,58.2832715" id="Fill-117" fill="#FFFFFF" transform="translate(271.599758, 58.283272) rotate(90.000000) translate(-271.599758, -58.283272) "></path>
                <path d="M273.091198,58.2832715 C273.091198,59.1097006 272.423497,59.7800032 271.600276,59.7800032 C270.776019,59.7800032 270.108318,59.1097006 270.108318,58.2832715 C270.108318,57.4568425 270.776019,56.7865399 271.600276,56.7865399 C272.423497,56.7865399 273.091198,57.4568425 273.091198,58.2832715 L273.091198,58.2832715 Z" id="Stroke-119" stroke="#A3B1BF" stroke-width="0.81" transform="translate(271.599758, 58.283272) rotate(90.000000) translate(-271.599758, -58.283272) "></path>
                <path d="M271.600276,68.703698 C270.776019,68.703698 270.108318,68.0333954 270.108318,67.2069663 C270.108318,66.3805373 270.776019,65.7102346 271.600276,65.7102346 C272.423497,65.7102346 273.091198,66.3805373 273.091198,67.2069663 C273.091198,68.0333954 272.423497,68.703698 271.600276,68.703698 Z" id="Fill-121" fill="#FFFFFF" transform="translate(271.599758, 67.206966) rotate(90.000000) translate(-271.599758, -67.206966) "></path>
                <path d="M273.091198,67.2069663 C273.091198,68.0333954 272.423497,68.703698 271.600276,68.703698 C270.776019,68.703698 270.108318,68.0333954 270.108318,67.2069663 C270.108318,66.3805373 270.776019,65.7102346 271.600276,65.7102346 C272.423497,65.7102346 273.091198,66.3805373 273.091198,67.2069663 L273.091198,67.2069663 Z" id="Stroke-123" stroke="#A3B1BF" stroke-width="0.81" transform="translate(271.599758, 67.206966) rotate(90.000000) translate(-271.599758, -67.206966) "></path>
                <path d="M258.534495,22.5884924 C258.534495,23.4149215 257.866794,24.0852241 257.043573,24.0852241 C256.219316,24.0852241 255.551615,23.4149215 255.551615,22.5884924 C255.551615,21.7620634 256.219316,21.0917607 257.043573,21.0917607 C257.866794,21.0917607 258.534495,21.7620634 258.534495,22.5884924" id="Fill-125" fill="#FFFFFF" transform="translate(257.043055, 22.588492) rotate(90.000000) translate(-257.043055, -22.588492) "></path>
                <path d="M258.534495,22.5884924 C258.534495,23.4149215 257.866794,24.0852241 257.043573,24.0852241 C256.219316,24.0852241 255.551615,23.4149215 255.551615,22.5884924 C255.551615,21.7620634 256.219316,21.0917607 257.043573,21.0917607 C257.866794,21.0917607 258.534495,21.7620634 258.534495,22.5884924 L258.534495,22.5884924 Z" id="Stroke-127" stroke="#A3B1BF" stroke-width="0.81" transform="translate(257.043055, 22.588492) rotate(90.000000) translate(-257.043055, -22.588492) "></path>
                <path d="M258.534495,31.5121872 C258.534495,32.3386162 257.866794,33.0089189 257.043573,33.0089189 C256.219316,33.0089189 255.551615,32.3386162 255.551615,31.5121872 C255.551615,30.6857582 256.219316,30.0154555 257.043573,30.0154555 C257.866794,30.0154555 258.534495,30.6857582 258.534495,31.5121872" id="Fill-129" fill="#FFFFFF" transform="translate(257.043055, 31.512187) rotate(90.000000) translate(-257.043055, -31.512187) "></path>
                <path d="M258.534495,31.5121872 C258.534495,32.3386162 257.866794,33.0089189 257.043573,33.0089189 C256.219316,33.0089189 255.551615,32.3386162 255.551615,31.5121872 C255.551615,30.6857582 256.219316,30.0154555 257.043573,30.0154555 C257.866794,30.0154555 258.534495,30.6857582 258.534495,31.5121872 L258.534495,31.5121872 Z" id="Stroke-131" stroke="#A3B1BF" stroke-width="0.81" transform="translate(257.043055, 31.512187) rotate(90.000000) translate(-257.043055, -31.512187) "></path>
                <path d="M258.534495,40.435882 C258.534495,41.262311 257.866794,41.9326137 257.043573,41.9326137 C256.219316,41.9326137 255.551615,41.262311 255.551615,40.435882 C255.551615,39.609453 256.219316,38.9391503 257.043573,38.9391503 C257.866794,38.9391503 258.534495,39.609453 258.534495,40.435882" id="Fill-133" fill="#FFFFFF" transform="translate(257.043055, 40.435882) rotate(90.000000) translate(-257.043055, -40.435882) "></path>
                <path d="M258.534495,40.435882 C258.534495,41.262311 257.866794,41.9326137 257.043573,41.9326137 C256.219316,41.9326137 255.551615,41.262311 255.551615,40.435882 C255.551615,39.609453 256.219316,38.9391503 257.043573,38.9391503 C257.866794,38.9391503 258.534495,39.609453 258.534495,40.435882 L258.534495,40.435882 Z" id="Stroke-135" stroke="#A3B1BF" stroke-width="0.81" transform="translate(257.043055, 40.435882) rotate(90.000000) translate(-257.043055, -40.435882) "></path>
                <path d="M258.534495,49.3595768 C258.534495,50.1860058 257.866794,50.8563085 257.043573,50.8563085 C256.219316,50.8563085 255.551615,50.1860058 255.551615,49.3595768 C255.551615,48.5331477 256.219316,47.8628451 257.043573,47.8628451 C257.866794,47.8628451 258.534495,48.5331477 258.534495,49.3595768" id="Fill-137" fill="#FFFFFF" transform="translate(257.043055, 49.359577) rotate(90.000000) translate(-257.043055, -49.359577) "></path>
                <path d="M258.534495,49.3595768 C258.534495,50.1860058 257.866794,50.8563085 257.043573,50.8563085 C256.219316,50.8563085 255.551615,50.1860058 255.551615,49.3595768 C255.551615,48.5331477 256.219316,47.8628451 257.043573,47.8628451 C257.866794,47.8628451 258.534495,48.5331477 258.534495,49.3595768 L258.534495,49.3595768 Z" id="Stroke-139" stroke="#A3B1BF" stroke-width="0.81" transform="translate(257.043055, 49.359577) rotate(90.000000) translate(-257.043055, -49.359577) "></path>
                <path d="M258.534495,58.2832715 C258.534495,59.1097006 257.866794,59.7800032 257.043573,59.7800032 C256.219316,59.7800032 255.551615,59.1097006 255.551615,58.2832715 C255.551615,57.4568425 256.219316,56.7865399 257.043573,56.7865399 C257.866794,56.7865399 258.534495,57.4568425 258.534495,58.2832715" id="Fill-141" fill="#FFFFFF" transform="translate(257.043055, 58.283272) rotate(90.000000) translate(-257.043055, -58.283272) "></path>
                <path d="M258.534495,58.2832715 C258.534495,59.1097006 257.866794,59.7800032 257.043573,59.7800032 C256.219316,59.7800032 255.551615,59.1097006 255.551615,58.2832715 C255.551615,57.4568425 256.219316,56.7865399 257.043573,56.7865399 C257.866794,56.7865399 258.534495,57.4568425 258.534495,58.2832715 L258.534495,58.2832715 Z" id="Stroke-143" stroke="#A3B1BF" stroke-width="0.81" transform="translate(257.043055, 58.283272) rotate(90.000000) translate(-257.043055, -58.283272) "></path>
                <path d="M258.534495,67.2069663 C258.534495,68.0333954 257.866794,68.703698 257.043573,68.703698 C256.219316,68.703698 255.551615,68.0333954 255.551615,67.2069663 C255.551615,66.3805373 256.219316,65.7102346 257.043573,65.7102346 C257.866794,65.7102346 258.534495,66.3805373 258.534495,67.2069663" id="Fill-145" fill="#FFFFFF" transform="translate(257.043055, 67.206966) rotate(90.000000) translate(-257.043055, -67.206966) "></path>
                <path d="M258.534495,67.2069663 C258.534495,68.0333954 257.866794,68.703698 257.043573,68.703698 C256.219316,68.703698 255.551615,68.0333954 255.551615,67.2069663 C255.551615,66.3805373 256.219316,65.7102346 257.043573,65.7102346 C257.866794,65.7102346 258.534495,66.3805373 258.534495,67.2069663 L258.534495,67.2069663 Z" id="Stroke-147" stroke="#A3B1BF" stroke-width="0.81" transform="translate(257.043055, 67.206966) rotate(90.000000) translate(-257.043055, -67.206966) "></path>
                <path d="M265.812846,26.6447173 C265.812846,27.4711464 265.145146,28.141449 264.321925,28.141449 C263.497667,28.141449 262.829967,27.4711464 262.829967,26.6447173 C262.829967,25.8182883 263.497667,25.1479856 264.321925,25.1479856 C265.145146,25.1479856 265.812846,25.8182883 265.812846,26.6447173" id="Fill-149" fill="#FFFFFF" transform="translate(264.321407, 26.644717) rotate(90.000000) translate(-264.321407, -26.644717) "></path>
                <path d="M265.812846,26.6447173 C265.812846,27.4711464 265.145146,28.141449 264.321925,28.141449 C263.497667,28.141449 262.829967,27.4711464 262.829967,26.6447173 C262.829967,25.8182883 263.497667,25.1479856 264.321925,25.1479856 C265.145146,25.1479856 265.812846,25.8182883 265.812846,26.6447173 L265.812846,26.6447173 Z" id="Stroke-151" stroke="#A3B1BF" stroke-width="0.81" transform="translate(264.321407, 26.644717) rotate(90.000000) translate(-264.321407, -26.644717) "></path>
                <path d="M265.812846,35.5684121 C265.812846,36.3948411 265.145146,37.0651438 264.321925,37.0651438 C263.497667,37.0651438 262.829967,36.3948411 262.829967,35.5684121 C262.829967,34.7419831 263.497667,34.0716804 264.321925,34.0716804 C265.145146,34.0716804 265.812846,34.7419831 265.812846,35.5684121" id="Fill-153" fill="#FFFFFF" transform="translate(264.321407, 35.568412) rotate(90.000000) translate(-264.321407, -35.568412) "></path>
                <path d="M265.812846,35.5684121 C265.812846,36.3948411 265.145146,37.0651438 264.321925,37.0651438 C263.497667,37.0651438 262.829967,36.3948411 262.829967,35.5684121 C262.829967,34.7419831 263.497667,34.0716804 264.321925,34.0716804 C265.145146,34.0716804 265.812846,34.7419831 265.812846,35.5684121 L265.812846,35.5684121 Z" id="Stroke-155" stroke="#A3B1BF" stroke-width="0.81" transform="translate(264.321407, 35.568412) rotate(90.000000) translate(-264.321407, -35.568412) "></path>
                <path d="M265.812846,44.4921069 C265.812846,45.3185359 265.145146,45.9888386 264.321925,45.9888386 C263.497667,45.9888386 262.829967,45.3185359 262.829967,44.4921069 C262.829967,43.6656779 263.497667,42.9953752 264.321925,42.9953752 C265.145146,42.9953752 265.812846,43.6656779 265.812846,44.4921069" id="Fill-157" fill="#FFFFFF" transform="translate(264.321407, 44.492107) rotate(90.000000) translate(-264.321407, -44.492107) "></path>
                <path d="M265.812846,44.4921069 C265.812846,45.3185359 265.145146,45.9888386 264.321925,45.9888386 C263.497667,45.9888386 262.829967,45.3185359 262.829967,44.4921069 C262.829967,43.6656779 263.497667,42.9953752 264.321925,42.9953752 C265.145146,42.9953752 265.812846,43.6656779 265.812846,44.4921069 L265.812846,44.4921069 Z" id="Stroke-159" stroke="#A3B1BF" stroke-width="0.81" transform="translate(264.321407, 44.492107) rotate(90.000000) translate(-264.321407, -44.492107) "></path>
                <path d="M265.812846,53.4158017 C265.812846,54.2422307 265.145146,54.9125333 264.321925,54.9125333 C263.497667,54.9125333 262.829967,54.2422307 262.829967,53.4158017 C262.829967,52.5893726 263.497667,51.91907 264.321925,51.91907 C265.145146,51.91907 265.812846,52.5893726 265.812846,53.4158017" id="Fill-161" fill="#FFFFFF" transform="translate(264.321407, 53.415802) rotate(90.000000) translate(-264.321407, -53.415802) "></path>
                <path d="M265.812846,53.4158017 C265.812846,54.2422307 265.145146,54.9125333 264.321925,54.9125333 C263.497667,54.9125333 262.829967,54.2422307 262.829967,53.4158017 C262.829967,52.5893726 263.497667,51.91907 264.321925,51.91907 C265.145146,51.91907 265.812846,52.5893726 265.812846,53.4158017 L265.812846,53.4158017 Z" id="Stroke-163" stroke="#A3B1BF" stroke-width="0.81" transform="translate(264.321407, 53.415802) rotate(90.000000) translate(-264.321407, -53.415802) "></path>
                <path d="M265.812846,62.3394964 C265.812846,63.1659255 265.145146,63.8362281 264.321925,63.8362281 C263.497667,63.8362281 262.829967,63.1659255 262.829967,62.3394964 C262.829967,61.5130674 263.497667,60.8427648 264.321925,60.8427648 C265.145146,60.8427648 265.812846,61.5130674 265.812846,62.3394964" id="Fill-165" fill="#FFFFFF" transform="translate(264.321407, 62.339496) rotate(90.000000) translate(-264.321407, -62.339496) "></path>
                <path d="M265.812846,62.3394964 C265.812846,63.1659255 265.145146,63.8362281 264.321925,63.8362281 C263.497667,63.8362281 262.829967,63.1659255 262.829967,62.3394964 C262.829967,61.5130674 263.497667,60.8427648 264.321925,60.8427648 C265.145146,60.8427648 265.812846,61.5130674 265.812846,62.3394964 L265.812846,62.3394964 Z" id="Stroke-167" stroke="#A3B1BF" stroke-width="0.81" transform="translate(264.321407, 62.339496) rotate(90.000000) translate(-264.321407, -62.339496) "></path>
                <path d="M265.812846,71.2631912 C265.812846,72.0896203 265.145146,72.7599229 264.321925,72.7599229 C263.497667,72.7599229 262.829967,72.0896203 262.829967,71.2631912 C262.829967,70.4367622 263.497667,69.7664595 264.321925,69.7664595 C265.145146,69.7664595 265.812846,70.4367622 265.812846,71.2631912" id="Fill-169" fill="#FFFFFF" transform="translate(264.321407, 71.263191) rotate(90.000000) translate(-264.321407, -71.263191) "></path>
                <path d="M265.812846,71.2631912 C265.812846,72.0896203 265.145146,72.7599229 264.321925,72.7599229 C263.497667,72.7599229 262.829967,72.0896203 262.829967,71.2631912 C262.829967,70.4367622 263.497667,69.7664595 264.321925,69.7664595 C265.145146,69.7664595 265.812846,70.4367622 265.812846,71.2631912 L265.812846,71.2631912 Z" id="Stroke-171" stroke="#A3B1BF" stroke-width="0.81" transform="translate(264.321407, 71.263191) rotate(90.000000) translate(-264.321407, -71.263191) "></path>
                <path d="M263.92334,136.046978 C261.534548,136.046978 259.597801,134.102684 259.597801,131.704582 C259.597801,129.306481 261.534548,127.362187 263.92334,127.362187 C266.312132,127.362187 268.248879,129.306481 268.248879,131.704582 C268.248879,134.102684 266.312132,136.046978 263.92334,136.046978 Z" id="Fill-173" fill="#A3B1BF" transform="translate(263.923340, 131.704582) rotate(90.000000) translate(-263.923340, -131.704582) "></path>
                <path d="M170.113409,94.8252648 C165.551479,94.8252648 161.818991,91.0782313 161.818991,86.4985238 L161.818991,73.9594928 C161.818991,69.3797853 165.551479,65.6327519 170.113409,65.6327519 L287.601762,65.6327519 C292.163691,65.6327519 295.896179,69.3797853 295.896179,73.9594928 L295.896179,86.4985238 C295.896179,91.0782313 292.163691,94.8252648 287.601762,94.8252648 L170.113409,94.8252648 Z" id="Fill-175" fill="#F0F2F5" transform="translate(228.857585, 80.229008) rotate(90.000000) translate(-228.857585, -80.229008) "></path>
                <path d="M170.113409,94.8252648 C165.551479,94.8252648 161.818991,91.0782313 161.818991,86.4985238 L161.818991,73.9594928 C161.818991,69.3797853 165.551479,65.6327519 170.113409,65.6327519 L287.601762,65.6327519 C292.163691,65.6327519 295.896179,69.3797853 295.896179,73.9594928 L295.896179,86.4985238 C295.896179,91.0782313 292.163691,94.8252648 287.601762,94.8252648 L170.113409,94.8252648 L170.113409,94.8252648 Z" id="Stroke-177" stroke="#A3B1BF" stroke-width="1.62" transform="translate(228.857585, 80.229008) rotate(90.000000) translate(-228.857585, -80.229008) "></path>
                <path d="M237.508146,22.5884924 C237.508146,23.4149215 236.840446,24.0852241 236.017225,24.0852241 C235.192967,24.0852241 234.525266,23.4149215 234.525266,22.5884924 C234.525266,21.7620634 235.192967,21.0917607 236.017225,21.0917607 C236.840446,21.0917607 237.508146,21.7620634 237.508146,22.5884924" id="Fill-179" transform="translate(236.016706, 22.588492) rotate(90.000000) translate(-236.016706, -22.588492) "></path>
                <path d="M237.508146,22.5884924 C237.508146,23.4149215 236.840446,24.0852241 236.017225,24.0852241 C235.192967,24.0852241 234.525266,23.4149215 234.525266,22.5884924 C234.525266,21.7620634 235.192967,21.0917607 236.017225,21.0917607 C236.840446,21.0917607 237.508146,21.7620634 237.508146,22.5884924 L237.508146,22.5884924 Z" id="Stroke-181" stroke="#A3B1BF" stroke-width="0.81" transform="translate(236.016706, 22.588492) rotate(90.000000) translate(-236.016706, -22.588492) "></path>
                <path d="M237.508146,31.5121872 C237.508146,32.3386162 236.840446,33.0089189 236.017225,33.0089189 C235.192967,33.0089189 234.525266,32.3386162 234.525266,31.5121872 C234.525266,30.6857582 235.192967,30.0154555 236.017225,30.0154555 C236.840446,30.0154555 237.508146,30.6857582 237.508146,31.5121872" id="Fill-183" transform="translate(236.016706, 31.512187) rotate(90.000000) translate(-236.016706, -31.512187) "></path>
                <path d="M237.508146,31.5121872 C237.508146,32.3386162 236.840446,33.0089189 236.017225,33.0089189 C235.192967,33.0089189 234.525266,32.3386162 234.525266,31.5121872 C234.525266,30.6857582 235.192967,30.0154555 236.017225,30.0154555 C236.840446,30.0154555 237.508146,30.6857582 237.508146,31.5121872 L237.508146,31.5121872 Z" id="Stroke-185" stroke="#A3B1BF" stroke-width="0.81" transform="translate(236.016706, 31.512187) rotate(90.000000) translate(-236.016706, -31.512187) "></path>
                <path d="M237.508146,40.435882 C237.508146,41.262311 236.840446,41.9326137 236.017225,41.9326137 C235.192967,41.9326137 234.525266,41.262311 234.525266,40.435882 C234.525266,39.609453 235.192967,38.9391503 236.017225,38.9391503 C236.840446,38.9391503 237.508146,39.609453 237.508146,40.435882" id="Fill-187" transform="translate(236.016706, 40.435882) rotate(90.000000) translate(-236.016706, -40.435882) "></path>
                <path d="M237.508146,40.435882 C237.508146,41.262311 236.840446,41.9326137 236.017225,41.9326137 C235.192967,41.9326137 234.525266,41.262311 234.525266,40.435882 C234.525266,39.609453 235.192967,38.9391503 236.017225,38.9391503 C236.840446,38.9391503 237.508146,39.609453 237.508146,40.435882 L237.508146,40.435882 Z" id="Stroke-189" stroke="#A3B1BF" stroke-width="0.81" transform="translate(236.016706, 40.435882) rotate(90.000000) translate(-236.016706, -40.435882) "></path>
                <path d="M237.508146,49.3595768 C237.508146,50.1860058 236.840446,50.8563085 236.017225,50.8563085 C235.192967,50.8563085 234.525266,50.1860058 234.525266,49.3595768 C234.525266,48.5331477 235.192967,47.8628451 236.017225,47.8628451 C236.840446,47.8628451 237.508146,48.5331477 237.508146,49.3595768" id="Fill-191" transform="translate(236.016706, 49.359577) rotate(90.000000) translate(-236.016706, -49.359577) "></path>
                <path d="M237.508146,49.3595768 C237.508146,50.1860058 236.840446,50.8563085 236.017225,50.8563085 C235.192967,50.8563085 234.525266,50.1860058 234.525266,49.3595768 C234.525266,48.5331477 235.192967,47.8628451 236.017225,47.8628451 C236.840446,47.8628451 237.508146,48.5331477 237.508146,49.3595768 L237.508146,49.3595768 Z" id="Stroke-193" stroke="#A3B1BF" stroke-width="0.81" transform="translate(236.016706, 49.359577) rotate(90.000000) translate(-236.016706, -49.359577) "></path>
                <path d="M237.508146,58.2832715 C237.508146,59.1097006 236.840446,59.7800032 236.017225,59.7800032 C235.192967,59.7800032 234.525266,59.1097006 234.525266,58.2832715 C234.525266,57.4568425 235.192967,56.7865399 236.017225,56.7865399 C236.840446,56.7865399 237.508146,57.4568425 237.508146,58.2832715" id="Fill-195" transform="translate(236.016706, 58.283272) rotate(90.000000) translate(-236.016706, -58.283272) "></path>
                <path d="M237.508146,58.2832715 C237.508146,59.1097006 236.840446,59.7800032 236.017225,59.7800032 C235.192967,59.7800032 234.525266,59.1097006 234.525266,58.2832715 C234.525266,57.4568425 235.192967,56.7865399 236.017225,56.7865399 C236.840446,56.7865399 237.508146,57.4568425 237.508146,58.2832715 L237.508146,58.2832715 Z" id="Stroke-197" stroke-opacity="0.85" stroke="#A3B1BF" stroke-width="0.81" transform="translate(236.016706, 58.283272) rotate(90.000000) translate(-236.016706, -58.283272) "></path>
                <path d="M237.508146,67.2069663 C237.508146,68.0333954 236.840446,68.703698 236.017225,68.703698 C235.192967,68.703698 234.525266,68.0333954 234.525266,67.2069663 C234.525266,66.3805373 235.192967,65.7102346 236.017225,65.7102346 C236.840446,65.7102346 237.508146,66.3805373 237.508146,67.2069663" id="Fill-199" transform="translate(236.016706, 67.206966) rotate(90.000000) translate(-236.016706, -67.206966) "></path>
                <path d="M237.508146,67.2069663 C237.508146,68.0333954 236.840446,68.703698 236.017225,68.703698 C235.192967,68.703698 234.525266,68.0333954 234.525266,67.2069663 C234.525266,66.3805373 235.192967,65.7102346 236.017225,65.7102346 C236.840446,65.7102346 237.508146,66.3805373 237.508146,67.2069663 L237.508146,67.2069663 Z" id="Stroke-201" stroke="#A3B1BF" stroke-width="0.81" transform="translate(236.016706, 67.206966) rotate(90.000000) translate(-236.016706, -67.206966) "></path>
                <path d="M223.760149,22.5884924 C223.760149,23.4149215 223.092448,24.0852241 222.269227,24.0852241 C221.44497,24.0852241 220.777269,23.4149215 220.777269,22.5884924 C220.777269,21.7620634 221.44497,21.0917607 222.269227,21.0917607 C223.092448,21.0917607 223.760149,21.7620634 223.760149,22.5884924" id="Fill-203" transform="translate(222.268709, 22.588492) rotate(90.000000) translate(-222.268709, -22.588492) "></path>
                <path d="M223.760149,22.5884924 C223.760149,23.4149215 223.092448,24.0852241 222.269227,24.0852241 C221.44497,24.0852241 220.777269,23.4149215 220.777269,22.5884924 C220.777269,21.7620634 221.44497,21.0917607 222.269227,21.0917607 C223.092448,21.0917607 223.760149,21.7620634 223.760149,22.5884924 L223.760149,22.5884924 Z" id="Stroke-205" stroke="#A3B1BF" stroke-width="0.81" transform="translate(222.268709, 22.588492) rotate(90.000000) translate(-222.268709, -22.588492) "></path>
                <path d="M223.760149,31.5121872 C223.760149,32.3386162 223.092448,33.0089189 222.269227,33.0089189 C221.44497,33.0089189 220.777269,32.3386162 220.777269,31.5121872 C220.777269,30.6857582 221.44497,30.0154555 222.269227,30.0154555 C223.092448,30.0154555 223.760149,30.6857582 223.760149,31.5121872" id="Fill-207" transform="translate(222.268709, 31.512187) rotate(90.000000) translate(-222.268709, -31.512187) "></path>
                <path d="M223.760149,31.5121872 C223.760149,32.3386162 223.092448,33.0089189 222.269227,33.0089189 C221.44497,33.0089189 220.777269,32.3386162 220.777269,31.5121872 C220.777269,30.6857582 221.44497,30.0154555 222.269227,30.0154555 C223.092448,30.0154555 223.760149,30.6857582 223.760149,31.5121872 L223.760149,31.5121872 Z" id="Stroke-209" stroke="#A3B1BF" stroke-width="0.81" transform="translate(222.268709, 31.512187) rotate(90.000000) translate(-222.268709, -31.512187) "></path>
                <path d="M223.760149,40.435882 C223.760149,41.262311 223.092448,41.9326137 222.269227,41.9326137 C221.44497,41.9326137 220.777269,41.262311 220.777269,40.435882 C220.777269,39.609453 221.44497,38.9391503 222.269227,38.9391503 C223.092448,38.9391503 223.760149,39.609453 223.760149,40.435882" id="Fill-211" transform="translate(222.268709, 40.435882) rotate(90.000000) translate(-222.268709, -40.435882) "></path>
                <path d="M223.760149,40.435882 C223.760149,41.262311 223.092448,41.9326137 222.269227,41.9326137 C221.44497,41.9326137 220.777269,41.262311 220.777269,40.435882 C220.777269,39.609453 221.44497,38.9391503 222.269227,38.9391503 C223.092448,38.9391503 223.760149,39.609453 223.760149,40.435882 L223.760149,40.435882 Z" id="Stroke-213" stroke="#A3B1BF" stroke-width="0.81" transform="translate(222.268709, 40.435882) rotate(90.000000) translate(-222.268709, -40.435882) "></path>
                <path d="M223.760149,49.3595768 C223.760149,50.1860058 223.092448,50.8563085 222.269227,50.8563085 C221.44497,50.8563085 220.777269,50.1860058 220.777269,49.3595768 C220.777269,48.5331477 221.44497,47.8628451 222.269227,47.8628451 C223.092448,47.8628451 223.760149,48.5331477 223.760149,49.3595768" id="Fill-215" transform="translate(222.268709, 49.359577) rotate(90.000000) translate(-222.268709, -49.359577) "></path>
                <path d="M223.760149,49.3595768 C223.760149,50.1860058 223.092448,50.8563085 222.269227,50.8563085 C221.44497,50.8563085 220.777269,50.1860058 220.777269,49.3595768 C220.777269,48.5331477 221.44497,47.8628451 222.269227,47.8628451 C223.092448,47.8628451 223.760149,48.5331477 223.760149,49.3595768 L223.760149,49.3595768 Z" id="Stroke-217" stroke="#A3B1BF" stroke-width="0.81" transform="translate(222.268709, 49.359577) rotate(90.000000) translate(-222.268709, -49.359577) "></path>
                <path d="M223.760149,58.2832715 C223.760149,59.1097006 223.092448,59.7800032 222.269227,59.7800032 C221.44497,59.7800032 220.777269,59.1097006 220.777269,58.2832715 C220.777269,57.4568425 221.44497,56.7865399 222.269227,56.7865399 C223.092448,56.7865399 223.760149,57.4568425 223.760149,58.2832715" id="Fill-219" transform="translate(222.268709, 58.283272) rotate(90.000000) translate(-222.268709, -58.283272) "></path>
                <path d="M223.760149,58.2832715 C223.760149,59.1097006 223.092448,59.7800032 222.269227,59.7800032 C221.44497,59.7800032 220.777269,59.1097006 220.777269,58.2832715 C220.777269,57.4568425 221.44497,56.7865399 222.269227,56.7865399 C223.092448,56.7865399 223.760149,57.4568425 223.760149,58.2832715 L223.760149,58.2832715 Z" id="Stroke-221" stroke="#A3B1BF" stroke-width="0.81" transform="translate(222.268709, 58.283272) rotate(90.000000) translate(-222.268709, -58.283272) "></path>
                <path d="M223.760149,67.2069663 C223.760149,68.0333954 223.092448,68.703698 222.269227,68.703698 C221.44497,68.703698 220.777269,68.0333954 220.777269,67.2069663 C220.777269,66.3805373 221.44497,65.7102346 222.269227,65.7102346 C223.092448,65.7102346 223.760149,66.3805373 223.760149,67.2069663" id="Fill-223" transform="translate(222.268709, 67.206966) rotate(90.000000) translate(-222.268709, -67.206966) "></path>
                <path d="M223.760149,67.2069663 C223.760149,68.0333954 223.092448,68.703698 222.269227,68.703698 C221.44497,68.703698 220.777269,68.0333954 220.777269,67.2069663 C220.777269,66.3805373 221.44497,65.7102346 222.269227,65.7102346 C223.092448,65.7102346 223.760149,66.3805373 223.760149,67.2069663 L223.760149,67.2069663 Z" id="Stroke-225" stroke="#A3B1BF" stroke-width="0.81" transform="translate(222.268709, 67.206966) rotate(90.000000) translate(-222.268709, -67.206966) "></path>
                <path d="M230.229795,26.6447173 C230.229795,27.4711464 229.562094,28.141449 228.738873,28.141449 C227.914615,28.141449 227.246915,27.4711464 227.246915,26.6447173 C227.246915,25.8182883 227.914615,25.1479856 228.738873,25.1479856 C229.562094,25.1479856 230.229795,25.8182883 230.229795,26.6447173" id="Fill-227" transform="translate(228.738355, 26.644717) rotate(90.000000) translate(-228.738355, -26.644717) "></path>
                <path d="M230.229795,26.6447173 C230.229795,27.4711464 229.562094,28.141449 228.738873,28.141449 C227.914615,28.141449 227.246915,27.4711464 227.246915,26.6447173 C227.246915,25.8182883 227.914615,25.1479856 228.738873,25.1479856 C229.562094,25.1479856 230.229795,25.8182883 230.229795,26.6447173 L230.229795,26.6447173 Z" id="Stroke-229" stroke="#A3B1BF" stroke-width="0.81" transform="translate(228.738355, 26.644717) rotate(90.000000) translate(-228.738355, -26.644717) "></path>
                <path d="M230.229795,35.5684121 C230.229795,36.3948411 229.562094,37.0651438 228.738873,37.0651438 C227.914615,37.0651438 227.246915,36.3948411 227.246915,35.5684121 C227.246915,34.7419831 227.914615,34.0716804 228.738873,34.0716804 C229.562094,34.0716804 230.229795,34.7419831 230.229795,35.5684121" id="Fill-231" transform="translate(228.738355, 35.568412) rotate(90.000000) translate(-228.738355, -35.568412) "></path>
                <path d="M230.229795,35.5684121 C230.229795,36.3948411 229.562094,37.0651438 228.738873,37.0651438 C227.914615,37.0651438 227.246915,36.3948411 227.246915,35.5684121 C227.246915,34.7419831 227.914615,34.0716804 228.738873,34.0716804 C229.562094,34.0716804 230.229795,34.7419831 230.229795,35.5684121 L230.229795,35.5684121 Z" id="Stroke-233" stroke="#A3B1BF" stroke-width="0.81" transform="translate(228.738355, 35.568412) rotate(90.000000) translate(-228.738355, -35.568412) "></path>
                <path d="M230.229795,44.4921069 C230.229795,45.3185359 229.562094,45.9888386 228.738873,45.9888386 C227.914615,45.9888386 227.246915,45.3185359 227.246915,44.4921069 C227.246915,43.6656779 227.914615,42.9953752 228.738873,42.9953752 C229.562094,42.9953752 230.229795,43.6656779 230.229795,44.4921069" id="Fill-235" transform="translate(228.738355, 44.492107) rotate(90.000000) translate(-228.738355, -44.492107) "></path>
                <path d="M230.229795,44.4921069 C230.229795,45.3185359 229.562094,45.9888386 228.738873,45.9888386 C227.914615,45.9888386 227.246915,45.3185359 227.246915,44.4921069 C227.246915,43.6656779 227.914615,42.9953752 228.738873,42.9953752 C229.562094,42.9953752 230.229795,43.6656779 230.229795,44.4921069 L230.229795,44.4921069 Z" id="Stroke-237" stroke="#A3B1BF" stroke-width="0.81" transform="translate(228.738355, 44.492107) rotate(90.000000) translate(-228.738355, -44.492107) "></path>
                <path d="M230.229795,53.4158017 C230.229795,54.2422307 229.562094,54.9125333 228.738873,54.9125333 C227.914615,54.9125333 227.246915,54.2422307 227.246915,53.4158017 C227.246915,52.5893726 227.914615,51.91907 228.738873,51.91907 C229.562094,51.91907 230.229795,52.5893726 230.229795,53.4158017" id="Fill-239" transform="translate(228.738355, 53.415802) rotate(90.000000) translate(-228.738355, -53.415802) "></path>
                <path d="M230.229795,53.4158017 C230.229795,54.2422307 229.562094,54.9125333 228.738873,54.9125333 C227.914615,54.9125333 227.246915,54.2422307 227.246915,53.4158017 C227.246915,52.5893726 227.914615,51.91907 228.738873,51.91907 C229.562094,51.91907 230.229795,52.5893726 230.229795,53.4158017 L230.229795,53.4158017 Z" id="Stroke-241" stroke="#A3B1BF" stroke-width="0.81" transform="translate(228.738355, 53.415802) rotate(90.000000) translate(-228.738355, -53.415802) "></path>
                <path d="M230.229795,62.3394964 C230.229795,63.1659255 229.562094,63.8362281 228.738873,63.8362281 C227.914615,63.8362281 227.246915,63.1659255 227.246915,62.3394964 C227.246915,61.5130674 227.914615,60.8427648 228.738873,60.8427648 C229.562094,60.8427648 230.229795,61.5130674 230.229795,62.3394964" id="Fill-243" transform="translate(228.738355, 62.339496) rotate(90.000000) translate(-228.738355, -62.339496) "></path>
                <path d="M230.229795,62.3394964 C230.229795,63.1659255 229.562094,63.8362281 228.738873,63.8362281 C227.914615,63.8362281 227.246915,63.1659255 227.246915,62.3394964 C227.246915,61.5130674 227.914615,60.8427648 228.738873,60.8427648 C229.562094,60.8427648 230.229795,61.5130674 230.229795,62.3394964 L230.229795,62.3394964 Z" id="Stroke-245" stroke="#A3B1BF" stroke-width="0.81" transform="translate(228.738355, 62.339496) rotate(90.000000) translate(-228.738355, -62.339496) "></path>
                <path d="M230.229795,71.2631912 C230.229795,72.0896203 229.562094,72.7599229 228.738873,72.7599229 C227.914615,72.7599229 227.246915,72.0896203 227.246915,71.2631912 C227.246915,70.4367622 227.914615,69.7664595 228.738873,69.7664595 C229.562094,69.7664595 230.229795,70.4367622 230.229795,71.2631912" id="Fill-247" transform="translate(228.738355, 71.263191) rotate(90.000000) translate(-228.738355, -71.263191) "></path>
                <path d="M230.229795,71.2631912 C230.229795,72.0896203 229.562094,72.7599229 228.738873,72.7599229 C227.914615,72.7599229 227.246915,72.0896203 227.246915,71.2631912 C227.246915,70.4367622 227.914615,69.7664595 228.738873,69.7664595 C229.562094,69.7664595 230.229795,70.4367622 230.229795,71.2631912 L230.229795,71.2631912 Z" id="Stroke-249" stroke="#A3B1BF" stroke-width="0.81" transform="translate(228.738355, 71.263191) rotate(90.000000) translate(-228.738355, -71.263191) "></path>
                <path d="M233.474533,131.704582 C233.474533,134.102684 231.537786,136.046978 229.148994,136.046978 C226.760202,136.046978 224.823455,134.102684 224.823455,131.704582 C224.823455,129.306481 226.760202,127.362187 229.148994,127.362187 C231.537786,127.362187 233.474533,129.306481 233.474533,131.704582 L226.809752,131.704582" id="Fill-251" fill="#A3B1BF" transform="translate(229.148994, 131.704582) rotate(90.000000) translate(-229.148994, -131.704582) "></path>
                <path d="M116.93208,108.951605 L112.95698,97.0641411 C111.505457,92.7217457 113.856924,87.977585 118.181426,86.5204054 C118.181426,86.5204054 144.947552,77.5008125 158.330615,72.991016 C182.074402,64.9898842 229.561977,48.9876206 229.561977,48.9876206 C233.887516,47.530441 238.61326,49.8900312 240.064784,54.2313857 L244.039883,66.1188493 C245.491406,70.4612446 243.140976,75.2054053 238.815437,76.662585 L127.434886,114.19537 C123.110384,115.652549 118.383603,113.292959 116.93208,108.951605 Z" id="Stroke-255" stroke="#A3B1BF" stroke-width="1.62" transform="translate(178.498482, 81.591495) rotate(90.000000) translate(-178.498482, -81.591495) "></path>
                <path d="M170.986678,36.9877796 C170.205966,37.2511128 169.360972,36.8295715 169.098661,36.0447762 C168.83635,35.2610217 169.257292,34.412735 170.038004,34.1494018 C170.818716,33.8860686 171.66371,34.3086507 171.926021,35.0924052 C172.188332,35.8761597 171.76739,36.7254872 170.986678,36.9877796 Z" id="Fill-257" transform="translate(170.512341, 35.568641) rotate(90.000000) translate(-170.512341, -35.568641) "></path>
                <path d="M170.986678,36.9877796 C170.205966,37.2511128 169.360972,36.8295715 169.098661,36.0447762 C168.83635,35.2610217 169.257292,34.412735 170.038004,34.1494018 C170.818716,33.8860686 171.66371,34.3086507 171.926021,35.0924052 C172.188332,35.8761597 171.76739,36.7254872 170.986678,36.9877796 Z" id="Stroke-259" stroke="#A3B1BF" stroke-width="0.81" transform="translate(170.512341, 35.568641) rotate(90.000000) translate(-170.512341, -35.568641) "></path>
                <path d="M174.352138,44.0161 C174.614449,44.7998545 174.193507,45.649182 173.412795,45.9114744 C172.632083,46.1748075 171.787089,45.7532663 171.524778,44.968471 C171.262467,44.1847165 171.683409,43.3364297 172.464121,43.0730966 C173.244833,42.8097634 174.089827,43.2323455 174.352138,44.0161" id="Fill-261" transform="translate(172.938458, 44.492336) rotate(90.000000) translate(-172.938458, -44.492336) "></path>
                <path d="M173.412795,45.9114744 C172.632083,46.1748075 171.787089,45.7532663 171.524778,44.968471 C171.262467,44.1847165 171.683409,43.3364297 172.464121,43.0730966 C173.244833,42.8097634 174.089827,43.2323455 174.352138,44.0161 C174.614449,44.7998545 174.193507,45.649182 173.412795,45.9114744 Z" id="Stroke-263" stroke="#A3B1BF" stroke-width="0.81" transform="translate(172.938458, 44.492336) rotate(90.000000) translate(-172.938458, -44.492336) "></path>
                <path d="M177.586961,52.1285498 C177.849272,52.9123043 177.42833,53.7616318 176.647618,54.0239242 C175.866906,54.2872573 175.021912,53.8657161 174.759601,53.0809208 C174.49729,52.2971663 174.918232,51.4488795 175.698944,51.1855464 C176.479656,50.9222132 177.32465,51.3447953 177.586961,52.1285498" id="Fill-265" transform="translate(176.173281, 52.604786) rotate(90.000000) translate(-176.173281, -52.604786) "></path>
                <path d="M176.647618,54.0239242 C175.866906,54.2872573 175.021912,53.8657161 174.759601,53.0809208 C174.49729,52.2971663 174.918232,51.4488795 175.698944,51.1855464 C176.479656,50.9222132 177.32465,51.3447953 177.586961,52.1285498 C177.849272,52.9123043 177.42833,53.7616318 176.647618,54.0239242 Z" id="Stroke-267" stroke="#A3B1BF" stroke-width="0.81" transform="translate(176.173281, 52.604786) rotate(90.000000) translate(-176.173281, -52.604786) "></path>
                <path d="M180.013078,61.0522445 C180.275389,61.835999 179.854447,62.6853266 179.073735,62.9476189 C178.293023,63.2109521 177.448029,62.7894109 177.185718,62.0046155 C176.923407,61.220861 177.344349,60.3725743 178.125061,60.1092411 C178.905773,59.845908 179.750767,60.2684901 180.013078,61.0522445" id="Fill-269" transform="translate(178.599398, 61.528481) rotate(90.000000) translate(-178.599398, -61.528481) "></path>
                <path d="M180.013078,61.0522445 C180.275389,61.835999 179.854447,62.6853266 179.073735,62.9476189 C178.293023,63.2109521 177.448029,62.7894109 177.185718,62.0046155 C176.923407,61.220861 177.344349,60.3725743 178.125061,60.1092411 C178.905773,59.845908 179.750767,60.2684901 180.013078,61.0522445 L180.013078,61.0522445 Z" id="Stroke-271" stroke="#A3B1BF" stroke-width="0.81" transform="translate(178.599398, 61.528481) rotate(90.000000) translate(-178.599398, -61.528481) "></path>
                <path d="M183.247901,69.1646943 C183.510212,69.9484488 183.08927,70.7977764 182.308558,71.0600687 C181.527846,71.3234019 180.682852,70.9018607 180.420541,70.1170653 C180.15823,69.3333108 180.579172,68.4850241 181.359884,68.2216909 C182.140596,67.9583578 182.98559,68.3809399 183.247901,69.1646943" id="Fill-273" transform="translate(181.834221, 69.640931) rotate(90.000000) translate(-181.834221, -69.640931) "></path>
                <path d="M183.247901,69.1646943 C183.510212,69.9484488 183.08927,70.7977764 182.308558,71.0600687 C181.527846,71.3234019 180.682852,70.9018607 180.420541,70.1170653 C180.15823,69.3333108 180.579172,68.4850241 181.359884,68.2216909 C182.140596,67.9583578 182.98559,68.3809399 183.247901,69.1646943 L183.247901,69.1646943 Z" id="Stroke-275" stroke="#A3B1BF" stroke-width="0.81" transform="translate(181.834221, 69.640931) rotate(90.000000) translate(-181.834221, -69.640931) "></path>
                <path d="M185.674018,78.0883891 C185.936329,78.8721436 185.515387,79.7214712 184.734675,79.9837635 C183.953963,80.2470967 183.108969,79.8255554 182.846658,79.0407601 C182.584347,78.2570056 183.005289,77.4087189 183.786001,77.1453857 C184.566713,76.8820525 185.411707,77.3046346 185.674018,78.0883891" id="Fill-277" transform="translate(184.260338, 78.564625) rotate(90.000000) translate(-184.260338, -78.564625) "></path>
                <path d="M185.674018,78.0883891 C185.936329,78.8721436 185.515387,79.7214712 184.734675,79.9837635 C183.953963,80.2470967 183.108969,79.8255554 182.846658,79.0407601 C182.584347,78.2570056 183.005289,77.4087189 183.786001,77.1453857 C184.566713,76.8820525 185.411707,77.3046346 185.674018,78.0883891 L185.674018,78.0883891 Z" id="Stroke-279" stroke="#A3B1BF" stroke-width="0.81" transform="translate(184.260338, 78.564625) rotate(90.000000) translate(-184.260338, -78.564625) "></path>
                <path d="M168.691198,39.9598751 C168.953509,40.7436296 168.532567,41.5929571 167.751855,41.8552495 C166.971143,42.1185826 166.126149,41.6970414 165.863838,40.9122461 C165.601527,40.1284916 166.022469,39.2802048 166.803181,39.0168717 C167.583893,38.7535385 168.428887,39.1761206 168.691198,39.9598751" id="Fill-281" transform="translate(167.277518, 40.436111) rotate(90.000000) translate(-167.277518, -40.436111) "></path>
                <path d="M156.962155,41.8552495 C156.181443,42.1185826 155.336449,41.6970414 155.074139,40.9122461 C154.811828,40.1284916 155.232769,39.2802048 156.013481,39.0168717 C156.794193,38.7535385 157.639187,39.1761206 157.901498,39.9598751 C158.163809,40.7436296 157.742867,41.5929571 156.962155,41.8552495 Z" id="Stroke-283" stroke="#A3B1BF" stroke-width="0.81" transform="translate(156.487818, 40.436111) rotate(90.000000) translate(-156.487818, -40.436111) "></path>
                <path d="M171.117315,48.0723249 C171.379626,48.8560794 170.958684,49.7054069 170.177972,49.9676993 C169.39726,50.2310324 168.552266,49.8094912 168.289955,49.0246959 C168.027644,48.2409414 168.448586,47.3926546 169.229298,47.1293215 C170.01001,46.8659883 170.855004,47.2885704 171.117315,48.0723249" id="Fill-285" transform="translate(169.703635, 48.548561) rotate(90.000000) translate(-169.703635, -48.548561) "></path>
                <path d="M160.327615,48.0723249 C160.589926,48.8560794 160.168985,49.7054069 159.388273,49.9676993 C158.60756,50.2310324 157.762567,49.8094912 157.500256,49.0246959 C157.237945,48.2409414 157.658886,47.3926546 158.439598,47.1293215 C159.220311,46.8659883 160.065304,47.2885704 160.327615,48.0723249 L160.327615,48.0723249 Z" id="Stroke-287" stroke="#A3B1BF" stroke-width="0.81" transform="translate(158.913936, 48.548561) rotate(90.000000) translate(-158.913936, -48.548561) "></path>
                <path d="M174.352138,56.9960196 C174.614449,57.7797741 174.193507,58.6291017 173.412795,58.891394 C172.632083,59.1547272 171.787089,58.733186 171.524778,57.9483906 C171.262467,57.1646361 171.683409,56.3163494 172.464121,56.0530162 C173.244833,55.7896831 174.089827,56.2122652 174.352138,56.9960196" id="Fill-289" transform="translate(172.938458, 57.472256) rotate(90.000000) translate(-172.938458, -57.472256) "></path>
                <path d="M163.562438,56.9960196 C163.824749,57.7797741 163.403807,58.6291017 162.623095,58.891394 C161.842383,59.1547272 160.99739,58.733186 160.735079,57.9483906 C160.472768,57.1646361 160.893709,56.3163494 161.674421,56.0530162 C162.455133,55.7896831 163.300127,56.2122652 163.562438,56.9960196 L163.562438,56.9960196 Z" id="Stroke-291" stroke="#A3B1BF" stroke-width="0.81" transform="translate(162.148758, 57.472256) rotate(90.000000) translate(-162.148758, -57.472256) "></path>
                <path d="M166.265081,65.1084694 C166.527392,65.8922239 166.10645,66.7415515 165.325738,67.0038438 C164.545026,67.267177 163.700032,66.8456358 163.437721,66.0608404 C163.17541,65.2770859 163.596352,64.4287992 164.377064,64.165466 C165.157776,63.9021329 166.00277,64.324715 166.265081,65.1084694" id="Fill-293" transform="translate(164.851401, 65.584706) rotate(90.000000) translate(-164.851401, -65.584706) "></path>
                <path d="M166.265081,65.1084694 C166.527392,65.8922239 166.10645,66.7415515 165.325738,67.0038438 C164.545026,67.267177 163.700032,66.8456358 163.437721,66.0608404 C163.17541,65.2770859 163.596352,64.4287992 164.377064,64.165466 C165.157776,63.9021329 166.00277,64.324715 166.265081,65.1084694 L166.265081,65.1084694 Z" id="Stroke-295" stroke="#A3B1BF" stroke-width="0.81" transform="translate(164.851401, 65.584706) rotate(90.000000) translate(-164.851401, -65.584706) "></path>
                <path d="M169.499903,74.0321642 C169.762214,74.8159187 169.341273,75.6652463 168.560561,75.9275386 C167.779849,76.1908718 166.934855,75.7693305 166.672544,74.9845352 C166.410233,74.2007807 166.831175,73.352494 167.611887,73.0891608 C168.392599,72.8258276 169.237592,73.2484097 169.499903,74.0321642" id="Fill-297" transform="translate(168.086224, 74.508400) rotate(90.000000) translate(-168.086224, -74.508400) "></path>
                <path d="M169.499903,74.0321642 C169.762214,74.8159187 169.341273,75.6652463 168.560561,75.9275386 C167.779849,76.1908718 166.934855,75.7693305 166.672544,74.9845352 C166.410233,74.2007807 166.831175,73.352494 167.611887,73.0891608 C168.392599,72.8258276 169.237592,73.2484097 169.499903,74.0321642 L169.499903,74.0321642 Z" id="Stroke-299" stroke="#A3B1BF" stroke-width="0.81" transform="translate(168.086224, 74.508400) rotate(90.000000) translate(-168.086224, -74.508400) "></path>
                <path d="M172.734726,82.144614 C172.997037,82.9283685 172.576096,83.7776961 171.795384,84.0399884 C171.014671,84.3033216 170.169678,83.8817803 169.907367,83.096985 C169.645056,82.3132305 170.065997,81.4649438 170.84671,81.2016106 C171.627422,80.9382774 172.472415,81.3608595 172.734726,82.144614" id="Fill-301" transform="translate(171.321047, 82.620850) rotate(90.000000) translate(-171.321047, -82.620850) "></path>
                <path d="M172.734726,82.144614 C172.997037,82.9283685 172.576096,83.7776961 171.795384,84.0399884 C171.014671,84.3033216 170.169678,83.8817803 169.907367,83.096985 C169.645056,82.3132305 170.065997,81.4649438 170.84671,81.2016106 C171.627422,80.9382774 172.472415,81.3608595 172.734726,82.144614 L172.734726,82.144614 Z" id="Stroke-303" stroke="#A3B1BF" stroke-width="0.81" transform="translate(171.321047, 82.620850) rotate(90.000000) translate(-171.321047, -82.620850) "></path>
                <path d="M166.265081,41.582365 C166.527392,42.3661195 166.10645,43.2154471 165.325738,43.4777394 C164.545026,43.7410726 163.700032,43.3195314 163.437721,42.534736 C163.17541,41.7509815 163.596352,40.9026948 164.377064,40.6393616 C165.157776,40.3760284 166.00277,40.7986105 166.265081,41.582365" id="Fill-305" transform="translate(164.851401, 42.058601) rotate(90.000000) translate(-164.851401, -42.058601) "></path>
                <path d="M166.265081,41.582365 C166.527392,42.3661195 166.10645,43.2154471 165.325738,43.4777394 C164.545026,43.7410726 163.700032,43.3195314 163.437721,42.534736 C163.17541,41.7509815 163.596352,40.9026948 164.377064,40.6393616 C165.157776,40.3760284 166.00277,40.7986105 166.265081,41.582365 L166.265081,41.582365 Z" id="Stroke-307" stroke="#A3B1BF" stroke-width="0.81" transform="translate(164.851401, 42.058601) rotate(90.000000) translate(-164.851401, -42.058601) "></path>
                <path d="M169.499903,50.5060598 C169.762214,51.2898143 169.341273,52.1391419 168.560561,52.4014342 C167.779849,52.6647674 166.934855,52.2432261 166.672544,51.4584308 C166.410233,50.6746763 166.831175,49.8263896 167.611887,49.5630564 C168.392599,49.2997232 169.237592,49.7223053 169.499903,50.5060598" id="Fill-309" transform="translate(168.086224, 50.982296) rotate(90.000000) translate(-168.086224, -50.982296) "></path>
                <path d="M169.499903,50.5060598 C169.762214,51.2898143 169.341273,52.1391419 168.560561,52.4014342 C167.779849,52.6647674 166.934855,52.2432261 166.672544,51.4584308 C166.410233,50.6746763 166.831175,49.8263896 167.611887,49.5630564 C168.392599,49.2997232 169.237592,49.7223053 169.499903,50.5060598 L169.499903,50.5060598 Z" id="Stroke-311" stroke-opacity="0.85" stroke="#A3B1BF" stroke-width="0.81" transform="translate(168.086224, 50.982296) rotate(90.000000) translate(-168.086224, -50.982296) "></path>
                <path d="M171.926021,58.6185096 C172.188332,59.4022641 171.76739,60.2515917 170.986678,60.513884 C170.205966,60.7772172 169.360972,60.3556759 169.098661,59.5708806 C168.83635,58.7871261 169.257292,57.9388394 170.038004,57.6755062 C170.818716,57.412173 171.66371,57.8347551 171.926021,58.6185096" id="Fill-313" transform="translate(170.512341, 59.094746) rotate(90.000000) translate(-170.512341, -59.094746) "></path>
                <path d="M171.926021,58.6185096 C172.188332,59.4022641 171.76739,60.2515917 170.986678,60.513884 C170.205966,60.7772172 169.360972,60.3556759 169.098661,59.5708806 C168.83635,58.7871261 169.257292,57.9388394 170.038004,57.6755062 C170.818716,57.412173 171.66371,57.8347551 171.926021,58.6185096 L171.926021,58.6185096 Z" id="Stroke-315" stroke="#A3B1BF" stroke-width="0.81" transform="translate(170.512341, 59.094746) rotate(90.000000) translate(-170.512341, -59.094746) "></path>
                <path d="M175.160844,67.5422044 C175.423154,68.3259589 175.002213,69.1752864 174.221501,69.4375788 C173.440789,69.700912 172.595795,69.2793707 172.333484,68.4945754 C172.071173,67.7108209 172.492115,66.8625342 173.272827,66.599201 C174.053539,66.3358678 174.898533,66.7584499 175.160844,67.5422044" id="Fill-317" transform="translate(173.747164, 68.018441) rotate(90.000000) translate(-173.747164, -68.018441) "></path>
                <path d="M175.160844,67.5422044 C175.423154,68.3259589 175.002213,69.1752864 174.221501,69.4375788 C173.440789,69.700912 172.595795,69.2793707 172.333484,68.4945754 C172.071173,67.7108209 172.492115,66.8625342 173.272827,66.599201 C174.053539,66.3358678 174.898533,66.7584499 175.160844,67.5422044 L175.160844,67.5422044 Z" id="Stroke-319" stroke="#A3B1BF" stroke-width="0.81" transform="translate(173.747164, 68.018441) rotate(90.000000) translate(-173.747164, -68.018441) "></path>
                <path d="M177.586961,75.6546542 C177.849272,76.4384087 177.42833,77.2877362 176.647618,77.5500286 C175.866906,77.8133618 175.021912,77.3918205 174.759601,76.6070252 C174.49729,75.8232707 174.918232,74.974984 175.698944,74.7116508 C176.479656,74.4483176 177.32465,74.8708997 177.586961,75.6546542" id="Fill-321" transform="translate(176.173281, 76.130890) rotate(90.000000) translate(-176.173281, -76.130890) "></path>
                <path d="M177.586961,75.6546542 C177.849272,76.4384087 177.42833,77.2877362 176.647618,77.5500286 C175.866906,77.8133618 175.021912,77.3918205 174.759601,76.6070252 C174.49729,75.8232707 174.918232,74.974984 175.698944,74.7116508 C176.479656,74.4483176 177.32465,74.8708997 177.586961,75.6546542 L177.586961,75.6546542 Z" id="Stroke-323" stroke="#A3B1BF" stroke-width="0.81" transform="translate(176.173281, 76.130890) rotate(90.000000) translate(-176.173281, -76.130890) "></path>
                <path d="M180.821784,84.578349 C181.084095,85.3621035 180.663153,86.211431 179.882441,86.4737234 C179.101729,86.7370565 178.256735,86.3155153 177.994424,85.53072 C177.732113,84.7469655 178.153055,83.8986787 178.933767,83.6353456 C179.714479,83.3720124 180.559473,83.7945945 180.821784,84.578349" id="Fill-325" transform="translate(179.408104, 85.054585) rotate(90.000000) translate(-179.408104, -85.054585) "></path>
                <path d="M180.821784,84.578349 C181.084095,85.3621035 180.663153,86.211431 179.882441,86.4737234 C179.101729,86.7370565 178.256735,86.3155153 177.994424,85.53072 C177.732113,84.7469655 178.153055,83.8986787 178.933767,83.6353456 C179.714479,83.3720124 180.559473,83.7945945 180.821784,84.578349 L180.821784,84.578349 Z" id="Stroke-327" stroke="#A3B1BF" stroke-width="0.81" transform="translate(179.408104, 85.054585) rotate(90.000000) translate(-179.408104, -85.054585) "></path>
                <path d="M199.285547,130.323988 C200.045523,132.597188 198.826243,135.059822 196.56083,135.82276 C194.296454,136.585697 191.844417,135.361666 191.084441,133.087425 C190.323428,130.814225 191.543745,128.352632 193.808121,127.588654 C196.073533,126.825716 198.525571,128.050788 199.285547,130.323988" id="Fill-329" fill="#A3B1BF" transform="translate(195.184790, 131.705757) rotate(90.000000) translate(-195.184790, -131.705757) "></path>
                <polygon id="Stroke-333" stroke="#A3B1BF" stroke-width="0.81" transform="translate(194.281082, 12.765148) rotate(90.000000) translate(-194.281082, -12.765148) " points="192.77098 15.3911937 191.260359 12.7651478 192.77098 10.1391019 195.791185 10.1391019 197.301806 12.7651478 195.791185 15.3911937"></polygon>
                <polygon id="Fill-335" transform="translate(263.829774, 193.672778) rotate(90.000000) translate(-263.829774, -193.672778) " points="262.319672 196.298824 260.809051 193.672778 262.319672 191.046732 265.339877 191.046732 266.850498 193.672778 265.339877 196.298824"></polygon>
                <polygon id="Stroke-337" stroke="#A3B1BF" stroke-width="0.81" transform="translate(263.829774, 193.672778) rotate(90.000000) translate(-263.829774, -193.672778) " points="262.319672 196.298824 260.809051 193.672778 262.319672 191.046732 265.339877 191.046732 266.850498 193.672778 265.339877 196.298824"></polygon>
                <polygon id="Stroke-341" stroke="#A3B1BF" stroke-width="0.81" transform="translate(199.942022, 45.214947) rotate(90.000000) translate(-199.942022, -45.214947) " points="196.921299 45.214947 198.43192 42.588901 201.452125 42.588901 202.962746 45.214947 201.452125 47.8409929 198.43192 47.8409929"></polygon>
                <polygon id="Stroke-345" stroke="#A3B1BF" stroke-width="0.81" transform="translate(203.176845, 35.480007) rotate(90.000000) translate(-203.176845, -35.480007) " points="200.156122 35.4800072 201.666743 32.8539613 204.686948 32.8539613 206.197569 35.4800072 204.686948 38.1060531 201.666743 38.1060531"></polygon>
                <path d="M28.7090531,149.674699 L408.800743,149.674699" id="Path-13-Copy" stroke="#A3B1BF" stroke-width="2.43"></path>
                <path d="M126.73696,157.381526 C130.786107,157.381526 138.956903,157.381526 138.956903,157.381526 C138.956903,157.381526 146.694174,157.381526 150.585513,157.381526 C275.808174,157.381526 408.39639,157.381526 408.39639,157.381526 C408.39639,157.381526 348.147813,204.433735 274.15124,201.594378 C200.154666,198.75502 175.893495,186.586345 157.293263,179.67788 C138.693031,172.769415 101.923452,169.955823 76.4120034,175.634538 C50.9005548,181.313253 28.3047003,157.381526 28.3047003,157.381526 C28.3047003,157.381526 34.3629836,157.381526 126.73696,157.381526 Z" id="Path-22-Copy" fill-opacity="0.25" fill="#A3B1BF"></path>
                <g id="Group-2" transform="translate(0.000000, 75.851406)">
                    <ellipse id="Oval-40-Copy-2" stroke="#A3B1BF" stroke-width="2.43" fill-opacity="0.25" fill="#A3B1BF" cx="35.5830518" cy="35.6947791" rx="35.5830518" ry="35.6947791"></ellipse>
                    <ellipse id="Oval-40-Copy-3" fill="#F0F2F5" cx="35.8526204" cy="35.9651941" rx="30.4612489" ry="30.5568942"></ellipse>
                </g>
                <path d="M39.6265804,107.895582 L78.4444551,119.253012" id="Path-736" stroke="#A3B1BF" stroke-width="0.81"></path>
                <path d="M32.7525817,115.60241 L65.9095164,140.751004" id="Path-736-Copy" stroke="#A3B1BF" stroke-width="0.81" transform="translate(49.331049, 128.176707) scale(-1, -1) translate(-49.331049, -128.176707) "></path>
                <g id="Group" transform="translate(95.154052, 106.919777) rotate(19.000000) translate(-95.154052, -106.919777) translate(34.154052, 63.919777)" fill="#A3B1BF">
                    <path d="M42.7522815,72.4570067 C42.7522815,75.8233475 45.3271005,78.562549 48.4926445,78.562549 C51.6578573,78.562549 54.2333386,75.8233475 54.2333386,72.4570067 C54.2333386,69.091018 51.6578573,66.3525208 48.4926445,66.3525208 C45.3271005,66.3525208 42.7522815,69.091018 42.7522815,72.4570067 M40.1907075,72.4570067 C40.1907075,67.5898976 43.9148573,63.6284609 48.4926445,63.6284609 C53.0707627,63.6284609 56.7949126,67.5898976 56.7949126,72.4570067 C56.7949126,77.3251722 53.0707627,81.2859046 48.4926445,81.2859046 C43.9148573,81.2859046 40.1907075,77.3251722 40.1907075,72.4570067 L54.193687,73.4098081" id="Fill-13" fill-opacity="0.4"></path>
                    <path d="M37.9000472,72.2309321 C37.9000472,78.1565371 42.4331326,82.9775175 48.0049535,82.9775175 C53.5774367,82.9775175 58.110191,78.1565371 58.110191,72.2309321 C58.110191,66.3056792 53.5774367,61.485051 48.0049535,61.485051 C42.4331326,61.485051 37.9000472,66.3056792 37.9000472,72.2309321 M35.3384731,72.2309321 C35.3384731,64.8035024 41.0205583,58.760991 48.0049535,58.760991 C54.9893488,58.760991 60.6724273,64.8035024 60.6724273,72.2309321 C60.6724273,79.6587139 54.9893488,85.7019295 48.0049535,85.7019295 C41.0205583,85.7019295 35.3384731,79.6587139 35.3384731,72.2309321" id="Fill-15"></path>
                    <path d="M1.80809546,66.1576486 C1.80809546,68.834124 3.79009311,71.0116629 6.22625634,71.0116629 C8.66270911,71.0116629 10.644562,68.834124 10.644562,66.1576486 C10.644562,63.4813322 8.66270911,61.3039523 6.22625634,61.3039523 C3.79009311,61.3039523 1.80809546,63.4813322 1.80809546,66.1576486 M0.688100292,66.1576486 C0.688100292,62.8028295 3.17247427,60.0735498 6.22625634,60.0735498 C9.2800384,60.0735498 11.7648467,62.8028295 11.7648467,66.1576486 C11.7648467,69.5126267 9.2800384,72.2422245 6.22625634,72.2422245 C3.17247427,72.2422245 0.688100292,69.5126267 0.688100292,66.1576486" id="Fill-15-Copy"></path>
                    <path d="M8.98009502,66.0939913 L39.179583,29.1533303 L87.9014765,24.076001 L44.6752454,68.7902332 L45.5153066,69.7089343 L8.98009502,66.0939913 Z M5.34865982,69.3835683 L46.1480843,73.419304 C47.0103308,73.4270508 47.6235721,72.9654113 47.8811865,72.2953123 L49.8354794,74.4316711 L93.1120414,29.6649719 L108.025528,67.5588426 C108.413605,68.5455044 109.312607,69.1391917 110.258627,69.1391917 C110.569884,69.1391917 110.886107,69.0747523 111.192066,68.9391832 C112.424508,68.3905682 113.0053,66.8827574 112.490071,65.5728423 L88.7958421,5.36886461 L92.7040968,5.36886461 L92.7040968,12.726573 C92.7040968,13.562172 93.3408479,14.2400178 94.1272671,14.2400178 L108.786782,14.2400178 C109.171548,14.2400178 109.540751,14.0741657 109.809292,13.7794348 L117.408916,5.43506461 C117.934078,5.90550723 118.567187,6.70025945 118.772153,7.90031067 C119.120826,9.94441199 118.336394,13.6565422 112.619209,19.7367313 C112.062921,20.3272495 112.062921,21.2857411 112.619209,21.8769635 C112.896691,22.1727507 113.26159,22.3206444 113.625495,22.3206444 C113.989731,22.3206444 114.354298,22.1727507 114.63178,21.8769635 C119.954265,16.2168628 122.285045,11.3085547 121.560215,7.28796059 C120.892339,3.580408 117.884078,2.16415038 117.756265,2.10569718 C117.213553,1.85709502 116.581768,1.9916078 116.170513,2.44303552 L108.184137,11.2131281 L95.5507685,11.2131281 L95.5507685,5.36886461 L97.3534067,5.36886461 C98.6894914,5.36886461 99.7725975,4.21670276 99.7725975,2.7962196 C99.7725975,1.37538432 98.6894914,0.223222475 97.3534067,0.223222475 L85.1604334,0.223222475 C84.3508356,0.223222475 83.5948798,0.653874656 83.1465381,1.37045453 C82.6972031,2.08738654 82.6157466,2.99517176 82.9286587,3.78957186 L89.4140503,20.2684441 L40.3087153,25.3855639 L38.2463901,12.9619427 C37.9924181,11.9967607 37.0503708,11.4323 36.1411047,11.7044947 C35.232832,11.9752809 34.703365,12.9777884 34.9583303,13.9436747 L36.9981391,26.2845459 L4.21787189,66.3834403 C3.79767573,66.8968425 3.68310688,67.6183522 3.92184717,68.2504214 C4.1595941,68.883547 4.71058417,69.3198332 5.34865982,69.3835683 Z" id="Fill-17"></path>
                </g>
                <path d="M120.0928,133.044177 C120.0928,133.044177 117.26233,133.044177 117.26233,134.261044 C117.26233,135.477912 128.179857,144.401606 128.179857,144.401606 L120.0928,133.044177 Z" id="Path-731" fill="#A3B1BF"></path>
                <path d="M146.375736,133.044177 C146.375736,133.044177 149.206206,133.044177 149.206206,134.261044 C149.206206,135.477912 138.288678,144.401606 138.288678,144.401606 L146.375736,133.044177 Z" id="Path-731-Copy-2" fill="#A3B1BF"></path>
                <path d="M114.922075,137.687235 C114.922075,137.687235 112.297709,138.747548 112.753556,139.875807 C113.209402,141.004067 126.674832,145.188195 126.674832,145.188195 L114.922075,137.687235 Z" id="Path-731-Copy" fill="#A3B1BF"></path>
                <path d="M150.02854,138.516693 C150.02854,138.516693 152.652906,139.580123 152.198396,140.708383 C151.743886,141.836643 138.288257,146.008745 138.288257,146.008745 L150.02854,138.516693 Z" id="Path-731-Copy-3" fill="#A3B1BF"></path>
                <path d="M74.4009265,59.626506 C72.9743667,59.2687463 68.3698232,57.9570172 67.9312807,60.437751 C67.5752067,62.4519795 70.5119271,68.4526327 73.5922208,69.3614461 C80.4662194,71.3895585 88.1489236,68.5502009 95.0229222,70.5783133 C101.896921,72.6064258 101.500006,68.9632854 100.279509,67.7389559 C97.8533925,65.3052209 77.6357492,60.437751 74.4009265,59.626506 Z" id="Path-735" stroke="#A3B1BF" stroke-width="2.43"></path>
                <g id="Group-2-Copy" transform="translate(346.684026, 76.257028)">
                    <ellipse id="Oval-40-Copy-2" stroke="#A3B1BF" stroke-width="2.43" fill="#DCE1E7" cx="35.5830518" cy="35.6947791" rx="35.5830518" ry="35.6947791"></ellipse>
                    <ellipse id="Oval-40-Copy-3" fill="#F0F2F5" cx="35.8526204" cy="35.9651941" rx="30.4612489" ry="30.5568942"></ellipse>
                </g>
                <path d="M364.90109,93.2931727 C363.56683,94.0412049 361.930683,95.8872138 360.413184,99.4391645 C355.560949,110.796594 356.774008,120.937157 356.774008,120.937157 C356.774008,120.937157 358.391419,101.467276 364.861065,97.8166743" id="Path-738" fill="#A3B1BF"></path>
                <path d="M408.39639,103.839357 C407.06213,104.58739 405.425983,106.433399 403.908483,109.985349 C399.056249,121.342779 400.269308,131.483341 400.269308,131.483341 C400.269308,131.483341 401.886718,112.013461 408.356365,108.362859" id="Path-738-Copy" fill="#A3B1BF" transform="translate(404.265457, 117.661349) scale(-1, -1) translate(-404.265457, -117.661349) "></path>
            </g>
        </g>
    </g>
</svg>