<svg height="341" viewBox="0 0 423 341" width="423" xmlns="http://www.w3.org/2000/svg"><g fill="none" fill-rule="evenodd" transform="translate(-20 1)"><g opacity=".6" stroke="#a3b1bf" stroke-dasharray="12.15" stroke-linejoin="round" stroke-width="1.62" transform="translate(75.417348 .163879)"><path d="m169.575185 288.890375c-65.928119 0-119.3741646-53.434569-119.3741646-119.34995 0-65.91538 53.4460456-119.3499488 119.3741646-119.3499488 65.928755 0 119.374165 53.4345688 119.374165 119.3499488 0 65.915381-53.44541 119.34995-119.374165 119.34995z"/><path d="m169.405699 338.555288c-93.3782626 0-169.07628712-75.682669-169.07628712-169.041989 0-93.3593204 75.69802452-169.04198939 169.07628712-169.04198939 93.378262 0 169.076286 75.68266899 169.076286 169.04198939 0 93.35932-75.698024 169.041989-169.076286 169.041989z"/></g><path d="m97.7112298 198.803016 18.4070402-8.571864-8.573603 18.403306z" fill="#f5f5f5" transform="matrix(.92718385 .37460659 -.37460659 .92718385 82.493964 -25.529042)"/><path d="m97.7112298 198.803016 18.4070402-8.571864-8.573603 18.403306z" stroke="#a3b1bf" stroke-linejoin="round" stroke-width="1.62" transform="matrix(.92718385 .37460659 -.37460659 .92718385 82.493964 -25.529042)"/><path d="m38.8543444 215.183828 15.5576435-15.554487 24.7259036 24.720887-15.5576435 15.554488z" transform="matrix(.92718385 .37460659 -.37460659 .92718385 86.622048 -6.097747)"/><path d="m38.8543444 215.183828 15.5576435-15.554487 24.7259036 24.720887-15.5576435 15.554488z" stroke="#a3b1bf" stroke-linejoin="round" stroke-width="1.62" transform="matrix(.92718385 .37460659 -.37460659 .92718385 86.622048 -6.097747)"/><path d="m51.4642422 198.657893 3.8385856-3.837807 35.6851224 35.677249-3.8392208 3.837806z" fill="#f5f5f5" transform="matrix(.92718385 .37460659 -.37460659 .92718385 85.568599 -11.05705)"/><path d="m51.4642422 198.657893 3.8385856-3.837807 35.6851224 35.677249-3.8392208 3.837806z" fill="#f0f2f5" stroke="#a3b1bf" stroke-linejoin="round" stroke-width="1.62" transform="matrix(.92718385 .37460659 -.37460659 .92718385 85.568599 -11.05705)"/><path d="m56.0769883 259.690379 14.4051784-14.402257 42.8375213 42.828197-14.4051781 14.402256z" transform="matrix(.92718385 .37460659 -.37460659 .92718385 108.773407 -11.78397)"/><path d="m56.0769883 259.690379 14.4051784-14.402257 42.8375213 42.828197-14.4051781 14.402256z" stroke="#a3b1bf" stroke-linejoin="round" stroke-width="1.62" transform="matrix(.92718385 .37460659 -.37460659 .92718385 108.773407 -11.78397)"/><path d="m63.8911557 203.879723 2.6600724-2.659533 20.4699148 20.465128-2.6607077 2.659532z" transform="matrix(.92718385 .37460659 -.37460659 .92718385 85.204161 -12.772368)"/><path d="m63.8911557 203.879723 2.6600724-2.659533 20.4699148 20.465128-2.6607077 2.659532z" stroke="#a3b1bf" stroke-linejoin="round" stroke-width="1.62" transform="matrix(.92718385 .37460659 -.37460659 .92718385 85.204161 -12.772368)"/><path d="m74.4026766 205.006817 6.1625752-6.161325 1.3843558 1.384075-6.1625752 6.161325z" fill="#f5f5f5" transform="matrix(.92718385 .37460659 -.37460659 .92718385 81.594596 -14.531423)"/><path d="m74.4026766 205.006817 6.1625752-6.161325 1.3843558 1.384075-6.1625752 6.161325z" stroke="#a3b1bf" stroke-linejoin="round" stroke-width="1.62" transform="matrix(.92718385 .37460659 -.37460659 .92718385 81.594596 -14.531423)"/><path d="m80.9035138 220.317511 6.1625752-6.161325 1.3843558 1.384075-6.1625752 6.161325z" fill="#f5f5f5" transform="matrix(.92718385 .37460659 -.37460659 .92718385 87.803449 -15.851813)"/><path d="m80.9035138 220.317511 6.1625752-6.161325 1.3843558 1.384075-6.1625752 6.161325z" stroke="#a3b1bf" stroke-linejoin="round" stroke-width="1.62" transform="matrix(.92718385 .37460659 -.37460659 .92718385 87.803449 -15.851813)"/><path d="m67.8493111 238.631881 6.1625752 6.161325-1.3843558 1.384075-6.1625752-6.161325z" transform="matrix(.92718385 .37460659 -.37460659 .92718385 95.920845 -8.660808)"/><path d="m67.8493111 238.631881 6.1625752 6.161325-1.3843558 1.384075-6.1625752-6.161325z" stroke="#a3b1bf" stroke-linejoin="round" stroke-width="1.62" transform="matrix(.92718385 .37460659 -.37460659 .92718385 95.920845 -8.660808)"/><path d="m35.1127107 220.725179 1.2115495-9.292803 24.726539 24.721523-9.2946882 1.211304z" transform="matrix(.92718385 .37460659 -.37460659 .92718385 87.562394 -1.671888)"/><path d="m35.1127107 220.725179 1.2115495-9.292803 24.726539 24.721523-9.2946882 1.211304z" stroke="#a3b1bf" stroke-linejoin="round" stroke-width="1.62" transform="matrix(.92718385 .37460659 -.37460659 .92718385 87.562394 -1.671888)"/><path d="m32.9179858 217.470622-6.6682876-1.414564 24.7265389 24.721523-1.414851-6.666934z" transform="matrix(.92718385 .37460659 -.37460659 .92718385 88.378094 2.16776)"/><path d="m32.9179858 217.470622-6.6682876-1.414564 24.7265389 24.721523-1.414851-6.666934z" stroke="#a3b1bf" stroke-linejoin="round" stroke-width="1.62" transform="matrix(.92718385 .37460659 -.37460659 .92718385 88.378094 2.16776)"/><path d="m32.6469986 217.297684-5.7877382 1.081726 7.3722189 7.370723 1.0819449-5.786564z" transform="matrix(.92718385 .37460659 -.37460659 .92718385 85.247905 4.485368)"/><path d="m32.6469986 217.297684-5.7877382 1.081726 7.3722189 7.370723 1.0819449-5.786564z" stroke="#a3b1bf" stroke-linejoin="round" stroke-width="1.62" transform="matrix(.92718385 .37460659 -.37460659 .92718385 85.247905 4.485368)"/><path d="m39.9050284 234.391595-5.7877382 1.081725 7.3722189 7.370724 1.0819449-5.786564z" transform="matrix(.92718385 .37460659 -.37460659 .92718385 92.179898 3.011175)"/><path d="m39.9050284 234.391595-5.7877382 1.081725 7.3722189 7.370724 1.0819449-5.786564z" stroke="#a3b1bf" stroke-linejoin="round" stroke-width="1.62" transform="matrix(.92718385 .37460659 -.37460659 .92718385 92.179898 3.011175)"/><path d="m71.4417859 201.708217 1.8519492-1.851573 5.9700741 5.968227-1.8519491 1.852209z" fill="#f0f2f5" transform="matrix(.92718385 .37460659 -.37460659 .92718385 81.81931 -13.390138)"/><path d="m71.4417859 201.708217 1.8519492-1.851573 5.9700741 5.968227-1.8519491 1.852209z" stroke="#a3b1bf" stroke-linejoin="round" stroke-width="1.62" transform="matrix(.92718385 .37460659 -.37460659 .92718385 81.81931 -13.390138)"/><path d="m77.9605297 217.061085 1.8519492-1.851573 5.9700742 5.968227-1.8519492 1.852209z" fill="#f0f2f5" transform="matrix(.92718385 .37460659 -.37460659 .92718385 88.045266 -14.714165)"/><path d="m77.9605297 217.061085 1.8519492-1.851573 5.9700742 5.968227-1.8519492 1.852209z" stroke="#a3b1bf" stroke-linejoin="round" stroke-width="1.62" transform="matrix(.92718385 .37460659 -.37460659 .92718385 88.045266 -14.714165)"/><path d="m65.1594898 237.106164 2.7661703-2.765609 2.9847195 2.984114-2.7661704 2.765609z" transform="matrix(.92718385 .37460659 -.37460659 .92718385 93.816501 -8.213223)"/><path d="m65.1594898 237.106164 2.7661703-2.765609 2.9847195 2.984114-2.7661704 2.765609z" fill="#f5f5f5" stroke="#a3b1bf" stroke-linejoin="round" stroke-width="1.62" transform="matrix(.92718385 .37460659 -.37460659 .92718385 93.816501 -8.213223)"/><path d="m90.2556147 213.065319c-11.0284684-11.026231-15.6122808-24.911444-11.7667068-33.552544.6359523-1.428538 2.3430492-4.082989 6.0450416-.381748 3.701357 3.701241 36.0262875 36.01898 39.3979155 39.389923 3.371627 3.370944 1.3132 5.671595-.114357 6.306783-8.642853 3.847335-22.53279-.735547-33.5618933-11.762414z" fill="#f5f5f5" transform="matrix(.92718385 .37460659 -.37460659 .92718385 82.948974 -23.317643)"/><path d="m90.2556147 213.065319c-11.0284684-11.026231-15.6122808-24.911444-11.7667068-33.552544.6359523-1.428538 2.3430492-4.082989 6.0450416-.381748 3.701357 3.701241 36.0262875 36.01898 39.3979155 39.389923 3.371627 3.370944 1.3132 5.671595-.114357 6.306783-8.642853 3.847335-22.53279-.735547-33.5618933-11.762414z" fill="#f0f2f5" stroke="#a3b1bf" stroke-linejoin="round" stroke-width="1.62" transform="matrix(.92718385 .37460659 -.37460659 .92718385 82.948974 -23.317643)"/><path d="m77.9716233 201.230061 1.8519491-1.851573 15.4725111 15.469372-1.8519492 1.851573z" fill="#f0f2f5" transform="matrix(.92718385 .37460659 -.37460659 .92718385 84.24111 -17.305017)"/><path d="m77.9716233 201.230061 1.8519491-1.851573 15.4725111 15.469372-1.8519492 1.851573z" stroke="#a3b1bf" stroke-linejoin="round" stroke-width="1.62" transform="matrix(.92718385 .37460659 -.37460659 .92718385 84.24111 -17.305017)"/><path d="m121.635514 196.068815c-1.118158 1.117931-2.930717 1.117931-4.048875 0-1.117523-1.117931-1.117523-2.930123 0-4.048054 1.118158-1.117296 2.930717-1.117296 4.048875 0 1.118158 1.117931 1.118158 2.930123 0 4.048054" fill="#a3b1bf" transform="matrix(.92718385 .37460659 -.37460659 .92718385 81.400181 -30.677576)"/><path d="m81.2505672 249.672341-1.6162466-1.615919 1.6162466-1.615919 1.6162465 1.615919z" fill="#a3b1bf" fill-opacity=".6" transform="matrix(.92718385 .37460659 -.37460659 .92718385 98.839924 -12.374486)"/><path d="m81.2505672 249.672341-1.6162466-1.615919 1.6162466-1.615919 1.6162465 1.615919z" transform="matrix(.92718385 .37460659 -.37460659 .92718385 98.839924 -12.374486)"/><path d="m82.7021965 253.091201-1.6162466-1.615919 1.6162466-1.615919 1.6162465 1.615919z" fill="#a3b1bf" fill-opacity=".6" transform="matrix(.92718385 .37460659 -.37460659 .92718385 100.226354 -12.669327)"/><path d="m82.7021965 253.091201-1.6162466-1.615919 1.6162466-1.615919 1.6162465 1.615919z" transform="matrix(.92718385 .37460659 -.37460659 .92718385 100.226354 -12.669327)"/><path d="m84.1537906 256.509978-1.6162465-1.615919 1.6162465-1.615918 1.6162466 1.615918z" fill="#a3b1bf" fill-opacity=".6" transform="matrix(.92718385 .37460659 -.37460659 .92718385 101.61275 -12.964162)"/><path d="m84.1537906 256.509978-1.6162465-1.615919 1.6162465-1.615918 1.6162466 1.615918z" transform="matrix(.92718385 .37460659 -.37460659 .92718385 101.61275 -12.964162)"/><path d="m85.6053848 259.928756-1.6162465-1.615919 1.6162465-1.615919 1.6162465 1.615919z" fill="#a3b1bf" fill-opacity=".6" transform="matrix(.92718385 .37460659 -.37460659 .92718385 102.999146 -13.258997)"/><path d="m85.6053848 259.928756-1.6162465-1.615919 1.6162465-1.615919 1.6162465 1.615919z" transform="matrix(.92718385 .37460659 -.37460659 .92718385 102.999146 -13.258997)"/><path d="m78.0944819 251.011642-1.6162466-1.615919 1.6162466-1.615919 1.6162465 1.615919z" fill="#a3b1bf" fill-opacity=".6" transform="matrix(.92718385 .37460659 -.37460659 .92718385 99.111821 -11.094673)"/><path d="m78.0944819 251.011642-1.6162466-1.615919 1.6162466-1.615919 1.6162465 1.615919z" transform="matrix(.92718385 .37460659 -.37460659 .92718385 99.111821 -11.094673)"/><path d="m79.5460522 254.430478-1.6162465-1.615919 1.6162465-1.615918 1.6162466 1.615918z" fill="#a3b1bf" fill-opacity=".6" transform="matrix(.92718385 .37460659 -.37460659 .92718385 100.498238 -11.389494)"/><path d="m79.5460522 254.430478-1.6162465-1.615919 1.6162465-1.615918 1.6162466 1.615918z" transform="matrix(.92718385 .37460659 -.37460659 .92718385 100.498238 -11.389494)"/><path d="m80.9977053 257.849279-1.6162465-1.615919 1.6162465-1.615918 1.6162465 1.615918z" fill="#a3b1bf" fill-opacity=".6" transform="matrix(.92718385 .37460659 -.37460659 .92718385 101.884647 -11.684349)"/><path d="m79.3814588 256.23336 1.6162465-1.615918 1.6162465 1.615918-1.6162465 1.615919z" transform="matrix(.92718385 .37460659 -.37460659 .92718385 101.884647 -11.684349)"/><path d="m82.4492757 261.268115-1.6162465-1.615918 1.6162465-1.615919 1.6162465 1.615919z" fill="#a3b1bf" fill-opacity=".6" transform="matrix(.92718385 .37460659 -.37460659 .92718385 103.271063 -11.97917)"/><path d="m82.4492757 261.268115-1.6162465-1.615918 1.6162465-1.615919 1.6162465 1.615919z" transform="matrix(.92718385 .37460659 -.37460659 .92718385 103.271063 -11.97917)"/><path d="m74.9383727 252.351002-1.6162465-1.615919 1.6162465-1.615919 1.6162466 1.615919z" fill="#a3b1bf" fill-opacity=".6" transform="matrix(.92718385 .37460659 -.37460659 .92718385 99.383739 -9.814846)"/><path d="m74.9383727 252.351002-1.6162465-1.615919 1.6162465-1.615919 1.6162466 1.615919z" transform="matrix(.92718385 .37460659 -.37460659 .92718385 99.383739 -9.814846)"/><path d="m76.3899669 255.769779-1.6162465-1.615919 1.6162465-1.615918 1.6162465 1.615918z" fill="#a3b1bf" fill-opacity=".6" transform="matrix(.92718385 .37460659 -.37460659 .92718385 100.770135 -10.109681)"/><path d="m76.3899669 255.769779-1.6162465-1.615919 1.6162465-1.615918 1.6162465 1.615918z" transform="matrix(.92718385 .37460659 -.37460659 .92718385 100.770135 -10.109681)"/><path d="m77.84162 259.18858-1.6162465-1.615919 1.6162465-1.615918 1.6162465 1.615918z" fill="#a3b1bf" fill-opacity=".6" transform="matrix(.92718385 .37460659 -.37460659 .92718385 102.156544 -10.404536)"/><path d="m77.84162 259.18858-1.6162465-1.615919 1.6162465-1.615918 1.6162465 1.615918z" transform="matrix(.92718385 .37460659 -.37460659 .92718385 102.156544 -10.404536)"/><path d="m79.2931904 262.607416-1.6162466-1.615918 1.6162466-1.615919 1.6162465 1.615919z" fill="#a3b1bf" fill-opacity=".6" transform="matrix(.92718385 .37460659 -.37460659 .92718385 103.54296 -10.699357)"/><path d="m79.2931904 262.607416-1.6162466-1.615918 1.6162466-1.615919 1.6162465 1.615919z" transform="matrix(.92718385 .37460659 -.37460659 .92718385 103.54296 -10.699357)"/><path d="m71.7822874 253.690302-1.6162465-1.615918 1.6162465-1.615919 1.6162465 1.615919z" fill="#a3b1bf" fill-opacity=".6" transform="matrix(.92718385 .37460659 -.37460659 .92718385 99.655636 -8.535033)"/><path d="m71.7822874 253.690302-1.6162465-1.615918 1.6162465-1.615919 1.6162465 1.615919z" transform="matrix(.92718385 .37460659 -.37460659 .92718385 99.655636 -8.535033)"/><path d="m73.2338816 257.10908-1.6162465-1.615919 1.6162465-1.615919 1.6162465 1.615919z" fill="#a3b1bf" fill-opacity=".6" transform="matrix(.92718385 .37460659 -.37460659 .92718385 101.042032 -8.829868)"/><path d="m73.2338816 257.10908-1.6162465-1.615919 1.6162465-1.615919 1.6162465 1.615919z" transform="matrix(.92718385 .37460659 -.37460659 .92718385 101.042032 -8.829868)"/><path d="m74.6855347 260.527881-1.6162466-1.615919 1.6162466-1.615918 1.6162465 1.615918z" fill="#a3b1bf" fill-opacity=".6" transform="matrix(.92718385 .37460659 -.37460659 .92718385 102.428441 -9.124723)"/><path d="m74.6855347 260.527881-1.6162466-1.615919 1.6162466-1.615918 1.6162465 1.615918z" transform="matrix(.92718385 .37460659 -.37460659 .92718385 102.428441 -9.124723)"/><path d="m76.137105 263.946717-1.6162465-1.615918 1.6162465-1.615919 1.6162466 1.615919z" fill="#a3b1bf" fill-opacity=".6" transform="matrix(.92718385 .37460659 -.37460659 .92718385 103.814857 -9.419544)"/><path d="m76.137105 263.946717-1.6162465-1.615918 1.6162465-1.615919 1.6162466 1.615919z" transform="matrix(.92718385 .37460659 -.37460659 .92718385 103.814857 -9.419544)"/><path d="m68.6262021 255.029603-1.6162465-1.615918 1.6162465-1.615919 1.6162465 1.615919z" fill="#a3b1bf" fill-opacity=".6" transform="matrix(.92718385 .37460659 -.37460659 .92718385 99.927533 -7.25522)"/><path d="m68.6262021 255.029603-1.6162465-1.615918 1.6162465-1.615919 1.6162465 1.615919z" transform="matrix(.92718385 .37460659 -.37460659 .92718385 99.927533 -7.25522)"/><path d="m70.0777963 258.448381-1.6162466-1.615919 1.6162466-1.615919 1.6162465 1.615919z" fill="#a3b1bf" fill-opacity=".6" transform="matrix(.92718385 .37460659 -.37460659 .92718385 101.313929 -7.550055)"/><path d="m70.0777963 258.448381-1.6162466-1.615919 1.6162466-1.615919 1.6162465 1.615919z" transform="matrix(.92718385 .37460659 -.37460659 .92718385 101.313929 -7.550055)"/><path d="m71.5294256 261.867241-1.6162466-1.615919 1.6162466-1.615919 1.6162465 1.615919z" fill="#a3b1bf" fill-opacity=".6" transform="matrix(.92718385 .37460659 -.37460659 .92718385 102.700358 -7.844896)"/><path d="m71.5294256 261.867241-1.6162466-1.615919 1.6162466-1.615919 1.6162465 1.615919z" transform="matrix(.92718385 .37460659 -.37460659 .92718385 102.700358 -7.844896)"/><path d="m72.9810197 265.286018-1.6162465-1.615919 1.6162465-1.615918 1.6162466 1.615918z" fill="#a3b1bf" fill-opacity=".6" transform="matrix(.92718385 .37460659 -.37460659 .92718385 104.086754 -8.139731)"/><path d="m72.9810197 265.286018-1.6162465-1.615919 1.6162465-1.615918 1.6162466 1.615918z" transform="matrix(.92718385 .37460659 -.37460659 .92718385 104.086754 -8.139731)"/><path d="m88.8529067 267.577281-1.6162465-1.615919 1.6162465-1.615919 1.6162466 1.615919z" fill="#a3b1bf" fill-opacity=".6" transform="matrix(.92718385 .37460659 -.37460659 .92718385 106.100806 -13.918604)"/><path d="m88.8529067 267.577281-1.6162465-1.615919 1.6162465-1.615919 1.6162466 1.615919z" transform="matrix(.92718385 .37460659 -.37460659 .92718385 106.100806 -13.918604)"/><path d="m90.3045009 270.996058-1.6162465-1.615919 1.6162465-1.615918 1.6162465 1.615918z" fill="#a3b1bf" fill-opacity=".6" transform="matrix(.92718385 .37460659 -.37460659 .92718385 107.487202 -14.213438)"/><path d="m90.3045009 270.996058-1.6162465-1.615919 1.6162465-1.615918 1.6162465 1.615918z" transform="matrix(.92718385 .37460659 -.37460659 .92718385 107.487202 -14.213438)"/><path d="m91.7561302 274.414918-1.6162465-1.615919 1.6162465-1.615918 1.6162465 1.615918z" fill="#a3b1bf" fill-opacity=".6" transform="matrix(.92718385 .37460659 -.37460659 .92718385 108.873631 -14.50828)"/><path d="m91.7561302 274.414918-1.6162465-1.615919 1.6162465-1.615918 1.6162465 1.615918z" transform="matrix(.92718385 .37460659 -.37460659 .92718385 108.873631 -14.50828)"/><path d="m93.2077244 277.833695-1.6162466-1.615918 1.6162466-1.615919 1.6162465 1.615919z" fill="#a3b1bf" fill-opacity=".6" transform="matrix(.92718385 .37460659 -.37460659 .92718385 110.260028 -14.803114)"/><path d="m93.2077244 277.833695-1.6162466-1.615918 1.6162466-1.615919 1.6162465 1.615919z" transform="matrix(.92718385 .37460659 -.37460659 .92718385 110.260028 -14.803114)"/><path d="m85.6968214 268.916582-1.6162465-1.615919 1.6162465-1.615919 1.6162466 1.615919z" fill="#a3b1bf" fill-opacity=".6" transform="matrix(.92718385 .37460659 -.37460659 .92718385 106.372703 -12.63879)"/><path d="m85.6968214 268.916582-1.6162465-1.615919 1.6162465-1.615919 1.6162466 1.615919z" transform="matrix(.92718385 .37460659 -.37460659 .92718385 106.372703 -12.63879)"/><path d="m87.1484156 272.335359-1.6162465-1.615919 1.6162465-1.615919 1.6162465 1.615919z" fill="#a3b1bf" fill-opacity=".6" transform="matrix(.92718385 .37460659 -.37460659 .92718385 107.759099 -12.933625)"/><path d="m87.1484156 272.335359-1.6162465-1.615919 1.6162465-1.615919 1.6162465 1.615919z" transform="matrix(.92718385 .37460659 -.37460659 .92718385 107.759099 -12.933625)"/><path d="m88.599986 275.754195-1.6162466-1.615919 1.6162466-1.615918 1.6162465 1.615918z" fill="#a3b1bf" fill-opacity=".6" transform="matrix(.92718385 .37460659 -.37460659 .92718385 109.145515 -13.228446)"/><path d="m88.599986 275.754195-1.6162466-1.615919 1.6162466-1.615918 1.6162465 1.615918z" transform="matrix(.92718385 .37460659 -.37460659 .92718385 109.145515 -13.228446)"/><path d="m90.0516391 279.172996-1.6162466-1.615918 1.6162466-1.615919 1.6162465 1.615919z" fill="#a3b1bf" fill-opacity=".6" transform="matrix(.92718385 .37460659 -.37460659 .92718385 110.531925 -13.523301)"/><path d="m90.0516391 279.172996-1.6162466-1.615918 1.6162466-1.615919 1.6162465 1.615919z" transform="matrix(.92718385 .37460659 -.37460659 .92718385 110.531925 -13.523301)"/><path d="m82.5407361 270.255882-1.6162465-1.615918 1.6162465-1.615919 1.6162465 1.615919z" fill="#a3b1bf" fill-opacity=".6" transform="matrix(.92718385 .37460659 -.37460659 .92718385 106.6446 -11.358977)"/><path d="m82.5407361 270.255882-1.6162465-1.615918 1.6162465-1.615919 1.6162465 1.615919z" transform="matrix(.92718385 .37460659 -.37460659 .92718385 106.6446 -11.358977)"/><path d="m83.9923065 273.674719-1.6162466-1.615919 1.6162466-1.615919 1.6162465 1.615919z" fill="#a3b1bf" fill-opacity=".6" transform="matrix(.92718385 .37460659 -.37460659 .92718385 108.031016 -11.653798)"/><path d="m83.9923065 273.674719-1.6162466-1.615919 1.6162466-1.615919 1.6162465 1.615919z" transform="matrix(.92718385 .37460659 -.37460659 .92718385 108.031016 -11.653798)"/><path d="m85.4439007 277.093496-1.6162466-1.615919 1.6162466-1.615918 1.6162465 1.615918z" fill="#a3b1bf" fill-opacity=".6" transform="matrix(.92718385 .37460659 -.37460659 .92718385 109.417412 -11.948633)"/><path d="m85.4439007 277.093496-1.6162466-1.615919 1.6162466-1.615918 1.6162465 1.615918z" transform="matrix(.92718385 .37460659 -.37460659 .92718385 109.417412 -11.948633)"/><path d="m86.8955537 280.512297-1.6162465-1.615919 1.6162465-1.615918 1.6162466 1.615918z" fill="#a3b1bf" fill-opacity=".6" transform="matrix(.92718385 .37460659 -.37460659 .92718385 110.803821 -12.243488)"/><path d="m86.8955537 280.512297-1.6162465-1.615919 1.6162465-1.615918 1.6162466 1.615918z" transform="matrix(.92718385 .37460659 -.37460659 .92718385 110.803821 -12.243488)"/><path d="m79.3846508 271.595183-1.6162465-1.615918 1.6162465-1.615919 1.6162465 1.615919z" fill="#a3b1bf" fill-opacity=".6" transform="matrix(.92718385 .37460659 -.37460659 .92718385 106.916497 -10.079164)"/><path d="m79.3846508 271.595183-1.6162465-1.615918 1.6162465-1.615919 1.6162465 1.615919z" transform="matrix(.92718385 .37460659 -.37460659 .92718385 106.916497 -10.079164)"/><path d="m80.8362212 275.01402-1.6162466-1.615919 1.6162466-1.615919 1.6162465 1.615919z" fill="#a3b1bf" fill-opacity=".6" transform="matrix(.92718385 .37460659 -.37460659 .92718385 108.302913 -10.373985)"/><path d="m80.8362212 275.01402-1.6162466-1.615919 1.6162466-1.615919 1.6162465 1.615919z" transform="matrix(.92718385 .37460659 -.37460659 .92718385 108.302913 -10.373985)"/><path d="m82.2878153 278.432797-1.6162465-1.615919 1.6162465-1.615918 1.6162466 1.615918z" fill="#a3b1bf" fill-opacity=".6" transform="matrix(.92718385 .37460659 -.37460659 .92718385 109.689309 -10.66882)"/><path d="m82.2878153 278.432797-1.6162465-1.615919 1.6162465-1.615918 1.6162466 1.615918z" transform="matrix(.92718385 .37460659 -.37460659 .92718385 109.689309 -10.66882)"/><path d="m83.7394446 281.851657-1.6162465-1.615919 1.6162465-1.615918 1.6162466 1.615918z" fill="#a3b1bf" fill-opacity=".6" transform="matrix(.92718385 .37460659 -.37460659 .92718385 111.075739 -10.963662)"/><path d="m83.7394446 281.851657-1.6162465-1.615919 1.6162465-1.615918 1.6162466 1.615918z" transform="matrix(.92718385 .37460659 -.37460659 .92718385 111.075739 -10.963662)"/><path d="m76.2284828 272.934519-1.6162466-1.615918 1.6162466-1.615919 1.6162465 1.615919z" fill="#a3b1bf" fill-opacity=".6" transform="matrix(.92718385 .37460659 -.37460659 .92718385 107.188401 -8.799318)"/><path d="m76.2284828 272.934519-1.6162466-1.615918 1.6162466-1.615919 1.6162465 1.615919z" transform="matrix(.92718385 .37460659 -.37460659 .92718385 107.188401 -8.799318)"/><path d="m77.6801358 276.353321-1.6162465-1.615919 1.6162465-1.615919 1.6162466 1.615919z" fill="#a3b1bf" fill-opacity=".6" transform="matrix(.92718385 .37460659 -.37460659 .92718385 108.57481 -9.094173)"/><path d="m77.6801358 276.353321-1.6162465-1.615919 1.6162465-1.615919 1.6162466 1.615919z" transform="matrix(.92718385 .37460659 -.37460659 .92718385 108.57481 -9.094173)"/><path d="m79.13173 279.772098-1.6162465-1.615919 1.6162465-1.615918 1.6162465 1.615918z" fill="#a3b1bf" fill-opacity=".6" transform="matrix(.92718385 .37460659 -.37460659 .92718385 109.961206 -9.389007)"/><path d="m79.13173 279.772098-1.6162465-1.615919 1.6162465-1.615918 1.6162465 1.615918z" transform="matrix(.92718385 .37460659 -.37460659 .92718385 109.961206 -9.389007)"/><path d="m80.5833593 283.190958-1.6162465-1.615919 1.6162465-1.615918 1.6162465 1.615918z" fill="#a3b1bf" fill-opacity=".6" transform="matrix(.92718385 .37460659 -.37460659 .92718385 111.347636 -9.683849)"/><path d="m80.5833593 283.190958-1.6162465-1.615919 1.6162465-1.615918 1.6162465 1.615918z" transform="matrix(.92718385 .37460659 -.37460659 .92718385 111.347636 -9.683849)"/><path d="m96.4552463 285.48222-1.6162465-1.615918 1.6162465-1.615919 1.6162466 1.615919z" fill="#a3b1bf" fill-opacity=".6" transform="matrix(.92718385 .37460659 -.37460659 .92718385 113.361688 -15.462721)"/><path d="m96.4552463 285.48222-1.6162465-1.615918 1.6162465-1.615919 1.6162466 1.615919z" transform="matrix(.92718385 .37460659 -.37460659 .92718385 113.361688 -15.462721)"/><path d="m97.9068405 288.900998-1.6162465-1.615919 1.6162465-1.615919 1.6162465 1.615919z" fill="#a3b1bf" fill-opacity=".6" transform="matrix(.92718385 .37460659 -.37460659 .92718385 114.748083 -15.757556)"/><path d="m97.9068405 288.900998-1.6162465-1.615919 1.6162465-1.615919 1.6162465 1.615919z" transform="matrix(.92718385 .37460659 -.37460659 .92718385 114.748083 -15.757556)"/><path d="m99.3584347 292.319775-1.6162466-1.615919 1.6162466-1.615918 1.6162463 1.615918z" fill="#a3b1bf" fill-opacity=".6" transform="matrix(.92718385 .37460659 -.37460659 .92718385 116.134479 -16.052391)"/><path d="m99.3584347 292.319775-1.6162466-1.615919 1.6162466-1.615918 1.6162463 1.615918z" transform="matrix(.92718385 .37460659 -.37460659 .92718385 116.134479 -16.052391)"/><path d="m100.810064 295.738635-1.6162466-1.615919 1.6162466-1.615918 1.616246 1.615918z" fill="#a3b1bf" fill-opacity=".6" transform="matrix(.92718385 .37460659 -.37460659 .92718385 117.520909 -16.347232)"/><path d="m100.810064 295.738635-1.6162466-1.615919 1.6162466-1.615918 1.616246 1.615918z" transform="matrix(.92718385 .37460659 -.37460659 .92718385 117.520909 -16.347232)"/><path d="m93.2991021 286.821497-1.6162465-1.615918 1.6162465-1.615919 1.6162465 1.615919z" fill="#a3b1bf" fill-opacity=".6" transform="matrix(.92718385 .37460659 -.37460659 .92718385 113.633571 -14.182888)"/><path d="m93.2991021 286.821497-1.6162465-1.615918 1.6162465-1.615919 1.6162465 1.615919z" transform="matrix(.92718385 .37460659 -.37460659 .92718385 113.633571 -14.182888)"/><path d="m94.7507552 290.240299-1.6162466-1.615919 1.6162466-1.615919 1.6162465 1.615919z" fill="#a3b1bf" fill-opacity=".6" transform="matrix(.92718385 .37460659 -.37460659 .92718385 115.019981 -14.477743)"/><path d="m94.7507552 290.240299-1.6162466-1.615919 1.6162466-1.615919 1.6162465 1.615919z" transform="matrix(.92718385 .37460659 -.37460659 .92718385 115.019981 -14.477743)"/><path d="m96.2023255 293.659135-1.6162465-1.615919 1.6162465-1.615919 1.6162466 1.615919z" fill="#a3b1bf" fill-opacity=".6" transform="matrix(.92718385 .37460659 -.37460659 .92718385 116.406397 -14.772564)"/><path d="m96.2023255 293.659135-1.6162465-1.615919 1.6162465-1.615919 1.6162466 1.615919z" transform="matrix(.92718385 .37460659 -.37460659 .92718385 116.406397 -14.772564)"/><path d="m97.6539786 297.077936-1.6162465-1.615919 1.6162465-1.615918 1.6162466 1.615918z" fill="#a3b1bf" fill-opacity=".6" transform="matrix(.92718385 .37460659 -.37460659 .92718385 117.792806 -15.067419)"/><path d="m97.6539786 297.077936-1.6162465-1.615919 1.6162465-1.615918 1.6162466 1.615918z" transform="matrix(.92718385 .37460659 -.37460659 .92718385 117.792806 -15.067419)"/><path d="m90.1430168 288.160798-1.6162466-1.615918 1.6162466-1.615919 1.6162465 1.615919z" fill="#a3b1bf" fill-opacity=".6" transform="matrix(.92718385 .37460659 -.37460659 .92718385 113.905468 -12.903075)"/><path d="m90.1430168 288.160798-1.6162466-1.615918 1.6162466-1.615919 1.6162465 1.615919z" transform="matrix(.92718385 .37460659 -.37460659 .92718385 113.905468 -12.903075)"/><path d="m91.5946698 291.5796-1.6162465-1.615919 1.6162465-1.615919 1.6162466 1.615919z" fill="#a3b1bf" fill-opacity=".6" transform="matrix(.92718385 .37460659 -.37460659 .92718385 115.291878 -13.19793)"/><path d="m91.5946698 291.5796-1.6162465-1.615919 1.6162465-1.615919 1.6162466 1.615919z" transform="matrix(.92718385 .37460659 -.37460659 .92718385 115.291878 -13.19793)"/><path d="m93.0462402 294.998436-1.6162465-1.615919 1.6162465-1.615919 1.6162466 1.615919z" fill="#a3b1bf" fill-opacity=".6" transform="matrix(.92718385 .37460659 -.37460659 .92718385 116.678294 -13.492751)"/><path d="m93.0462402 294.998436-1.6162465-1.615919 1.6162465-1.615919 1.6162466 1.615919z" transform="matrix(.92718385 .37460659 -.37460659 .92718385 116.678294 -13.492751)"/><path d="m94.4978933 298.417237-1.6162465-1.615919 1.6162465-1.615918 1.6162465 1.615918z" fill="#a3b1bf" fill-opacity=".6" transform="matrix(.92718385 .37460659 -.37460659 .92718385 118.064703 -13.787606)"/><path d="m94.4978933 298.417237-1.6162465-1.615919 1.6162465-1.615918 1.6162465 1.615918z" transform="matrix(.92718385 .37460659 -.37460659 .92718385 118.064703 -13.787606)"/><path d="m86.9869315 289.500099-1.6162466-1.615918 1.6162466-1.615919 1.6162465 1.615919z" fill="#a3b1bf" fill-opacity=".6" transform="matrix(.92718385 .37460659 -.37460659 .92718385 114.177365 -11.623262)"/><path d="m86.9869315 289.500099-1.6162466-1.615918 1.6162466-1.615919 1.6162465 1.615919z" transform="matrix(.92718385 .37460659 -.37460659 .92718385 114.177365 -11.623262)"/><path d="m88.4385845 292.9189-1.6162465-1.615918 1.6162465-1.615919 1.6162466 1.615919z" fill="#a3b1bf" fill-opacity=".6" transform="matrix(.92718385 .37460659 -.37460659 .92718385 115.563775 -11.918117)"/><path d="m88.4385845 292.9189-1.6162465-1.615918 1.6162465-1.615919 1.6162466 1.615919z" transform="matrix(.92718385 .37460659 -.37460659 .92718385 115.563775 -11.918117)"/><path d="m89.8901549 296.337737-1.6162465-1.615919 1.6162465-1.615919 1.6162465 1.615919z" fill="#a3b1bf" fill-opacity=".6" transform="matrix(.92718385 .37460659 -.37460659 .92718385 116.950191 -12.212938)"/><path d="m89.8901549 296.337737-1.6162465-1.615919 1.6162465-1.615919 1.6162465 1.615919z" transform="matrix(.92718385 .37460659 -.37460659 .92718385 116.950191 -12.212938)"/><path d="m91.3417491 299.756514-1.6162466-1.615919 1.6162466-1.615918 1.6162465 1.615918z" fill="#a3b1bf" fill-opacity=".6" transform="matrix(.92718385 .37460659 -.37460659 .92718385 118.336587 -12.507773)"/><path d="m91.3417491 299.756514-1.6162466-1.615919 1.6162466-1.615918 1.6162465 1.615918z" transform="matrix(.92718385 .37460659 -.37460659 .92718385 118.336587 -12.507773)"/><path d="m83.8308461 290.8394-1.6162465-1.615918 1.6162465-1.615919 1.6162466 1.615919z" fill="#a3b1bf" fill-opacity=".6" transform="matrix(.92718385 .37460659 -.37460659 .92718385 114.449262 -10.343449)"/><path d="m82.2145996 289.223482 1.6162465-1.615919 1.6162466 1.615919-1.6162466 1.615918z" transform="matrix(.92718385 .37460659 -.37460659 .92718385 114.449262 -10.343449)"/><path d="m85.2824165 294.258236-1.6162465-1.615918 1.6162465-1.615919 1.6162465 1.615919z" fill="#a3b1bf" fill-opacity=".6" transform="matrix(.92718385 .37460659 -.37460659 .92718385 115.835679 -10.63827)"/><path d="m85.2824165 294.258236-1.6162465-1.615918 1.6162465-1.615919 1.6162465 1.615919z" transform="matrix(.92718385 .37460659 -.37460659 .92718385 115.835679 -10.63827)"/><path d="m86.7340696 297.677038-1.6162465-1.615919 1.6162465-1.615919 1.6162465 1.615919z" fill="#a3b1bf" fill-opacity=".6" transform="matrix(.92718385 .37460659 -.37460659 .92718385 117.222088 -10.933125)"/><path d="m86.7340696 297.677038-1.6162465-1.615919 1.6162465-1.615919 1.6162465 1.615919z" transform="matrix(.92718385 .37460659 -.37460659 .92718385 117.222088 -10.933125)"/><path d="m88.1856638 301.095815-1.6162466-1.615919 1.6162466-1.615918 1.6162465 1.615918z" fill="#a3b1bf" fill-opacity=".6" transform="matrix(.92718385 .37460659 -.37460659 .92718385 118.608484 -11.22796)"/><path d="m88.1856638 301.095815-1.6162466-1.615919 1.6162466-1.615918 1.6162465 1.615918z" transform="matrix(.92718385 .37460659 -.37460659 .92718385 118.608484 -11.22796)"/><path d="m51.9961666 192.018058 14.4051784-14.402256-42.8368863-42.828832-14.40581369 14.402892z" transform="matrix(.92718385 .37460659 -.37460659 .92718385 63.962653 -2.254294)"/><path d="m54.1737837 198.070743-6.1625752-6.161325-1.3843558 1.384075 6.1625752 6.161325z" transform="matrix(.92718385 .37460659 -.37460659 .92718385 76.973769 -4.631474)"/><path d="m54.1737837 198.070743-6.1625752-6.161325-1.3843558 1.384075 6.1625752 6.161325z" stroke="#a3b1bf" stroke-linejoin="round" stroke-width="1.62" transform="matrix(.92718385 .37460659 -.37460659 .92718385 76.973769 -4.631474)"/><path d="m52.712807 203.746308 2.7661703-2.765609-2.9847194-2.984114-2.7661703 2.76561z" fill="#a3b1bf" fill-opacity=".8" transform="matrix(.92718385 .37460659 -.37460659 .92718385 79.078155 -5.078945)"/><path d="m52.712807 203.746308 2.7661703-2.765609-2.9847194-2.984114-2.7661703 2.76561z" fill="#fff" stroke="#a3b1bf" stroke-linejoin="round" stroke-width="1.62" transform="matrix(.92718385 .37460659 -.37460659 .92718385 79.078155 -5.078945)"/><path d="m52.3670108 183.836778 1.6162466 1.615919 1.6162465-1.615919-1.6162465-1.615918z" fill="#a3b1bf" fill-opacity=".8" transform="matrix(.92718385 .37460659 -.37460659 .92718385 72.797322 -6.836198)"/><path d="m52.3670108 183.836778 1.6162466 1.615919 1.6162465-1.615919-1.6162465-1.615918z" transform="matrix(.92718385 .37460659 -.37460659 .92718385 72.797322 -6.836198)"/><path d="m50.9154167 180.418001 1.6162465 1.615919 1.6162465-1.615919-1.6162465-1.615919z" fill="#a3b1bf" fill-opacity=".8" transform="matrix(.92718385 .37460659 -.37460659 .92718385 71.410926 -6.541364)"/><path d="m50.9154167 180.418001 1.6162465 1.615919 1.6162465-1.615919-1.6162465-1.615919z" transform="matrix(.92718385 .37460659 -.37460659 .92718385 71.410926 -6.541364)"/><path d="m49.4637874 176.999141 1.6162465 1.615919 1.6162466-1.615919-1.6162466-1.615919z" fill="#a3b1bf" fill-opacity=".8" transform="matrix(.92718385 .37460659 -.37460659 .92718385 70.024496 -6.246522)"/><path d="m49.4637874 176.999141 1.6162465 1.615919 1.6162466-1.615919-1.6162466-1.615919z" transform="matrix(.92718385 .37460659 -.37460659 .92718385 70.024496 -6.246522)"/><path d="m48.0121932 173.580364 1.6162465 1.615918 1.6162466-1.615918-1.6162466-1.615919z" fill="#a3b1bf" fill-opacity=".8" transform="matrix(.92718385 .37460659 -.37460659 .92718385 68.638101 -5.951688)"/><path d="m48.0121932 173.580364 1.6162465 1.615918 1.6162466-1.615918-1.6162466-1.615919z" transform="matrix(.92718385 .37460659 -.37460659 .92718385 68.638101 -5.951688)"/><path d="m49.2109255 185.176079 1.6162466 1.615919 1.6162465-1.615919-1.6162465-1.615918z" fill="#a3b1bf" fill-opacity=".8" transform="matrix(.92718385 .37460659 -.37460659 .92718385 73.069219 -5.556385)"/><path d="m49.2109255 185.176079 1.6162466 1.615919 1.6162465-1.615919-1.6162465-1.615918z" transform="matrix(.92718385 .37460659 -.37460659 .92718385 73.069219 -5.556385)"/><path d="m47.7593313 181.757302 1.6162466 1.615919 1.6162465-1.615919-1.6162465-1.615919z" fill="#a3b1bf" fill-opacity=".8" transform="matrix(.92718385 .37460659 -.37460659 .92718385 71.682823 -5.261551)"/><path d="m47.7593313 181.757302 1.6162466 1.615919 1.6162465-1.615919-1.6162465-1.615919z" transform="matrix(.92718385 .37460659 -.37460659 .92718385 71.682823 -5.261551)"/><path d="m46.3077021 178.338442 1.6162465 1.615919 1.6162465-1.615919-1.6162465-1.615919z" fill="#a3b1bf" fill-opacity=".8" transform="matrix(.92718385 .37460659 -.37460659 .92718385 70.296393 -4.966709)"/><path d="m46.3077021 178.338442 1.6162465 1.615919 1.6162465-1.615919-1.6162465-1.615919z" transform="matrix(.92718385 .37460659 -.37460659 .92718385 70.296393 -4.966709)"/><path d="m44.8561079 174.919665 1.6162465 1.615918 1.6162466-1.615918-1.6162466-1.615919z" fill="#a3b1bf" fill-opacity=".8" transform="matrix(.92718385 .37460659 -.37460659 .92718385 68.909998 -4.671874)"/><path d="m44.8561079 174.919665 1.6162465 1.615918 1.6162466-1.615918-1.6162466-1.615919z" transform="matrix(.92718385 .37460659 -.37460659 .92718385 68.909998 -4.671874)"/><path d="m46.0548402 186.51538 1.6162465 1.615919 1.6162466-1.615919-1.6162466-1.615919z" fill="#a3b1bf" fill-opacity=".8" transform="matrix(.92718385 .37460659 -.37460659 .92718385 73.341116 -4.276572)"/><path d="m46.0548402 186.51538 1.6162465 1.615919 1.6162466-1.615919-1.6162466-1.615919z" transform="matrix(.92718385 .37460659 -.37460659 .92718385 73.341116 -4.276572)"/><path d="m44.603246 183.096603 1.6162466 1.615918 1.6162465-1.615918-1.6162465-1.615919z" fill="#a3b1bf" fill-opacity=".8" transform="matrix(.92718385 .37460659 -.37460659 .92718385 71.95472 -3.981738)"/><path d="m44.603246 183.096603 1.6162466 1.615918 1.6162465-1.615918-1.6162465-1.615919z" transform="matrix(.92718385 .37460659 -.37460659 .92718385 71.95472 -3.981738)"/><path d="m43.1515929 179.677802 1.6162466 1.615918 1.6162465-1.615918-1.6162465-1.615919z" fill="#a3b1bf" fill-opacity=".8" transform="matrix(.92718385 .37460659 -.37460659 .92718385 70.568311 -3.686883)"/><path d="m43.1515929 179.677802 1.6162466 1.615918 1.6162465-1.615918-1.6162465-1.615919z" transform="matrix(.92718385 .37460659 -.37460659 .92718385 70.568311 -3.686883)"/><path d="m41.7000226 176.258965 1.6162465 1.615919 1.6162465-1.615919-1.6162465-1.615918z" fill="#a3b1bf" fill-opacity=".8" transform="matrix(.92718385 .37460659 -.37460659 .92718385 69.181894 -3.392062)"/><path d="m41.7000226 176.258965 1.6162465 1.615919 1.6162465-1.615919-1.6162465-1.615918z" transform="matrix(.92718385 .37460659 -.37460659 .92718385 69.181894 -3.392062)"/><path d="m42.8987311 187.85474 1.6162465 1.615919 1.6162466-1.615919-1.6162466-1.615919z" fill="#a3b1bf" fill-opacity=".8" transform="matrix(.92718385 .37460659 -.37460659 .92718385 73.613033 -2.996746)"/><path d="m42.8987311 187.85474 1.6162465 1.615919 1.6162466-1.615919-1.6162466-1.615919z" transform="matrix(.92718385 .37460659 -.37460659 .92718385 73.613033 -2.996746)"/><path d="m41.4471018 184.43588 1.6162465 1.615919 1.6162466-1.615919-1.6162466-1.615919z" fill="#a3b1bf" fill-opacity=".8" transform="matrix(.92718385 .37460659 -.37460659 .92718385 72.226604 -2.701904)"/><path d="m41.4471018 184.43588 1.6162465 1.615919 1.6162466-1.615919-1.6162466-1.615919z" transform="matrix(.92718385 .37460659 -.37460659 .92718385 72.226604 -2.701904)"/><path d="m39.9955076 181.017103 1.6162466 1.615918 1.6162465-1.615918-1.6162465-1.615919z" fill="#a3b1bf" fill-opacity=".8" transform="matrix(.92718385 .37460659 -.37460659 .92718385 70.840208 -2.40707)"/><path d="m39.9955076 181.017103 1.6162466 1.615918 1.6162465-1.615918-1.6162465-1.615919z" transform="matrix(.92718385 .37460659 -.37460659 .92718385 70.840208 -2.40707)"/><path d="m38.5439373 177.598266 1.6162465 1.615919 1.6162465-1.615919-1.6162465-1.615918z" fill="#a3b1bf" fill-opacity=".8" transform="matrix(.92718385 .37460659 -.37460659 .92718385 69.453791 -2.112249)"/><path d="m38.5439373 177.598266 1.6162465 1.615919 1.6162465-1.615919-1.6162465-1.615918z" transform="matrix(.92718385 .37460659 -.37460659 .92718385 69.453791 -2.112249)"/><path d="m39.7426458 189.194041 1.6162465 1.615919 1.6162465-1.615919-1.6162465-1.615919z" fill="#a3b1bf" fill-opacity=".8" transform="matrix(.92718385 .37460659 -.37460659 .92718385 73.88493 -1.716933)"/><path d="m39.7426458 189.194041 1.6162465 1.615919 1.6162465-1.615919-1.6162465-1.615919z" transform="matrix(.92718385 .37460659 -.37460659 .92718385 73.88493 -1.716933)"/><path d="m38.2910165 185.775181 1.6162465 1.615919 1.6162465-1.615919-1.6162465-1.615919z" fill="#a3b1bf" fill-opacity=".8" transform="matrix(.92718385 .37460659 -.37460659 .92718385 72.498501 -1.422091)"/><path d="m38.2910165 185.775181 1.6162465 1.615919 1.6162465-1.615919-1.6162465-1.615919z" transform="matrix(.92718385 .37460659 -.37460659 .92718385 72.498501 -1.422091)"/><path d="m36.8394223 182.356404 1.6162465 1.615918 1.6162466-1.615918-1.6162466-1.615919z" fill="#a3b1bf" fill-opacity=".8" transform="matrix(.92718385 .37460659 -.37460659 .92718385 71.112105 -1.127257)"/><path d="m36.8394223 182.356404 1.6162465 1.615918 1.6162466-1.615918-1.6162466-1.615919z" transform="matrix(.92718385 .37460659 -.37460659 .92718385 71.112105 -1.127257)"/><path d="m35.3877692 178.937602 1.6162466 1.615919 1.6162465-1.615919-1.6162465-1.615918z" fill="#a3b1bf" fill-opacity=".8" transform="matrix(.92718385 .37460659 -.37460659 .92718385 69.725695 -.832402)"/><path d="m35.3877692 178.937602 1.6162466 1.615919 1.6162465-1.615919-1.6162465-1.615918z" transform="matrix(.92718385 .37460659 -.37460659 .92718385 69.725695 -.832402)"/><path d="m44.7646475 165.931897 1.6162465 1.615919 1.6162465-1.615919-1.6162465-1.615918z" fill="#a3b1bf" fill-opacity=".8" transform="matrix(.92718385 .37460659 -.37460659 .92718385 65.536461 -5.292068)"/><path d="m44.7646475 165.931897 1.6162465 1.615919 1.6162465-1.615919-1.6162465-1.615918z" transform="matrix(.92718385 .37460659 -.37460659 .92718385 65.536461 -5.292068)"/><path d="m43.3130771 162.513061 1.6162465 1.615919 1.6162466-1.615919-1.6162466-1.615918z" fill="#a3b1bf" fill-opacity=".8" transform="matrix(.92718385 .37460659 -.37460659 .92718385 64.150044 -4.997246)"/><path d="m43.3130771 162.513061 1.6162465 1.615919 1.6162466-1.615919-1.6162466-1.615918z" transform="matrix(.92718385 .37460659 -.37460659 .92718385 64.150044 -4.997246)"/><path d="m41.8614829 159.094284 1.6162466 1.615919 1.6162465-1.615919-1.6162465-1.615919z" fill="#a3b1bf" fill-opacity=".8" transform="matrix(.92718385 .37460659 -.37460659 .92718385 62.763648 -4.702411)"/><path d="m41.8614829 159.094284 1.6162466 1.615919 1.6162465-1.615919-1.6162465-1.615919z" transform="matrix(.92718385 .37460659 -.37460659 .92718385 62.763648 -4.702411)"/><path d="m40.4098536 155.675424 1.6162466 1.615918 1.6162465-1.615918-1.6162465-1.615919z" fill="#a3b1bf" fill-opacity=".8" transform="matrix(.92718385 .37460659 -.37460659 .92718385 61.377219 -4.40757)"/><path d="m40.4098536 155.675424 1.6162466 1.615918 1.6162465-1.615918-1.6162465-1.615919z" transform="matrix(.92718385 .37460659 -.37460659 .92718385 61.377219 -4.40757)"/><path d="m41.6085622 167.271198 1.6162465 1.615919 1.6162465-1.615919-1.6162465-1.615918z" fill="#a3b1bf" fill-opacity=".8" transform="matrix(.92718385 .37460659 -.37460659 .92718385 65.808358 -4.012255)"/><path d="m41.6085622 167.271198 1.6162465 1.615919 1.6162465-1.615919-1.6162465-1.615918z" transform="matrix(.92718385 .37460659 -.37460659 .92718385 65.808358 -4.012255)"/><path d="m40.1569918 163.852362 1.6162465 1.615919 1.6162465-1.615919-1.6162465-1.615919z" fill="#a3b1bf" fill-opacity=".8" transform="matrix(.92718385 .37460659 -.37460659 .92718385 64.421941 -3.717433)"/><path d="m40.1569918 163.852362 1.6162465 1.615919 1.6162465-1.615919-1.6162465-1.615919z" transform="matrix(.92718385 .37460659 -.37460659 .92718385 64.421941 -3.717433)"/><path d="m38.7053387 160.433561 1.6162465 1.615919 1.6162466-1.615919-1.6162466-1.615919z" fill="#a3b1bf" fill-opacity=".8" transform="matrix(.92718385 .37460659 -.37460659 .92718385 63.035532 -3.422578)"/><path d="m38.7053387 160.433561 1.6162465 1.615919 1.6162466-1.615919-1.6162466-1.615919z" transform="matrix(.92718385 .37460659 -.37460659 .92718385 63.035532 -3.422578)"/><path d="m37.2537445 157.014784 1.6162466 1.615918 1.6162465-1.615918-1.6162465-1.615919z" fill="#a3b1bf" fill-opacity=".8" transform="matrix(.92718385 .37460659 -.37460659 .92718385 61.649136 -3.127744)"/><path d="m37.2537445 157.014784 1.6162466 1.615918 1.6162465-1.615918-1.6162465-1.615919z" transform="matrix(.92718385 .37460659 -.37460659 .92718385 61.649136 -3.127744)"/><path d="m38.4524768 168.610499 1.6162466 1.615919 1.6162465-1.615919-1.6162465-1.615918z" fill="#a3b1bf" fill-opacity=".8" transform="matrix(.92718385 .37460659 -.37460659 .92718385 66.080255 -2.732441)"/><path d="m38.4524768 168.610499 1.6162466 1.615919 1.6162465-1.615919-1.6162465-1.615918z" transform="matrix(.92718385 .37460659 -.37460659 .92718385 66.080255 -2.732441)"/><path d="m37.0008827 165.191722 1.6162465 1.615919 1.6162465-1.615919-1.6162465-1.615919z" fill="#a3b1bf" fill-opacity=".8" transform="matrix(.92718385 .37460659 -.37460659 .92718385 64.693859 -2.437607)"/><path d="m37.0008827 165.191722 1.6162465 1.615919 1.6162465-1.615919-1.6162465-1.615919z" transform="matrix(.92718385 .37460659 -.37460659 .92718385 64.693859 -2.437607)"/><path d="m35.5492534 161.772862 1.6162465 1.615919 1.6162465-1.615919-1.6162465-1.615919z" fill="#a3b1bf" fill-opacity=".8" transform="matrix(.92718385 .37460659 -.37460659 .92718385 63.307429 -2.142765)"/><path d="m35.5492534 161.772862 1.6162465 1.615919 1.6162465-1.615919-1.6162465-1.615919z" transform="matrix(.92718385 .37460659 -.37460659 .92718385 63.307429 -2.142765)"/><path d="m34.0976592 158.354085 1.6162465 1.615918 1.6162466-1.615918-1.6162466-1.615919z" fill="#a3b1bf" fill-opacity=".8" transform="matrix(.92718385 .37460659 -.37460659 .92718385 61.921033 -1.847931)"/><path d="m34.0976592 158.354085 1.6162465 1.615918 1.6162466-1.615918-1.6162466-1.615919z" transform="matrix(.92718385 .37460659 -.37460659 .92718385 61.921033 -1.847931)"/><path d="m35.2963915 169.9498 1.6162465 1.615919 1.6162466-1.615919-1.6162466-1.615918z" fill="#a3b1bf" fill-opacity=".8" transform="matrix(.92718385 .37460659 -.37460659 .92718385 66.352152 -1.452628)"/><path d="m35.2963915 169.9498 1.6162465 1.615919 1.6162466-1.615919-1.6162466-1.615918z" transform="matrix(.92718385 .37460659 -.37460659 .92718385 66.352152 -1.452628)"/><path d="m33.8448211 166.530964 1.6162466 1.615919 1.6162465-1.615919-1.6162465-1.615919z" fill="#a3b1bf" fill-opacity=".8" transform="matrix(.92718385 .37460659 -.37460659 .92718385 64.965735 -1.157807)"/><path d="m33.8448211 166.530964 1.6162466 1.615919 1.6162465-1.615919-1.6162465-1.615919z" transform="matrix(.92718385 .37460659 -.37460659 .92718385 64.965735 -1.157807)"/><path d="m32.3931681 163.112163 1.6162465 1.615918 1.6162465-1.615918-1.6162465-1.615919z" fill="#a3b1bf" fill-opacity=".8" transform="matrix(.92718385 .37460659 -.37460659 .92718385 63.579326 -.862952)"/><path d="m32.3931681 163.112163 1.6162465 1.615918 1.6162465-1.615918-1.6162465-1.615919z" transform="matrix(.92718385 .37460659 -.37460659 .92718385 63.579326 -.862952)"/><path d="m30.9415739 159.693385 1.6162465 1.615919 1.6162466-1.615919-1.6162466-1.615918z" fill="#a3b1bf" fill-opacity=".8" transform="matrix(.92718385 .37460659 -.37460659 .92718385 62.19293 -.568117)"/><path d="m30.9415739 159.693385 1.6162465 1.615919 1.6162466-1.615919-1.6162466-1.615918z" transform="matrix(.92718385 .37460659 -.37460659 .92718385 62.19293 -.568117)"/><path d="m32.1403062 171.289101 1.6162465 1.615919 1.6162466-1.615919-1.6162466-1.615919z" fill="#a3b1bf" fill-opacity=".8" transform="matrix(.92718385 .37460659 -.37460659 .92718385 66.624049 -.172815)"/><path d="m32.1403062 171.289101 1.6162465 1.615919 1.6162466-1.615919-1.6162466-1.615919z" transform="matrix(.92718385 .37460659 -.37460659 .92718385 66.624049 -.172815)"/><path d="m30.688712 167.870324 1.6162466 1.615918 1.6162465-1.615918-1.6162465-1.615919z" fill="#a3b1bf" fill-opacity=".8" transform="matrix(.92718385 .37460659 -.37460659 .92718385 65.237653 .122019)"/><path d="m30.688712 167.870324 1.6162466 1.615918 1.6162465-1.615918-1.6162465-1.615919z" transform="matrix(.92718385 .37460659 -.37460659 .92718385 65.237653 .122019)"/><path d="m29.2370827 164.451464 1.6162466 1.615918 1.6162465-1.615918-1.6162465-1.615919z" fill="#a3b1bf" fill-opacity=".8" transform="matrix(.92718385 .37460659 -.37460659 .92718385 63.851223 .416861)"/><path d="m29.2370827 164.451464 1.6162466 1.615918 1.6162465-1.615918-1.6162465-1.615919z" transform="matrix(.92718385 .37460659 -.37460659 .92718385 63.851223 .416861)"/><path d="m27.7854886 161.032686 1.6162465 1.615919 1.6162465-1.615919-1.6162465-1.615918z" fill="#a3b1bf" fill-opacity=".8" transform="matrix(.92718385 .37460659 -.37460659 .92718385 62.464827 .711696)"/><path d="m27.7854886 161.032686 1.6162465 1.615919 1.6162465-1.615919-1.6162465-1.615918z" transform="matrix(.92718385 .37460659 -.37460659 .92718385 62.464827 .711696)"/><path d="m37.1623668 148.026981 1.6162465 1.615919 1.6162466-1.615919-1.6162466-1.615918z" fill="#a3b1bf" fill-opacity=".8" transform="matrix(.92718385 .37460659 -.37460659 .92718385 58.275592 -3.74797)"/><path d="m37.1623668 148.026981 1.6162465 1.615919 1.6162466-1.615919-1.6162466-1.615918z" transform="matrix(.92718385 .37460659 -.37460659 .92718385 58.275592 -3.74797)"/><path d="m35.7107375 144.608121 1.6162466 1.615919 1.6162465-1.615919-1.6162465-1.615918z" fill="#a3b1bf" fill-opacity=".8" transform="matrix(.92718385 .37460659 -.37460659 .92718385 56.889163 -3.453128)"/><path d="m35.7107375 144.608121 1.6162466 1.615919 1.6162465-1.615919-1.6162465-1.615918z" transform="matrix(.92718385 .37460659 -.37460659 .92718385 56.889163 -3.453128)"/><path d="m34.2591433 141.189344 1.6162466 1.615919 1.6162465-1.615919-1.6162465-1.615919z" fill="#a3b1bf" fill-opacity=".8" transform="matrix(.92718385 .37460659 -.37460659 .92718385 55.502767 -3.158294)"/><path d="m34.2591433 141.189344 1.6162466 1.615919 1.6162465-1.615919-1.6162465-1.615919z" transform="matrix(.92718385 .37460659 -.37460659 .92718385 55.502767 -3.158294)"/><path d="m32.8075492 137.770567 1.6162465 1.615918 1.6162465-1.615918-1.6162465-1.615919z" fill="#a3b1bf" fill-opacity=".8" transform="matrix(.92718385 .37460659 -.37460659 .92718385 54.116371 -2.863459)"/><path d="m34.4237957 139.386485 1.6162465-1.615918-1.6162465-1.615919-1.6162465 1.615919z" fill="#b2beca" transform="matrix(.92718385 .37460659 -.37460659 .92718385 54.116371 -2.863459)"/><path d="m34.0062815 149.366282 1.6162465 1.615919 1.6162466-1.615919-1.6162466-1.615918z" fill="#a3b1bf" fill-opacity=".8" transform="matrix(.92718385 .37460659 -.37460659 .92718385 58.547489 -2.468157)"/><path d="m34.0062815 149.366282 1.6162465 1.615919 1.6162466-1.615919-1.6162466-1.615918z" transform="matrix(.92718385 .37460659 -.37460659 .92718385 58.547489 -2.468157)"/><path d="m32.5546284 145.947481 1.6162465 1.615919 1.6162466-1.615919-1.6162466-1.615918z" fill="#a3b1bf" fill-opacity=".8" transform="matrix(.92718385 .37460659 -.37460659 .92718385 57.16108 -2.173302)"/><path d="m32.5546284 145.947481 1.6162465 1.615919 1.6162466-1.615919-1.6162466-1.615918z" transform="matrix(.92718385 .37460659 -.37460659 .92718385 57.16108 -2.173302)"/><path d="m31.103058 142.528645 1.6162466 1.615919 1.6162465-1.615919-1.6162465-1.615919z" fill="#a3b1bf" fill-opacity=".8" transform="matrix(.92718385 .37460659 -.37460659 .92718385 55.774664 -1.878481)"/><path d="m31.103058 142.528645 1.6162466 1.615919 1.6162465-1.615919-1.6162465-1.615919z" transform="matrix(.92718385 .37460659 -.37460659 .92718385 55.774664 -1.878481)"/><path d="m29.651405 139.109844 1.6162465 1.615919 1.6162465-1.615919-1.6162465-1.615919z" fill="#a3b1bf" fill-opacity=".8" transform="matrix(.92718385 .37460659 -.37460659 .92718385 54.388255 -1.583626)"/><path d="m29.651405 139.109844 1.6162465 1.615919 1.6162465-1.615919-1.6162465-1.615919z" transform="matrix(.92718385 .37460659 -.37460659 .92718385 54.388255 -1.583626)"/><path d="m30.8501373 150.705559 1.6162465 1.615919 1.6162465-1.615919-1.6162465-1.615918z" fill="#a3b1bf" fill-opacity=".8" transform="matrix(.92718385 .37460659 -.37460659 .92718385 58.819373 -1.188324)"/><path d="m30.8501373 150.705559 1.6162465 1.615919 1.6162465-1.615919-1.6162465-1.615918z" transform="matrix(.92718385 .37460659 -.37460659 .92718385 58.819373 -1.188324)"/><path d="m29.3985431 147.286782 1.6162465 1.615919 1.6162466-1.615919-1.6162466-1.615919z" fill="#a3b1bf" fill-opacity=".8" transform="matrix(.92718385 .37460659 -.37460659 .92718385 57.432977 -.893489)"/><path d="m29.3985431 147.286782 1.6162465 1.615919 1.6162466-1.615919-1.6162466-1.615919z" transform="matrix(.92718385 .37460659 -.37460659 .92718385 57.432977 -.893489)"/><path d="m27.9469727 143.867946 1.6162465 1.615919 1.6162466-1.615919-1.6162466-1.615919z" fill="#a3b1bf" fill-opacity=".8" transform="matrix(.92718385 .37460659 -.37460659 .92718385 56.046561 -.598667)"/><path d="m27.9469727 143.867946 1.6162465 1.615919 1.6162466-1.615919-1.6162466-1.615919z" transform="matrix(.92718385 .37460659 -.37460659 .92718385 56.046561 -.598667)"/><path d="m26.4953196 140.449145 1.6162466 1.615918 1.6162465-1.615918-1.6162465-1.615919z" fill="#a3b1bf" fill-opacity=".8" transform="matrix(.92718385 .37460659 -.37460659 .92718385 54.660152 -.303813)"/><path d="m26.4953196 140.449145 1.6162466 1.615918 1.6162465-1.615918-1.6162465-1.615919z" transform="matrix(.92718385 .37460659 -.37460659 .92718385 54.660152 -.303813)"/><path d="m27.6940519 152.04486 1.6162466 1.615919 1.6162465-1.615919-1.6162465-1.615918z" fill="#a3b1bf" fill-opacity=".8" transform="matrix(.92718385 .37460659 -.37460659 .92718385 59.09127 .09149)"/><path d="m27.6940519 152.04486 1.6162466 1.615919 1.6162465-1.615919-1.6162465-1.615918z" transform="matrix(.92718385 .37460659 -.37460659 .92718385 59.09127 .09149)"/><path d="m26.2424578 148.626083 1.6162465 1.615919 1.6162465-1.615919-1.6162465-1.615919z" fill="#a3b1bf" fill-opacity=".8" transform="matrix(.92718385 .37460659 -.37460659 .92718385 57.704874 .386324)"/><path d="m26.2424578 148.626083 1.6162465 1.615919 1.6162465-1.615919-1.6162465-1.615919z" transform="matrix(.92718385 .37460659 -.37460659 .92718385 57.704874 .386324)"/><path d="m24.7908874 145.207247 1.6162465 1.615919 1.6162466-1.615919-1.6162466-1.615919z" fill="#a3b1bf" fill-opacity=".8" transform="matrix(.92718385 .37460659 -.37460659 .92718385 56.318458 .681146)"/><path d="m24.7908874 145.207247 1.6162465 1.615919 1.6162466-1.615919-1.6162466-1.615919z" transform="matrix(.92718385 .37460659 -.37460659 .92718385 56.318458 .681146)"/><path d="m23.3392343 141.788446 1.6162465 1.615918 1.6162466-1.615918-1.6162466-1.615919z" fill="#a3b1bf" fill-opacity=".8" transform="matrix(.92718385 .37460659 -.37460659 .92718385 54.932049 .976)"/><path d="m23.3392343 141.788446 1.6162465 1.615918 1.6162466-1.615918-1.6162466-1.615919z" transform="matrix(.92718385 .37460659 -.37460659 .92718385 54.932049 .976)"/><path d="m24.5379666 153.384161 1.6162466 1.615919 1.6162465-1.615919-1.6162465-1.615918z" fill="#a3b1bf" fill-opacity=".8" transform="matrix(.92718385 .37460659 -.37460659 .92718385 59.363167 1.371303)"/><path d="m24.5379666 153.384161 1.6162466 1.615919 1.6162465-1.615919-1.6162465-1.615918z" transform="matrix(.92718385 .37460659 -.37460659 .92718385 59.363167 1.371303)"/><path d="m23.0863724 149.965384 1.6162466 1.615919 1.6162465-1.615919-1.6162465-1.615919z" fill="#a3b1bf" fill-opacity=".8" transform="matrix(.92718385 .37460659 -.37460659 .92718385 57.976771 1.666137)"/><path d="m23.0863724 149.965384 1.6162466 1.615919 1.6162465-1.615919-1.6162465-1.615919z" transform="matrix(.92718385 .37460659 -.37460659 .92718385 57.976771 1.666137)"/><path d="m21.6347194 146.546583 1.6162465 1.615919 1.6162465-1.615919-1.6162465-1.615919z" fill="#a3b1bf" fill-opacity=".8" transform="matrix(.92718385 .37460659 -.37460659 .92718385 56.590362 1.960992)"/><path d="m21.6347194 146.546583 1.6162465 1.615919 1.6162465-1.615919-1.6162465-1.615919z" transform="matrix(.92718385 .37460659 -.37460659 .92718385 56.590362 1.960992)"/><path d="m20.183149 143.127747 1.6162465 1.615918 1.6162466-1.615918-1.6162466-1.615919z" fill="#a3b1bf" fill-opacity=".8" transform="matrix(.92718385 .37460659 -.37460659 .92718385 55.203946 2.255813)"/><path d="m20.183149 143.127747 1.6162465 1.615918 1.6162466-1.615918-1.6162466-1.615919z" transform="matrix(.92718385 .37460659 -.37460659 .92718385 55.203946 2.255813)"/><path d="m129.314819 189.942425c-2.942153-2.942192-4.824597-5.829757-4.203892-6.450336.620704-.620579 3.508856 1.261484 6.451644 4.20304 2.942153 2.942192 4.824598 5.829757 4.203893 6.450336s-3.508856-1.261484-6.451645-4.20304z" fill="#f5f5f5" transform="matrix(.92718385 .37460659 -.37460659 .92718385 80.230802 -35.11414)"/><path d="m129.314819 189.942425c-2.942153-2.942192-4.824597-5.829757-4.203892-6.450336.620704-.620579 3.508856 1.261484 6.451644 4.20304 2.942153 2.942192 4.824598 5.829757 4.203893 6.450336s-3.508856-1.261484-6.451645-4.20304z" stroke="#a3b1bf" stroke-linejoin="round" stroke-width="1.62" transform="matrix(.92718385 .37460659 -.37460659 .92718385 80.230802 -35.11414)"/><path d="m136.083433 187.715086c-5.879223-5.878031-9.6403-11.64808-8.400161-12.887968 1.240138-1.239887 7.011358 2.520427 12.890582 8.398458 5.879859 5.878667 9.640936 11.648716 8.400797 12.888603-1.240138 1.239887-7.011358-2.520427-12.891218-8.399093z" fill="#f5f5f5" transform="matrix(.92718385 .37460659 -.37460659 .92718385 79.551109 -38.313683)"/><path d="m136.083433 187.715086c-5.879223-5.878031-9.6403-11.64808-8.400161-12.887968 1.240138-1.239887 7.011358 2.520427 12.890582 8.398458 5.879859 5.878667 9.640936 11.648716 8.400797 12.888603-1.240138 1.239887-7.011358-2.520427-12.891218-8.399093z" stroke="#a3b1bf" stroke-linejoin="round" stroke-width="1.62" transform="matrix(.92718385 .37460659 -.37460659 .92718385 79.551109 -38.313683)"/><path d="m146.697288 183.650834c-7.879202-7.877603-12.919807-15.610384-11.257818-17.272036s9.396339 3.377931 17.275541 11.255534c7.879202 7.877604 12.919807 15.610384 11.257818 17.272037-1.66199 1.661652-9.396339-3.377931-17.275541-11.255535z" fill="#f5f5f5" fill-opacity=".35" transform="matrix(.92718385 .37460659 -.37460659 .92718385 78.570927 -42.927214)"/><path d="m146.697288 183.650834c-7.879202-7.877603-12.919807-15.610384-11.257818-17.272036s9.396339 3.377931 17.275541 11.255534c7.879202 7.877604 12.919807 15.610384 11.257818 17.272037-1.66199 1.661652-9.396339-3.377931-17.275541-11.255535z" stroke="#a3b1bf" stroke-linejoin="round" stroke-width="1.62" transform="matrix(.92718385 .37460659 -.37460659 .92718385 78.570927 -42.927214)"/><g fill="#a3b1bf"><path d="m65.2279553 90.2345285c-2.7731217-.2024449-4.8174322-.899988-4.8174322-1.7293774 0-.8284781 2.0398215-1.5253997 4.8082956-1.7287083.1960952-2.7696062.8691312-4.8105207 1.6692554-4.8105207.8001243 0 1.4731603 2.0409145 1.6692554 4.8105207 2.7684741.2033086 4.8082956.9002302 4.8082956 1.7287083 0 .8293894-2.0443105 1.5269325-4.8174321 1.7293774-.2071601 2.7062953-.8719857 4.6864957-1.6601189 4.6864957s-1.4529587-1.9802004-1.6601188-4.6864957z" fill-opacity=".4" opacity=".85" transform="matrix(.93969262 .34202014 -.34202014 .93969262 34.283294 -17.543275)"/><path d="m118.775569 329.140492-.350581.385654c-.902744.993054-2.439592 1.066265-3.432647.163521-.395407-.359449-.661306-.839211-.756538-1.365026l-.092728-.511994-.473818-.213556c-1.22352-.551456-1.768336-1.990357-1.21688-3.213877.219638-.487314.593827-.888613 1.064614-1.141745l.458219-.246374.056948-.51811c.146628-1.334018 1.346929-2.296587 2.680947-2.149959.531075.058373 1.028109.290144 1.414194.65945l.376658.360289.509383-.105803c1.314006-.272931 2.600473.571027 2.873404 1.885033.108705.523354.041817 1.067948-.190307 1.549441l-.225695.468158.25807.451815c.665629 1.16535.260525 2.649652-.904825 3.315281-.464012.265036-1.002447.369731-1.531964.29788z" fill-opacity=".4"/><path d="m432.83752 120.004816-.000433.000228c-.744615.391385-1.665526.105035-2.056911-.63958-.155839-.296486-.209603-.636073-.15297-.966198-.602361-.587033-.614786-1.551227-.027753-2.153588.233809-.239913.540199-.396041.871718-.444204l.0003-.000043c.37242-.754449 1.285928-1.064143 2.040377-.691722.300347.148261.54346.391374.691722.691722l.000299.000043c.83236.120924 1.409094.893713 1.28817 1.726073-.048163.33152-.204291.63791-.444204.871719.142231.829098-.414585 1.616517-1.243683 1.758748-.330125.056633-.669713.002869-.966198-.15297z" fill-opacity=".4" transform="matrix(.99862953 -.05233596 .05233596 .99862953 -5.559747 22.814091)"/><path d="m99.7727703 38.762372-.7461395.3921864c-1.1879463.6244091-2.6571508.167572-3.28156-1.0203744-.2486231-.4730085-.3343976-1.0147805-.2440467-1.5414562l.142368-.8298945-.6026109-.587277c-.9611234-.936667-.9809492-2.4751302-.0442822-3.4362536.373064-.3828048.8619386-.6319219 1.3909099-.7087698l.8332653-.1210551.3731171-.755859c.5940465-1.2034168 2.0511784-1.6974091 3.2545957-1.1033626.479082.236491.866871.6242801 1.103362 1.1033626l.373117.755859.833266.1210551c1.328109.1929451 2.248342 1.4260037 2.055397 2.7541135-.076848.5289713-.325965 1.0178459-.70877 1.3909099l-.602611.587277.142368.8298945c.226914 1.3227297-.661421 2.5789637-1.98415 2.8058772-.526676.0903509-1.068448.0045764-1.541456-.2440466z" fill-opacity=".4" transform="matrix(.94551858 .32556815 -.32556815 .94551858 16.542981 -30.624179)"/><path d="m396.631073 305.744172-.532948-.135576c-1.300627-.330865-2.086775-1.65345-1.75591-2.954078.131741-.517875.430514-.977885.850073-1.308824l.431088-.340034-.035759-.547288c-.087501-1.339196.927198-2.495763 2.266395-2.583264.533387-.034851 1.063383.107139 1.507907.403981l.456554.304876.510889-.203592c1.246706-.496818 2.660111.111086 3.156929 1.357791.197785.496316.226486 1.043981.081665 1.558252l-.149074.529372.350928.422184c.857872 1.032066.716661 2.564163-.315404 3.422035-.41106.341681-.923311.538294-1.457419.559388l-.548027.021644-.29311.46427c-.716449 1.134814-2.217195 1.473966-3.35201.757517-.451852-.285271-.797073-.71153-.982226-1.212797z" fill-opacity=".4"/><path d="m439.755536 146.347757-.000433.000227c-.744615.391385-1.665526.105036-2.056911-.639579-.155839-.296486-.209603-.636074-.15297-.966199-.602361-.587033-.614786-1.551227-.027753-2.153587.233808-.239914.540199-.396042.871718-.444204l.0003-.000044c.37242-.754448 1.285928-1.064143 2.040377-.691722.300347.148262.54346.391375.691722.691722l.000299.000044c.83236.120923 1.409093.893713 1.28817 1.726073-.048163.331519-.204291.63791-.444204.871718.142231.829099-.414585 1.616517-1.243683 1.758749-.330125.056633-.669713.002868-.966199-.152971z" fill-opacity=".4" transform="matrix(.9781476 -.20791169 .20791169 .9781476 -20.310662 94.575096)"/><path d="m244.621971 220.61341c32.537479 0 58.914317-26.371298 58.914317-58.901943s-26.376838-58.901943-58.914317-58.901943c-32.53748 0-58.914318 26.371298-58.914318 58.901943s26.376838 58.901943 58.914318 58.901943z" fill-opacity=".66"/></g><path d="m245.345696 141.060063c-4.19904 0-7.46496 1.282286-9.79776 3.846858-2.3328 2.448-3.44088 5.712-3.44088 9.792h4.60728c0-2.856.64152-5.070858 1.92456-6.702858 1.39968-1.923428 3.55752-2.856 6.47352-2.856 2.44944 0 4.374.641143 5.71536 2.04 1.28304 1.282286 1.98288 3.089143 1.98288 5.420572 0 1.632-.5832 3.147428-1.7496 4.604571-.34992.466286-1.04976 1.165715-1.98288 2.098286-3.14928 2.797714-5.07384 5.012571-5.89032 6.761143-.69984 1.457143-1.04976 3.147428-1.04976 5.070857v1.340571h4.6656v-1.340571c0-1.573714.34992-2.972571 1.10808-4.254857.5832-1.049143 1.458-2.098286 2.74104-3.205714 2.56608-2.273143 4.14072-3.788572 4.72392-4.488 1.458-1.923429 2.21616-4.196572 2.21616-6.819429 0-3.497143-1.10808-6.236571-3.26592-8.218286-2.27448-2.098285-5.2488-3.089143-8.98128-3.089143zm-.8748 35.496c-.99144 0-1.80792.291429-2.50776.990858-.69984.641142-.99144 1.457142-.99144 2.448 0 .990857.2916 1.806857.99144 2.506285.69984.641143 1.51632.990857 2.50776.990857s1.80792-.349714 2.50776-.990857 1.04976-1.457143 1.04976-2.506285c0-.990858-.34992-1.806858-.99144-2.448-.69984-.699429-1.57464-.990858-2.56608-.990858z" fill="#fff"/><path d="m223.261662 133.139924c5.815676-3.356977 16.370146-7.311651 13.012464-13.126105-3.357682-5.814455-15.708258-4.970073-21.523933-1.613097-5.815676 3.356977-12.020359 13.223229-8.662677 19.037683s11.35847-.941505 17.174146-4.298481" fill="#fafafa"/><path d="m249.679003 119.820589c2.686146 0 4.863697-2.177094 4.863697-4.862676 0-2.685581-2.177551-4.862675-4.863697-4.862675s-4.863697 2.177094-4.863697 4.862675c0 2.685582 2.177551 4.862676 4.863697 4.862676z" fill="#fafafa"/><path d="m421.5 321.5 1.5 1.5" stroke="#979797" stroke-linecap="square"/></g></svg>