<svg height="193" viewBox="0 0 422 193" width="422" xmlns="http://www.w3.org/2000/svg"><g fill="none" fill-rule="evenodd" transform="translate(2 -9)"><path d="m214.065678 134.970601h114.571828v-109.5799106h-114.571828z" fill="#a3b1bf" fill-opacity=".25" opacity=".9" transform="matrix(0 1 -1 0 351.532238 -191.170946)"/><path d="m214.065678 134.970601h114.571828v-109.5799106h-114.571828z" stroke="#a3b1bf" stroke-width="1.62" transform="matrix(0 1 -1 0 351.532238 -191.170946)"/><path d="m276.053859 94.8252648c-4.56193 0-8.294418-3.7470335-8.294418-8.326741v-12.539031c0-4.5797075 3.732488-8.3267409 8.294418-8.3267409h117.488352c4.56193 0 8.294418 3.7470334 8.294418 8.3267409v12.539031c0 4.5797075-3.732488 8.326741-8.294418 8.326741z" fill="#f0f2f5" transform="matrix(0 1 -1 0 415.027043 -254.569027)"/><path d="m276.053859 94.8252648c-4.56193 0-8.294418-3.7470335-8.294418-8.326741v-12.539031c0-4.5797075 3.732488-8.3267409 8.294418-8.3267409h117.488352c4.56193 0 8.294418 3.7470334 8.294418 8.3267409v12.539031c0 4.5797075-3.732488 8.326741-8.294418 8.326741z" stroke="#a3b1bf" stroke-width="1.62" transform="matrix(0 1 -1 0 415.027043 -254.569027)"/><path d="m373.091719 31.232323c0 .826429-.6677 1.4967317-1.490921 1.4967317-.824258 0-1.491959-.6703027-1.491959-1.4967317s.667701-1.4967317 1.491959-1.4967317c.823221 0 1.490921.6703027 1.490921 1.4967317l-16.730877-26.49122013-7.278351-13.38554217" transform="matrix(0 1 -1 0 373.129413 -349.044797)"/><path d="m343.448596 22.5884924c0 .8264291-.667701 1.4967317-1.490922 1.4967317-.824258 0-1.491958-.6703026-1.491958-1.4967317 0-.826429.6677-1.4967317 1.491958-1.4967317.823221 0 1.490922.6703027 1.490922 1.4967317z" stroke="#a3b1bf" stroke-width=".81" transform="matrix(0 1 -1 0 364.545648 -319.368664)"/><path d="m343.448596 31.5121872c0 .826429-.667701 1.4967317-1.490922 1.4967317-.824258 0-1.491958-.6703027-1.491958-1.4967317s.6677-1.4967317 1.491958-1.4967317c.823221 0 1.490922.6703027 1.490922 1.4967317" fill="#fff" transform="matrix(0 1 -1 0 373.469343 -310.444969)"/><path d="m343.448596 31.5121872c0 .826429-.667701 1.4967317-1.490922 1.4967317-.824258 0-1.491958-.6703027-1.491958-1.4967317s.6677-1.4967317 1.491958-1.4967317c.823221 0 1.490922.6703027 1.490922 1.4967317z" stroke="#a3b1bf" stroke-width=".81" transform="matrix(0 1 -1 0 373.469343 -310.444969)"/><path d="m343.448596 40.435882c0 .826429-.667701 1.4967317-1.490922 1.4967317-.824258 0-1.491958-.6703027-1.491958-1.4967317s.6677-1.4967317 1.491958-1.4967317c.823221 0 1.490922.6703027 1.490922 1.4967317" fill="#fff" transform="matrix(0 1 -1 0 382.393038 -301.521274)"/><path d="m343.448596 40.435882c0 .826429-.667701 1.4967317-1.490922 1.4967317-.824258 0-1.491958-.6703027-1.491958-1.4967317s.6677-1.4967317 1.491958-1.4967317c.823221 0 1.490922.6703027 1.490922 1.4967317z" stroke="#a3b1bf" stroke-width=".81" transform="matrix(0 1 -1 0 382.393038 -301.521274)"/><path d="m343.448596 49.3595768c0 .826429-.667701 1.4967317-1.490922 1.4967317-.824258 0-1.491958-.6703027-1.491958-1.4967317 0-.8264291.6677-1.4967317 1.491958-1.4967317.823221 0 1.490922.6703026 1.490922 1.4967317" fill="#fff" transform="matrix(0 1 -1 0 391.316733 -292.597579)"/><path d="m343.448596 49.3595768c0 .826429-.667701 1.4967317-1.490922 1.4967317-.824258 0-1.491958-.6703027-1.491958-1.4967317 0-.8264291.6677-1.4967317 1.491958-1.4967317.823221 0 1.490922.6703026 1.490922 1.4967317z" stroke="#a3b1bf" stroke-width=".81" transform="matrix(0 1 -1 0 391.316733 -292.597579)"/><path d="m343.448596 58.2832715c0 .8264291-.667701 1.4967317-1.490922 1.4967317-.824258 0-1.491958-.6703026-1.491958-1.4967317 0-.826429.6677-1.4967316 1.491958-1.4967316.823221 0 1.490922.6703026 1.490922 1.4967316" fill="#fff" transform="matrix(0 1 -1 0 400.240428 -283.673884)"/><path d="m343.448596 58.2832715c0 .8264291-.667701 1.4967317-1.490922 1.4967317-.824258 0-1.491958-.6703026-1.491958-1.4967317 0-.826429.6677-1.4967316 1.491958-1.4967316.823221 0 1.490922.6703026 1.490922 1.4967316z" stroke="#a3b1bf" stroke-width=".81" transform="matrix(0 1 -1 0 400.240428 -283.673884)"/><path d="m343.448596 67.2069663c0 .8264291-.667701 1.4967317-1.490922 1.4967317-.824258 0-1.491958-.6703026-1.491958-1.4967317 0-.826429.6677-1.4967317 1.491958-1.4967317.823221 0 1.490922.6703027 1.490922 1.4967317" fill="#fff" transform="matrix(0 1 -1 0 409.164122 -274.75019)"/><path d="m343.448596 67.2069663c0 .8264291-.667701 1.4967317-1.490922 1.4967317-.824258 0-1.491958-.6703026-1.491958-1.4967317 0-.826429.6677-1.4967317 1.491958-1.4967317.823221 0 1.490922.6703027 1.490922 1.4967317z" stroke="#a3b1bf" stroke-width=".81" transform="matrix(0 1 -1 0 409.164122 -274.75019)"/><path d="m327.400971 24.0852241c-.824258 0-1.491958-.6703026-1.491958-1.4967317 0-.826429.6677-1.4967317 1.491958-1.4967317.823221 0 1.490922.6703027 1.490922 1.4967317 0 .8264291-.667701 1.4967317-1.490922 1.4967317z" fill="#fff" transform="matrix(0 1 -1 0 349.988945 -304.811961)"/><path d="m328.891893 22.5884924c0 .8264291-.667701 1.4967317-1.490922 1.4967317-.824258 0-1.491958-.6703026-1.491958-1.4967317 0-.826429.6677-1.4967317 1.491958-1.4967317.823221 0 1.490922.6703027 1.490922 1.4967317z" stroke="#a3b1bf" stroke-width=".81" transform="matrix(0 1 -1 0 349.988945 -304.811961)"/><path d="m328.891893 31.5121872c0 .826429-.667701 1.4967317-1.490922 1.4967317-.824258 0-1.491958-.6703027-1.491958-1.4967317s.6677-1.4967317 1.491958-1.4967317c.823221 0 1.490922.6703027 1.490922 1.4967317" fill="#fff" transform="matrix(0 1 -1 0 358.91264 -295.888266)"/><path d="m328.891893 31.5121872c0 .826429-.667701 1.4967317-1.490922 1.4967317-.824258 0-1.491958-.6703027-1.491958-1.4967317s.6677-1.4967317 1.491958-1.4967317c.823221 0 1.490922.6703027 1.490922 1.4967317z" stroke="#a3b1bf" stroke-width=".81" transform="matrix(0 1 -1 0 358.91264 -295.888266)"/><path d="m328.891893 40.435882c0 .826429-.667701 1.4967317-1.490922 1.4967317-.824258 0-1.491958-.6703027-1.491958-1.4967317s.6677-1.4967317 1.491958-1.4967317c.823221 0 1.490922.6703027 1.490922 1.4967317" fill="#fff" transform="matrix(0 1 -1 0 367.836335 -286.964571)"/><path d="m328.891893 40.435882c0 .826429-.667701 1.4967317-1.490922 1.4967317-.824258 0-1.491958-.6703027-1.491958-1.4967317s.6677-1.4967317 1.491958-1.4967317c.823221 0 1.490922.6703027 1.490922 1.4967317z" stroke="#a3b1bf" stroke-width=".81" transform="matrix(0 1 -1 0 367.836335 -286.964571)"/><path d="m328.891893 49.3595768c0 .826429-.667701 1.4967317-1.490922 1.4967317-.824258 0-1.491958-.6703027-1.491958-1.4967317 0-.8264291.6677-1.4967317 1.491958-1.4967317.823221 0 1.490922.6703026 1.490922 1.4967317" fill="#fff" transform="matrix(0 1 -1 0 376.76003 -278.040876)"/><path d="m328.891893 49.3595768c0 .826429-.667701 1.4967317-1.490922 1.4967317-.824258 0-1.491958-.6703027-1.491958-1.4967317 0-.8264291.6677-1.4967317 1.491958-1.4967317.823221 0 1.490922.6703026 1.490922 1.4967317z" stroke="#a3b1bf" stroke-width=".81" transform="matrix(0 1 -1 0 376.76003 -278.040876)"/><path d="m328.891893 58.2832715c0 .8264291-.667701 1.4967317-1.490922 1.4967317-.824258 0-1.491958-.6703026-1.491958-1.4967317 0-.826429.6677-1.4967316 1.491958-1.4967316.823221 0 1.490922.6703026 1.490922 1.4967316" fill="#fff" transform="matrix(0 1 -1 0 385.683725 -269.117181)"/><path d="m328.891893 58.2832715c0 .8264291-.667701 1.4967317-1.490922 1.4967317-.824258 0-1.491958-.6703026-1.491958-1.4967317 0-.826429.6677-1.4967316 1.491958-1.4967316.823221 0 1.490922.6703026 1.490922 1.4967316z" stroke="#a3b1bf" stroke-width=".81" transform="matrix(0 1 -1 0 385.683725 -269.117181)"/><path d="m328.891893 67.2069663c0 .8264291-.667701 1.4967317-1.490922 1.4967317-.824258 0-1.491958-.6703026-1.491958-1.4967317 0-.826429.6677-1.4967317 1.491958-1.4967317.823221 0 1.490922.6703027 1.490922 1.4967317" fill="#fff" transform="matrix(0 1 -1 0 394.607419 -260.193487)"/><path d="m328.891893 67.2069663c0 .8264291-.667701 1.4967317-1.490922 1.4967317-.824258 0-1.491958-.6703026-1.491958-1.4967317 0-.826429.6677-1.4967317 1.491958-1.4967317.823221 0 1.490922.6703027 1.490922 1.4967317z" stroke="#a3b1bf" stroke-width=".81" transform="matrix(0 1 -1 0 394.607419 -260.193487)"/><path d="m334.679323 28.141449c-.824258 0-1.491959-.6703026-1.491959-1.4967317 0-.826429.667701-1.4967317 1.491959-1.4967317.823221 0 1.490921.6703027 1.490921 1.4967317 0 .8264291-.6677 1.4967317-1.490921 1.4967317z" fill="#fff" transform="matrix(0 1 -1 0 361.323521 -308.034087)"/><path d="m336.170244 26.6447173c0 .8264291-.6677 1.4967317-1.490921 1.4967317-.824258 0-1.491959-.6703026-1.491959-1.4967317 0-.826429.667701-1.4967317 1.491959-1.4967317.823221 0 1.490921.6703027 1.490921 1.4967317z" stroke="#a3b1bf" stroke-width=".81" transform="matrix(0 1 -1 0 361.323521 -308.034087)"/><path d="m336.170244 35.5684121c0 .826429-.6677 1.4967317-1.490921 1.4967317-.824258 0-1.491959-.6703027-1.491959-1.4967317s.667701-1.4967317 1.491959-1.4967317c.823221 0 1.490921.6703027 1.490921 1.4967317" fill="#fff" transform="matrix(0 1 -1 0 370.247216 -299.110392)"/><path d="m336.170244 35.5684121c0 .826429-.6677 1.4967317-1.490921 1.4967317-.824258 0-1.491959-.6703027-1.491959-1.4967317s.667701-1.4967317 1.491959-1.4967317c.823221 0 1.490921.6703027 1.490921 1.4967317z" stroke="#a3b1bf" stroke-width=".81" transform="matrix(0 1 -1 0 370.247216 -299.110392)"/><path d="m336.170244 44.4921069c0 .826429-.6677 1.4967317-1.490921 1.4967317-.824258 0-1.491959-.6703027-1.491959-1.4967317s.667701-1.4967317 1.491959-1.4967317c.823221 0 1.490921.6703027 1.490921 1.4967317" fill="#fff" transform="matrix(0 1 -1 0 379.170911 -290.186697)"/><path d="m336.170244 44.4921069c0 .826429-.6677 1.4967317-1.490921 1.4967317-.824258 0-1.491959-.6703027-1.491959-1.4967317s.667701-1.4967317 1.491959-1.4967317c.823221 0 1.490921.6703027 1.490921 1.4967317z" stroke="#a3b1bf" stroke-width=".81" transform="matrix(0 1 -1 0 379.170911 -290.186697)"/><path d="m336.170244 53.4158017c0 .826429-.6677 1.4967316-1.490921 1.4967316-.824258 0-1.491959-.6703026-1.491959-1.4967316 0-.8264291.667701-1.4967317 1.491959-1.4967317.823221 0 1.490921.6703026 1.490921 1.4967317" fill="#fff" transform="matrix(0 1 -1 0 388.094606 -281.263002)"/><path d="m336.170244 53.4158017c0 .826429-.6677 1.4967316-1.490921 1.4967316-.824258 0-1.491959-.6703026-1.491959-1.4967316 0-.8264291.667701-1.4967317 1.491959-1.4967317.823221 0 1.490921.6703026 1.490921 1.4967317z" stroke="#a3b1bf" stroke-width=".81" transform="matrix(0 1 -1 0 388.094606 -281.263002)"/><path d="m336.170244 62.3394964c0 .8264291-.6677 1.4967317-1.490921 1.4967317-.824258 0-1.491959-.6703026-1.491959-1.4967317 0-.826429.667701-1.4967316 1.491959-1.4967316.823221 0 1.490921.6703026 1.490921 1.4967316" fill="#fff" transform="matrix(0 1 -1 0 397.0183 -272.339308)"/><path d="m336.170244 62.3394964c0 .8264291-.6677 1.4967317-1.490921 1.4967317-.824258 0-1.491959-.6703026-1.491959-1.4967317 0-.826429.667701-1.4967316 1.491959-1.4967316.823221 0 1.490921.6703026 1.490921 1.4967316z" stroke="#a3b1bf" stroke-width=".81" transform="matrix(0 1 -1 0 397.0183 -272.339308)"/><path d="m336.170244 71.2631912c0 .8264291-.6677 1.4967317-1.490921 1.4967317-.824258 0-1.491959-.6703026-1.491959-1.4967317 0-.826429.667701-1.4967317 1.491959-1.4967317.823221 0 1.490921.6703027 1.490921 1.4967317" fill="#fff" transform="matrix(0 1 -1 0 405.941995 -263.415613)"/><path d="m336.170244 71.2631912c0 .8264291-.6677 1.4967317-1.490921 1.4967317-.824258 0-1.491959-.6703026-1.491959-1.4967317 0-.826429.667701-1.4967317 1.491959-1.4967317.823221 0 1.490921.6703027 1.490921 1.4967317z" stroke="#a3b1bf" stroke-width=".81" transform="matrix(0 1 -1 0 405.941995 -263.415613)"/><path d="m335.089444 136.046978c-2.388793 0-4.325539-1.944294-4.325539-4.342396 0-2.398101 1.936746-4.342395 4.325539-4.342395 2.388792 0 4.325539 1.944294 4.325539 4.342395 0 2.398102-1.936747 4.342396-4.325539 4.342396z" fill="#a3b1bf" transform="matrix(0 1 -1 0 466.794026 -203.384862)"/><path d="m307.865544 121.56038c0 .826429-.667701 1.496732-1.490922 1.496732-.824257 0-1.491958-.670303-1.491958-1.496732s.667701-1.496732 1.491958-1.496732c.823221 0 1.490922.670303 1.490922 1.496732" fill="#f5f5f5" transform="matrix(0 1 -1 0 427.934484 -184.813724)"/><path d="m307.865544 121.56038c0 .826429-.667701 1.496732-1.490922 1.496732-.824257 0-1.491958-.670303-1.491958-1.496732s.667701-1.496732 1.491958-1.496732c.823221 0 1.490922.670303 1.490922 1.496732z" stroke="#a3b1bf" stroke-width=".81" transform="matrix(0 1 -1 0 427.934484 -184.813724)"/><path d="m294.117547 121.56038c0 .826429-.667701 1.496732-1.490922 1.496732-.824258 0-1.491958-.670303-1.491958-1.496732s.6677-1.496732 1.491958-1.496732c.823221 0 1.490922.670303 1.490922 1.496732" fill="#f5f5f5" transform="matrix(0 1 -1 0 414.186487 -171.065727)"/><path d="m294.117547 121.56038c0 .826429-.667701 1.496732-1.490922 1.496732-.824258 0-1.491958-.670303-1.491958-1.496732s.6677-1.496732 1.491958-1.496732c.823221 0 1.490922.670303 1.490922 1.496732z" stroke="#a3b1bf" stroke-width=".81" transform="matrix(0 1 -1 0 414.186487 -171.065727)"/><path d="m307.865544 38.813392c0 .8264291-.667701 1.4967317-1.490922 1.4967317-.824257 0-1.491958-.6703026-1.491958-1.4967317 0-.826429.667701-1.4967317 1.491958-1.4967317.823221 0 1.490922.6703027 1.490922 1.4967317" fill="#f5f5f5" transform="matrix(0 1 -1 0 345.187496 -267.560712)"/><path d="m307.865544 38.813392c0 .8264291-.667701 1.4967317-1.490922 1.4967317-.824257 0-1.491958-.6703026-1.491958-1.4967317 0-.826429.667701-1.4967317 1.491958-1.4967317.823221 0 1.490922.6703027 1.490922 1.4967317z" stroke="#a3b1bf" stroke-width=".81" transform="matrix(0 1 -1 0 345.187496 -267.560712)"/><path d="m294.117547 38.813392c0 .8264291-.667701 1.4967317-1.490922 1.4967317-.824258 0-1.491958-.6703026-1.491958-1.4967317 0-.826429.6677-1.4967317 1.491958-1.4967317.823221 0 1.490922.6703027 1.490922 1.4967317" fill="#f5f5f5" transform="matrix(0 1 -1 0 331.439499 -253.812715)"/><path d="m294.117547 38.813392c0 .8264291-.667701 1.4967317-1.490922 1.4967317-.824258 0-1.491958-.6703026-1.491958-1.4967317 0-.826429.6677-1.4967317 1.491958-1.4967317.823221 0 1.490922.6703027 1.490922 1.4967317z" stroke="#a3b1bf" stroke-width=".81" transform="matrix(0 1 -1 0 331.439499 -253.812715)"/><path d="m205.696461 94.8252648c-4.56193 0-8.294418-3.7470335-8.294418-8.326741v-12.539031c0-4.5797075 3.732488-8.3267409 8.294418-8.3267409h117.488352c4.56193 0 8.294418 3.7470334 8.294418 8.3267409v12.539031c0 4.5797075-3.732488 8.326741-8.294418 8.326741z" fill="#f0f2f5" transform="matrix(0 1 -1 0 344.669645 -184.211629)"/><path d="m205.696461 94.8252648c-4.56193 0-8.294418-3.7470335-8.294418-8.326741v-12.539031c0-4.5797075 3.732488-8.3267409 8.294418-8.3267409h117.488352c4.56193 0 8.294418 3.7470334 8.294418 8.3267409v12.539031c0 4.5797075-3.732488 8.326741-8.294418 8.326741z" stroke="#a3b1bf" stroke-width="1.62" transform="matrix(0 1 -1 0 344.669645 -184.211629)"/><path d="m273.091198 22.5884924c0 .8264291-.667701 1.4967317-1.490922 1.4967317-.824257 0-1.491958-.6703026-1.491958-1.4967317 0-.826429.667701-1.4967317 1.491958-1.4967317.823221 0 1.490922.6703027 1.490922 1.4967317" fill="#fff" transform="matrix(0 1 -1 0 294.18825 -249.011266)"/><path d="m273.091198 22.5884924c0 .8264291-.667701 1.4967317-1.490922 1.4967317-.824257 0-1.491958-.6703026-1.491958-1.4967317 0-.826429.667701-1.4967317 1.491958-1.4967317.823221 0 1.490922.6703027 1.490922 1.4967317z" stroke="#a3b1bf" stroke-width=".81" transform="matrix(0 1 -1 0 294.18825 -249.011266)"/><path d="m273.091198 31.5121872c0 .826429-.667701 1.4967317-1.490922 1.4967317-.824257 0-1.491958-.6703027-1.491958-1.4967317s.667701-1.4967317 1.491958-1.4967317c.823221 0 1.490922.6703027 1.490922 1.4967317" fill="#fff" transform="matrix(0 1 -1 0 303.111945 -240.087571)"/><path d="m273.091198 31.5121872c0 .826429-.667701 1.4967317-1.490922 1.4967317-.824257 0-1.491958-.6703027-1.491958-1.4967317s.667701-1.4967317 1.491958-1.4967317c.823221 0 1.490922.6703027 1.490922 1.4967317z" stroke="#a3b1bf" stroke-width=".81" transform="matrix(0 1 -1 0 303.111945 -240.087571)"/><path d="m273.091198 40.435882c0 .826429-.667701 1.4967317-1.490922 1.4967317-.824257 0-1.491958-.6703027-1.491958-1.4967317s.667701-1.4967317 1.491958-1.4967317c.823221 0 1.490922.6703027 1.490922 1.4967317" fill="#fff" transform="matrix(0 1 -1 0 312.03564 -231.163876)"/><path d="m273.091198 40.435882c0 .826429-.667701 1.4967317-1.490922 1.4967317-.824257 0-1.491958-.6703027-1.491958-1.4967317s.667701-1.4967317 1.491958-1.4967317c.823221 0 1.490922.6703027 1.490922 1.4967317z" stroke="#a3b1bf" stroke-width=".81" transform="matrix(0 1 -1 0 312.03564 -231.163876)"/><path d="m273.091198 49.3595768c0 .826429-.667701 1.4967317-1.490922 1.4967317-.824257 0-1.491958-.6703027-1.491958-1.4967317 0-.8264291.667701-1.4967317 1.491958-1.4967317.823221 0 1.490922.6703026 1.490922 1.4967317" fill="#fff" transform="matrix(0 1 -1 0 320.959335 -222.240181)"/><path d="m273.091198 49.3595768c0 .826429-.667701 1.4967317-1.490922 1.4967317-.824257 0-1.491958-.6703027-1.491958-1.4967317 0-.8264291.667701-1.4967317 1.491958-1.4967317.823221 0 1.490922.6703026 1.490922 1.4967317z" stroke="#a3b1bf" stroke-width=".81" transform="matrix(0 1 -1 0 320.959335 -222.240181)"/><path d="m273.091198 58.2832715c0 .8264291-.667701 1.4967317-1.490922 1.4967317-.824257 0-1.491958-.6703026-1.491958-1.4967317 0-.826429.667701-1.4967316 1.491958-1.4967316.823221 0 1.490922.6703026 1.490922 1.4967316" fill="#fff" transform="matrix(0 1 -1 0 329.88303 -213.316486)"/><path d="m273.091198 58.2832715c0 .8264291-.667701 1.4967317-1.490922 1.4967317-.824257 0-1.491958-.6703026-1.491958-1.4967317 0-.826429.667701-1.4967316 1.491958-1.4967316.823221 0 1.490922.6703026 1.490922 1.4967316z" stroke="#a3b1bf" stroke-width=".81" transform="matrix(0 1 -1 0 329.88303 -213.316486)"/><path d="m271.600276 68.703698c-.824257 0-1.491958-.6703026-1.491958-1.4967317 0-.826429.667701-1.4967317 1.491958-1.4967317.823221 0 1.490922.6703027 1.490922 1.4967317 0 .8264291-.667701 1.4967317-1.490922 1.4967317z" fill="#fff" transform="matrix(0 1 -1 0 338.806724 -204.392792)"/><path d="m273.091198 67.2069663c0 .8264291-.667701 1.4967317-1.490922 1.4967317-.824257 0-1.491958-.6703026-1.491958-1.4967317 0-.826429.667701-1.4967317 1.491958-1.4967317.823221 0 1.490922.6703027 1.490922 1.4967317z" stroke="#a3b1bf" stroke-width=".81" transform="matrix(0 1 -1 0 338.806724 -204.392792)"/><path d="m258.534495 22.5884924c0 .8264291-.667701 1.4967317-1.490922 1.4967317-.824257 0-1.491958-.6703026-1.491958-1.4967317 0-.826429.667701-1.4967317 1.491958-1.4967317.823221 0 1.490922.6703027 1.490922 1.4967317" fill="#fff" transform="matrix(0 1 -1 0 279.631547 -234.454563)"/><path d="m258.534495 22.5884924c0 .8264291-.667701 1.4967317-1.490922 1.4967317-.824257 0-1.491958-.6703026-1.491958-1.4967317 0-.826429.667701-1.4967317 1.491958-1.4967317.823221 0 1.490922.6703027 1.490922 1.4967317z" stroke="#a3b1bf" stroke-width=".81" transform="matrix(0 1 -1 0 279.631547 -234.454563)"/><path d="m258.534495 31.5121872c0 .826429-.667701 1.4967317-1.490922 1.4967317-.824257 0-1.491958-.6703027-1.491958-1.4967317s.667701-1.4967317 1.491958-1.4967317c.823221 0 1.490922.6703027 1.490922 1.4967317" fill="#fff" transform="matrix(0 1 -1 0 288.555242 -225.530868)"/><path d="m258.534495 31.5121872c0 .826429-.667701 1.4967317-1.490922 1.4967317-.824257 0-1.491958-.6703027-1.491958-1.4967317s.667701-1.4967317 1.491958-1.4967317c.823221 0 1.490922.6703027 1.490922 1.4967317z" stroke="#a3b1bf" stroke-width=".81" transform="matrix(0 1 -1 0 288.555242 -225.530868)"/><path d="m258.534495 40.435882c0 .826429-.667701 1.4967317-1.490922 1.4967317-.824257 0-1.491958-.6703027-1.491958-1.4967317s.667701-1.4967317 1.491958-1.4967317c.823221 0 1.490922.6703027 1.490922 1.4967317" fill="#fff" transform="matrix(0 1 -1 0 297.478937 -216.607173)"/><path d="m258.534495 40.435882c0 .826429-.667701 1.4967317-1.490922 1.4967317-.824257 0-1.491958-.6703027-1.491958-1.4967317s.667701-1.4967317 1.491958-1.4967317c.823221 0 1.490922.6703027 1.490922 1.4967317z" stroke="#a3b1bf" stroke-width=".81" transform="matrix(0 1 -1 0 297.478937 -216.607173)"/><path d="m258.534495 49.3595768c0 .826429-.667701 1.4967317-1.490922 1.4967317-.824257 0-1.491958-.6703027-1.491958-1.4967317 0-.8264291.667701-1.4967317 1.491958-1.4967317.823221 0 1.490922.6703026 1.490922 1.4967317" fill="#fff" transform="matrix(0 1 -1 0 306.402632 -207.683478)"/><path d="m258.534495 49.3595768c0 .826429-.667701 1.4967317-1.490922 1.4967317-.824257 0-1.491958-.6703027-1.491958-1.4967317 0-.8264291.667701-1.4967317 1.491958-1.4967317.823221 0 1.490922.6703026 1.490922 1.4967317z" stroke="#a3b1bf" stroke-width=".81" transform="matrix(0 1 -1 0 306.402632 -207.683478)"/><path d="m258.534495 58.2832715c0 .8264291-.667701 1.4967317-1.490922 1.4967317-.824257 0-1.491958-.6703026-1.491958-1.4967317 0-.826429.667701-1.4967316 1.491958-1.4967316.823221 0 1.490922.6703026 1.490922 1.4967316" fill="#fff" transform="matrix(0 1 -1 0 315.326327 -198.759783)"/><path d="m258.534495 58.2832715c0 .8264291-.667701 1.4967317-1.490922 1.4967317-.824257 0-1.491958-.6703026-1.491958-1.4967317 0-.826429.667701-1.4967316 1.491958-1.4967316.823221 0 1.490922.6703026 1.490922 1.4967316z" stroke="#a3b1bf" stroke-width=".81" transform="matrix(0 1 -1 0 315.326327 -198.759783)"/><path d="m258.534495 67.2069663c0 .8264291-.667701 1.4967317-1.490922 1.4967317-.824257 0-1.491958-.6703026-1.491958-1.4967317 0-.826429.667701-1.4967317 1.491958-1.4967317.823221 0 1.490922.6703027 1.490922 1.4967317" fill="#fff" transform="matrix(0 1 -1 0 324.250021 -189.836089)"/><path d="m258.534495 67.2069663c0 .8264291-.667701 1.4967317-1.490922 1.4967317-.824257 0-1.491958-.6703026-1.491958-1.4967317 0-.826429.667701-1.4967317 1.491958-1.4967317.823221 0 1.490922.6703027 1.490922 1.4967317z" stroke="#a3b1bf" stroke-width=".81" transform="matrix(0 1 -1 0 324.250021 -189.836089)"/><path d="m265.812846 26.6447173c0 .8264291-.6677 1.4967317-1.490921 1.4967317-.824258 0-1.491958-.6703026-1.491958-1.4967317 0-.826429.6677-1.4967317 1.491958-1.4967317.823221 0 1.490921.6703027 1.490921 1.4967317" fill="#fff" transform="matrix(0 1 -1 0 290.966124 -237.67669)"/><path d="m265.812846 26.6447173c0 .8264291-.6677 1.4967317-1.490921 1.4967317-.824258 0-1.491958-.6703026-1.491958-1.4967317 0-.826429.6677-1.4967317 1.491958-1.4967317.823221 0 1.490921.6703027 1.490921 1.4967317z" stroke="#a3b1bf" stroke-width=".81" transform="matrix(0 1 -1 0 290.966124 -237.67669)"/><path d="m265.812846 35.5684121c0 .826429-.6677 1.4967317-1.490921 1.4967317-.824258 0-1.491958-.6703027-1.491958-1.4967317s.6677-1.4967317 1.491958-1.4967317c.823221 0 1.490921.6703027 1.490921 1.4967317" fill="#fff" transform="matrix(0 1 -1 0 299.889819 -228.752995)"/><path d="m265.812846 35.5684121c0 .826429-.6677 1.4967317-1.490921 1.4967317-.824258 0-1.491958-.6703027-1.491958-1.4967317s.6677-1.4967317 1.491958-1.4967317c.823221 0 1.490921.6703027 1.490921 1.4967317z" stroke="#a3b1bf" stroke-width=".81" transform="matrix(0 1 -1 0 299.889819 -228.752995)"/><path d="m265.812846 44.4921069c0 .826429-.6677 1.4967317-1.490921 1.4967317-.824258 0-1.491958-.6703027-1.491958-1.4967317s.6677-1.4967317 1.491958-1.4967317c.823221 0 1.490921.6703027 1.490921 1.4967317" fill="#fff" transform="matrix(0 1 -1 0 308.813514 -219.8293)"/><path d="m265.812846 44.4921069c0 .826429-.6677 1.4967317-1.490921 1.4967317-.824258 0-1.491958-.6703027-1.491958-1.4967317s.6677-1.4967317 1.491958-1.4967317c.823221 0 1.490921.6703027 1.490921 1.4967317z" stroke="#a3b1bf" stroke-width=".81" transform="matrix(0 1 -1 0 308.813514 -219.8293)"/><path d="m265.812846 53.4158017c0 .826429-.6677 1.4967316-1.490921 1.4967316-.824258 0-1.491958-.6703026-1.491958-1.4967316 0-.8264291.6677-1.4967317 1.491958-1.4967317.823221 0 1.490921.6703026 1.490921 1.4967317" fill="#fff" transform="matrix(0 1 -1 0 317.737209 -210.905605)"/><path d="m265.812846 53.4158017c0 .826429-.6677 1.4967316-1.490921 1.4967316-.824258 0-1.491958-.6703026-1.491958-1.4967316 0-.8264291.6677-1.4967317 1.491958-1.4967317.823221 0 1.490921.6703026 1.490921 1.4967317z" stroke="#a3b1bf" stroke-width=".81" transform="matrix(0 1 -1 0 317.737209 -210.905605)"/><path d="m265.812846 62.3394964c0 .8264291-.6677 1.4967317-1.490921 1.4967317-.824258 0-1.491958-.6703026-1.491958-1.4967317 0-.826429.6677-1.4967316 1.491958-1.4967316.823221 0 1.490921.6703026 1.490921 1.4967316" fill="#fff" transform="matrix(0 1 -1 0 326.660903 -201.981911)"/><path d="m265.812846 62.3394964c0 .8264291-.6677 1.4967317-1.490921 1.4967317-.824258 0-1.491958-.6703026-1.491958-1.4967317 0-.826429.6677-1.4967316 1.491958-1.4967316.823221 0 1.490921.6703026 1.490921 1.4967316z" stroke="#a3b1bf" stroke-width=".81" transform="matrix(0 1 -1 0 326.660903 -201.981911)"/><path d="m265.812846 71.2631912c0 .8264291-.6677 1.4967317-1.490921 1.4967317-.824258 0-1.491958-.6703026-1.491958-1.4967317 0-.826429.6677-1.4967317 1.491958-1.4967317.823221 0 1.490921.6703027 1.490921 1.4967317" fill="#fff" transform="matrix(0 1 -1 0 335.584598 -193.058216)"/><path d="m265.812846 71.2631912c0 .8264291-.6677 1.4967317-1.490921 1.4967317-.824258 0-1.491958-.6703026-1.491958-1.4967317 0-.826429.6677-1.4967317 1.491958-1.4967317.823221 0 1.490921.6703027 1.490921 1.4967317z" stroke="#a3b1bf" stroke-width=".81" transform="matrix(0 1 -1 0 335.584598 -193.058216)"/><path d="m263.92334 136.046978c-2.388792 0-4.325539-1.944294-4.325539-4.342396 0-2.398101 1.936747-4.342395 4.325539-4.342395s4.325539 1.944294 4.325539 4.342395c0 2.398102-1.936747 4.342396-4.325539 4.342396z" fill="#a3b1bf" transform="matrix(0 1 -1 0 395.627922 -132.218758)"/><path d="m170.113409 94.8252648c-4.56193 0-8.294418-3.7470335-8.294418-8.326741v-12.539031c0-4.5797075 3.732488-8.3267409 8.294418-8.3267409h117.488353c4.561929 0 8.294417 3.7470334 8.294417 8.3267409v12.539031c0 4.5797075-3.732488 8.326741-8.294417 8.326741z" fill="#f0f2f5" transform="matrix(0 1 -1 0 309.086593 -148.628577)"/><path d="m170.113409 94.8252648c-4.56193 0-8.294418-3.7470335-8.294418-8.326741v-12.539031c0-4.5797075 3.732488-8.3267409 8.294418-8.3267409h117.488353c4.561929 0 8.294417 3.7470334 8.294417 8.3267409v12.539031c0 4.5797075-3.732488 8.326741-8.294417 8.326741z" stroke="#a3b1bf" stroke-width="1.62" transform="matrix(0 1 -1 0 309.086593 -148.628577)"/><path d="m237.508146 22.5884924c0 .8264291-.6677 1.4967317-1.490921 1.4967317-.824258 0-1.491959-.6703026-1.491959-1.4967317 0-.826429.667701-1.4967317 1.491959-1.4967317.823221 0 1.490921.6703027 1.490921 1.4967317" transform="matrix(0 1 -1 0 258.605198 -213.428214)"/><path d="m237.508146 22.5884924c0 .8264291-.6677 1.4967317-1.490921 1.4967317-.824258 0-1.491959-.6703026-1.491959-1.4967317 0-.826429.667701-1.4967317 1.491959-1.4967317.823221 0 1.490921.6703027 1.490921 1.4967317z" stroke="#a3b1bf" stroke-width=".81" transform="matrix(0 1 -1 0 258.605198 -213.428214)"/><path d="m237.508146 31.5121872c0 .826429-.6677 1.4967317-1.490921 1.4967317-.824258 0-1.491959-.6703027-1.491959-1.4967317s.667701-1.4967317 1.491959-1.4967317c.823221 0 1.490921.6703027 1.490921 1.4967317" transform="matrix(0 1 -1 0 267.528893 -204.504519)"/><path d="m237.508146 31.5121872c0 .826429-.6677 1.4967317-1.490921 1.4967317-.824258 0-1.491959-.6703027-1.491959-1.4967317s.667701-1.4967317 1.491959-1.4967317c.823221 0 1.490921.6703027 1.490921 1.4967317z" stroke="#a3b1bf" stroke-width=".81" transform="matrix(0 1 -1 0 267.528893 -204.504519)"/><path d="m237.508146 40.435882c0 .826429-.6677 1.4967317-1.490921 1.4967317-.824258 0-1.491959-.6703027-1.491959-1.4967317s.667701-1.4967317 1.491959-1.4967317c.823221 0 1.490921.6703027 1.490921 1.4967317" transform="matrix(0 1 -1 0 276.452588 -195.580824)"/><path d="m237.508146 40.435882c0 .826429-.6677 1.4967317-1.490921 1.4967317-.824258 0-1.491959-.6703027-1.491959-1.4967317s.667701-1.4967317 1.491959-1.4967317c.823221 0 1.490921.6703027 1.490921 1.4967317z" stroke="#a3b1bf" stroke-width=".81" transform="matrix(0 1 -1 0 276.452588 -195.580824)"/><path d="m237.508146 49.3595768c0 .826429-.6677 1.4967317-1.490921 1.4967317-.824258 0-1.491959-.6703027-1.491959-1.4967317 0-.8264291.667701-1.4967317 1.491959-1.4967317.823221 0 1.490921.6703026 1.490921 1.4967317" transform="matrix(0 1 -1 0 285.376283 -186.657129)"/><path d="m237.508146 49.3595768c0 .826429-.6677 1.4967317-1.490921 1.4967317-.824258 0-1.491959-.6703027-1.491959-1.4967317 0-.8264291.667701-1.4967317 1.491959-1.4967317.823221 0 1.490921.6703026 1.490921 1.4967317z" stroke="#a3b1bf" stroke-width=".81" transform="matrix(0 1 -1 0 285.376283 -186.657129)"/><path d="m237.508146 58.2832715c0 .8264291-.6677 1.4967317-1.490921 1.4967317-.824258 0-1.491959-.6703026-1.491959-1.4967317 0-.826429.667701-1.4967316 1.491959-1.4967316.823221 0 1.490921.6703026 1.490921 1.4967316" transform="matrix(0 1 -1 0 294.299978 -177.733434)"/><path d="m237.508146 58.2832715c0 .8264291-.6677 1.4967317-1.490921 1.4967317-.824258 0-1.491959-.6703026-1.491959-1.4967317 0-.826429.667701-1.4967316 1.491959-1.4967316.823221 0 1.490921.6703026 1.490921 1.4967316z" stroke="#a3b1bf" stroke-opacity=".85" stroke-width=".81" transform="matrix(0 1 -1 0 294.299978 -177.733434)"/><path d="m237.508146 67.2069663c0 .8264291-.6677 1.4967317-1.490921 1.4967317-.824258 0-1.491959-.6703026-1.491959-1.4967317 0-.826429.667701-1.4967317 1.491959-1.4967317.823221 0 1.490921.6703027 1.490921 1.4967317" transform="matrix(0 1 -1 0 303.223672 -168.80974)"/><path d="m237.508146 67.2069663c0 .8264291-.6677 1.4967317-1.490921 1.4967317-.824258 0-1.491959-.6703026-1.491959-1.4967317 0-.826429.667701-1.4967317 1.491959-1.4967317.823221 0 1.490921.6703027 1.490921 1.4967317z" stroke="#a3b1bf" stroke-width=".81" transform="matrix(0 1 -1 0 303.223672 -168.80974)"/><path d="m223.760149 22.5884924c0 .8264291-.667701 1.4967317-1.490922 1.4967317-.824257 0-1.491958-.6703026-1.491958-1.4967317 0-.826429.667701-1.4967317 1.491958-1.4967317.823221 0 1.490922.6703027 1.490922 1.4967317" transform="matrix(0 1 -1 0 244.857201 -199.680217)"/><path d="m223.760149 22.5884924c0 .8264291-.667701 1.4967317-1.490922 1.4967317-.824257 0-1.491958-.6703026-1.491958-1.4967317 0-.826429.667701-1.4967317 1.491958-1.4967317.823221 0 1.490922.6703027 1.490922 1.4967317z" stroke="#a3b1bf" stroke-width=".81" transform="matrix(0 1 -1 0 244.857201 -199.680217)"/><path d="m223.760149 31.5121872c0 .826429-.667701 1.4967317-1.490922 1.4967317-.824257 0-1.491958-.6703027-1.491958-1.4967317s.667701-1.4967317 1.491958-1.4967317c.823221 0 1.490922.6703027 1.490922 1.4967317" transform="matrix(0 1 -1 0 253.780896 -190.756522)"/><path d="m223.760149 31.5121872c0 .826429-.667701 1.4967317-1.490922 1.4967317-.824257 0-1.491958-.6703027-1.491958-1.4967317s.667701-1.4967317 1.491958-1.4967317c.823221 0 1.490922.6703027 1.490922 1.4967317z" stroke="#a3b1bf" stroke-width=".81" transform="matrix(0 1 -1 0 253.780896 -190.756522)"/><path d="m223.760149 40.435882c0 .826429-.667701 1.4967317-1.490922 1.4967317-.824257 0-1.491958-.6703027-1.491958-1.4967317s.667701-1.4967317 1.491958-1.4967317c.823221 0 1.490922.6703027 1.490922 1.4967317" transform="matrix(0 1 -1 0 262.704591 -181.832827)"/><path d="m223.760149 40.435882c0 .826429-.667701 1.4967317-1.490922 1.4967317-.824257 0-1.491958-.6703027-1.491958-1.4967317s.667701-1.4967317 1.491958-1.4967317c.823221 0 1.490922.6703027 1.490922 1.4967317z" stroke="#a3b1bf" stroke-width=".81" transform="matrix(0 1 -1 0 262.704591 -181.832827)"/><path d="m223.760149 49.3595768c0 .826429-.667701 1.4967317-1.490922 1.4967317-.824257 0-1.491958-.6703027-1.491958-1.4967317 0-.8264291.667701-1.4967317 1.491958-1.4967317.823221 0 1.490922.6703026 1.490922 1.4967317" transform="matrix(0 1 -1 0 271.628286 -172.909132)"/><path d="m223.760149 49.3595768c0 .826429-.667701 1.4967317-1.490922 1.4967317-.824257 0-1.491958-.6703027-1.491958-1.4967317 0-.8264291.667701-1.4967317 1.491958-1.4967317.823221 0 1.490922.6703026 1.490922 1.4967317z" stroke="#a3b1bf" stroke-width=".81" transform="matrix(0 1 -1 0 271.628286 -172.909132)"/><path d="m223.760149 58.2832715c0 .8264291-.667701 1.4967317-1.490922 1.4967317-.824257 0-1.491958-.6703026-1.491958-1.4967317 0-.826429.667701-1.4967316 1.491958-1.4967316.823221 0 1.490922.6703026 1.490922 1.4967316" transform="matrix(0 1 -1 0 280.551981 -163.985437)"/><path d="m223.760149 58.2832715c0 .8264291-.667701 1.4967317-1.490922 1.4967317-.824257 0-1.491958-.6703026-1.491958-1.4967317 0-.826429.667701-1.4967316 1.491958-1.4967316.823221 0 1.490922.6703026 1.490922 1.4967316z" stroke="#a3b1bf" stroke-width=".81" transform="matrix(0 1 -1 0 280.551981 -163.985437)"/><path d="m223.760149 67.2069663c0 .8264291-.667701 1.4967317-1.490922 1.4967317-.824257 0-1.491958-.6703026-1.491958-1.4967317 0-.826429.667701-1.4967317 1.491958-1.4967317.823221 0 1.490922.6703027 1.490922 1.4967317" transform="matrix(0 1 -1 0 289.475675 -155.061743)"/><path d="m223.760149 67.2069663c0 .8264291-.667701 1.4967317-1.490922 1.4967317-.824257 0-1.491958-.6703026-1.491958-1.4967317 0-.826429.667701-1.4967317 1.491958-1.4967317.823221 0 1.490922.6703027 1.490922 1.4967317z" stroke="#a3b1bf" stroke-width=".81" transform="matrix(0 1 -1 0 289.475675 -155.061743)"/><path d="m230.229795 26.6447173c0 .8264291-.667701 1.4967317-1.490922 1.4967317-.824258 0-1.491958-.6703026-1.491958-1.4967317 0-.826429.6677-1.4967317 1.491958-1.4967317.823221 0 1.490922.6703027 1.490922 1.4967317" transform="matrix(0 1 -1 0 255.383072 -202.093638)"/><path d="m230.229795 26.6447173c0 .8264291-.667701 1.4967317-1.490922 1.4967317-.824258 0-1.491958-.6703026-1.491958-1.4967317 0-.826429.6677-1.4967317 1.491958-1.4967317.823221 0 1.490922.6703027 1.490922 1.4967317z" stroke="#a3b1bf" stroke-width=".81" transform="matrix(0 1 -1 0 255.383072 -202.093638)"/><path d="m230.229795 35.5684121c0 .826429-.667701 1.4967317-1.490922 1.4967317-.824258 0-1.491958-.6703027-1.491958-1.4967317s.6677-1.4967317 1.491958-1.4967317c.823221 0 1.490922.6703027 1.490922 1.4967317" transform="matrix(0 1 -1 0 264.306767 -193.169943)"/><path d="m230.229795 35.5684121c0 .826429-.667701 1.4967317-1.490922 1.4967317-.824258 0-1.491958-.6703027-1.491958-1.4967317s.6677-1.4967317 1.491958-1.4967317c.823221 0 1.490922.6703027 1.490922 1.4967317z" stroke="#a3b1bf" stroke-width=".81" transform="matrix(0 1 -1 0 264.306767 -193.169943)"/><path d="m230.229795 44.4921069c0 .826429-.667701 1.4967317-1.490922 1.4967317-.824258 0-1.491958-.6703027-1.491958-1.4967317s.6677-1.4967317 1.491958-1.4967317c.823221 0 1.490922.6703027 1.490922 1.4967317" transform="matrix(0 1 -1 0 273.230462 -184.246248)"/><path d="m230.229795 44.4921069c0 .826429-.667701 1.4967317-1.490922 1.4967317-.824258 0-1.491958-.6703027-1.491958-1.4967317s.6677-1.4967317 1.491958-1.4967317c.823221 0 1.490922.6703027 1.490922 1.4967317z" stroke="#a3b1bf" stroke-width=".81" transform="matrix(0 1 -1 0 273.230462 -184.246248)"/><path d="m230.229795 53.4158017c0 .826429-.667701 1.4967316-1.490922 1.4967316-.824258 0-1.491958-.6703026-1.491958-1.4967316 0-.8264291.6677-1.4967317 1.491958-1.4967317.823221 0 1.490922.6703026 1.490922 1.4967317" transform="matrix(0 1 -1 0 282.154157 -175.322553)"/><path d="m230.229795 53.4158017c0 .826429-.667701 1.4967316-1.490922 1.4967316-.824258 0-1.491958-.6703026-1.491958-1.4967316 0-.8264291.6677-1.4967317 1.491958-1.4967317.823221 0 1.490922.6703026 1.490922 1.4967317z" stroke="#a3b1bf" stroke-width=".81" transform="matrix(0 1 -1 0 282.154157 -175.322553)"/><path d="m230.229795 62.3394964c0 .8264291-.667701 1.4967317-1.490922 1.4967317-.824258 0-1.491958-.6703026-1.491958-1.4967317 0-.826429.6677-1.4967316 1.491958-1.4967316.823221 0 1.490922.6703026 1.490922 1.4967316" transform="matrix(0 1 -1 0 291.077851 -166.398859)"/><path d="m230.229795 62.3394964c0 .8264291-.667701 1.4967317-1.490922 1.4967317-.824258 0-1.491958-.6703026-1.491958-1.4967317 0-.826429.6677-1.4967316 1.491958-1.4967316.823221 0 1.490922.6703026 1.490922 1.4967316z" stroke="#a3b1bf" stroke-width=".81" transform="matrix(0 1 -1 0 291.077851 -166.398859)"/><path d="m230.229795 71.2631912c0 .8264291-.667701 1.4967317-1.490922 1.4967317-.824258 0-1.491958-.6703026-1.491958-1.4967317 0-.826429.6677-1.4967317 1.491958-1.4967317.823221 0 1.490922.6703027 1.490922 1.4967317" transform="matrix(0 1 -1 0 300.001546 -157.475164)"/><path d="m230.229795 71.2631912c0 .8264291-.667701 1.4967317-1.490922 1.4967317-.824258 0-1.491958-.6703026-1.491958-1.4967317 0-.826429.6677-1.4967317 1.491958-1.4967317.823221 0 1.490922.6703027 1.490922 1.4967317z" stroke="#a3b1bf" stroke-width=".81" transform="matrix(0 1 -1 0 300.001546 -157.475164)"/><path d="m233.474533 131.704582c0 2.398102-1.936747 4.342396-4.325539 4.342396s-4.325539-1.944294-4.325539-4.342396c0-2.398101 1.936747-4.342395 4.325539-4.342395s4.325539 1.944294 4.325539 4.342395h-6.664781" fill="#a3b1bf" transform="matrix(0 1 -1 0 360.853576 -97.444412)"/><path d="m116.93208 108.951605-3.9751-11.8874639c-1.451523-4.3423954.899944-9.0865561 5.224446-10.5437357 0 0 26.766126-9.0195929 40.149189-13.5293894 23.743787-8.0011318 71.231362-24.0033954 71.231362-24.0033954 4.325539-1.4571796 9.051283.9024106 10.502807 5.2437651l3.975099 11.8874636c1.451523 4.3423953-.898907 9.086556-5.224446 10.5437357l-111.380551 37.532785c-4.324502 1.457179-9.051283-.902411-10.502806-5.243765z" stroke="#a3b1bf" stroke-width="1.62" transform="matrix(0 1 -1 0 260.089977 -96.906987)"/><path d="m170.986678 36.9877796c-.780712.2633332-1.625706-.1582081-1.888017-.9430034-.262311-.7837545.158631-1.6320412.939343-1.8953744s1.625706.1592489 1.888017.9430034-.158631 1.633082-.939343 1.8953744z" transform="matrix(0 1 -1 0 206.080982 -134.9437)"/><path d="m170.986678 36.9877796c-.780712.2633332-1.625706-.1582081-1.888017-.9430034-.262311-.7837545.158631-1.6320412.939343-1.8953744s1.625706.1592489 1.888017.9430034-.158631 1.633082-.939343 1.8953744z" stroke="#a3b1bf" stroke-width=".81" transform="matrix(0 1 -1 0 206.080982 -134.9437)"/><path d="m174.352138 44.0161c.262311.7837545-.158631 1.633082-.939343 1.8953744-.780712.2633331-1.625706-.1582081-1.888017-.9430034-.262311-.7837545.158631-1.6320413.939343-1.8953744.780712-.2633332 1.625706.1592489 1.888017.9430034" transform="matrix(0 1 -1 0 217.430794 -128.446122)"/><path d="m173.412795 45.9114744c-.780712.2633331-1.625706-.1582081-1.888017-.9430034-.262311-.7837545.158631-1.6320413.939343-1.8953744.780712-.2633332 1.625706.1592489 1.888017.9430034s-.158631 1.633082-.939343 1.8953744z" stroke="#a3b1bf" stroke-width=".81" transform="matrix(0 1 -1 0 217.430794 -128.446122)"/><path d="m177.586961 52.1285498c.262311.7837545-.158631 1.633082-.939343 1.8953744-.780712.2633331-1.625706-.1582081-1.888017-.9430034-.262311-.7837545.158631-1.6320413.939343-1.8953744.780712-.2633332 1.625706.1592489 1.888017.9430034" transform="matrix(0 1 -1 0 228.778067 -123.568495)"/><path d="m176.647618 54.0239242c-.780712.2633331-1.625706-.1582081-1.888017-.9430034-.262311-.7837545.158631-1.6320413.939343-1.8953744.780712-.2633332 1.625706.1592489 1.888017.9430034s-.158631 1.633082-.939343 1.8953744z" stroke="#a3b1bf" stroke-width=".81" transform="matrix(0 1 -1 0 228.778067 -123.568495)"/><path d="m180.013078 61.0522445c.262311.7837545-.158631 1.6330821-.939343 1.8953744-.780712.2633332-1.625706-.158208-1.888017-.9430034-.262311-.7837545.158631-1.6320412.939343-1.8953744.780712-.2633331 1.625706.159249 1.888017.9430034" transform="matrix(0 1 -1 0 240.127879 -117.070917)"/><path d="m180.013078 61.0522445c.262311.7837545-.158631 1.6330821-.939343 1.8953744-.780712.2633332-1.625706-.158208-1.888017-.9430034-.262311-.7837545.158631-1.6320412.939343-1.8953744.780712-.2633331 1.625706.159249 1.888017.9430034z" stroke="#a3b1bf" stroke-width=".81" transform="matrix(0 1 -1 0 240.127879 -117.070917)"/><path d="m183.247901 69.1646943c.262311.7837545-.158631 1.6330821-.939343 1.8953744-.780712.2633332-1.625706-.158208-1.888017-.9430034-.262311-.7837545.158631-1.6320412.939343-1.8953744.780712-.2633331 1.625706.159249 1.888017.9430034" transform="matrix(0 1 -1 0 251.475152 -112.19329)"/><path d="m183.247901 69.1646943c.262311.7837545-.158631 1.6330821-.939343 1.8953744-.780712.2633332-1.625706-.158208-1.888017-.9430034-.262311-.7837545.158631-1.6320412.939343-1.8953744.780712-.2633331 1.625706.159249 1.888017.9430034z" stroke="#a3b1bf" stroke-width=".81" transform="matrix(0 1 -1 0 251.475152 -112.19329)"/><path d="m185.674018 78.0883891c.262311.7837545-.158631 1.6330821-.939343 1.8953744-.780712.2633332-1.625706-.1582081-1.888017-.9430034-.262311-.7837545.158631-1.6320412.939343-1.8953744s1.625706.1592489 1.888017.9430034" transform="matrix(0 1 -1 0 262.824963 -105.695713)"/><path d="m185.674018 78.0883891c.262311.7837545-.158631 1.6330821-.939343 1.8953744-.780712.2633332-1.625706-.1582081-1.888017-.9430034-.262311-.7837545.158631-1.6320412.939343-1.8953744s1.625706.1592489 1.888017.9430034z" stroke="#a3b1bf" stroke-width=".81" transform="matrix(0 1 -1 0 262.824963 -105.695713)"/><path d="m168.691198 39.9598751c.262311.7837545-.158631 1.633082-.939343 1.8953744-.780712.2633331-1.625706-.1582081-1.888017-.9430034-.262311-.7837545.158631-1.6320413.939343-1.8953744.780712-.2633332 1.625706.1592489 1.888017.9430034" transform="matrix(0 1 -1 0 207.713629 -126.841407)"/><path d="m156.962155 41.8552495c-.780712.2633331-1.625706-.1582081-1.888016-.9430034-.262311-.7837545.15863-1.6320413.939342-1.8953744.780712-.2633332 1.625706.1592489 1.888017.9430034s-.158631 1.633082-.939343 1.8953744z" stroke="#a3b1bf" stroke-width=".81" transform="matrix(0 1 -1 0 196.923929 -116.051707)"/><path d="m171.117315 48.0723249c.262311.7837545-.158631 1.633082-.939343 1.8953744-.780712.2633331-1.625706-.1582081-1.888017-.9430034-.262311-.7837545.158631-1.6320413.939343-1.8953744.780712-.2633332 1.625706.1592489 1.888017.9430034" transform="matrix(0 1 -1 0 218.252196 -121.155074)"/><path d="m160.327615 48.0723249c.262311.7837545-.15863 1.633082-.939342 1.8953744-.780713.2633331-1.625706-.1582081-1.888017-.9430034-.262311-.7837545.15863-1.6320413.939342-1.8953744.780713-.2633332 1.625706.1592489 1.888017.9430034z" stroke="#a3b1bf" stroke-width=".81" transform="matrix(0 1 -1 0 207.462497 -110.365375)"/><path d="m174.352138 56.9960196c.262311.7837545-.158631 1.6330821-.939343 1.8953744-.780712.2633332-1.625706-.158208-1.888017-.9430034-.262311-.7837545.158631-1.6320412.939343-1.8953744.780712-.2633331 1.625706.159249 1.888017.9430034" transform="matrix(0 1 -1 0 230.410714 -115.466202)"/><path d="m163.562438 56.9960196c.262311.7837545-.158631 1.6330821-.939343 1.8953744-.780712.2633332-1.625705-.158208-1.888016-.9430034-.262311-.7837545.15863-1.6320412.939342-1.8953744.780712-.2633331 1.625706.159249 1.888017.9430034z" stroke="#a3b1bf" stroke-width=".81" transform="matrix(0 1 -1 0 219.621014 -104.676502)"/><path d="m166.265081 65.1084694c.262311.7837545-.158631 1.6330821-.939343 1.8953744-.780712.2633332-1.625706-.158208-1.888017-.9430034-.262311-.7837545.158631-1.6320412.939343-1.8953744.780712-.2633331 1.625706.159249 1.888017.9430034" transform="matrix(0 1 -1 0 230.436107 -99.266695)"/><path d="m166.265081 65.1084694c.262311.7837545-.158631 1.6330821-.939343 1.8953744-.780712.2633332-1.625706-.158208-1.888017-.9430034-.262311-.7837545.158631-1.6320412.939343-1.8953744.780712-.2633331 1.625706.159249 1.888017.9430034z" stroke="#a3b1bf" stroke-width=".81" transform="matrix(0 1 -1 0 230.436107 -99.266695)"/><path d="m169.499903 74.0321642c.262311.7837545-.15863 1.6330821-.939342 1.8953744-.780712.2633332-1.625706-.1582081-1.888017-.9430034-.262311-.7837545.158631-1.6320412.939343-1.8953744s1.625705.1592489 1.888016.9430034" transform="matrix(0 1 -1 0 242.594624 -93.577824)"/><path d="m169.499903 74.0321642c.262311.7837545-.15863 1.6330821-.939342 1.8953744-.780712.2633332-1.625706-.1582081-1.888017-.9430034-.262311-.7837545.158631-1.6320412.939343-1.8953744s1.625705.1592489 1.888016.9430034z" stroke="#a3b1bf" stroke-width=".81" transform="matrix(0 1 -1 0 242.594624 -93.577824)"/><path d="m172.734726 82.144614c.262311.7837545-.15863 1.6330821-.939342 1.8953744-.780713.2633332-1.625706-.1582081-1.888017-.9430034-.262311-.7837545.15863-1.6320412.939343-1.8953744.780712-.2633332 1.625705.1592489 1.888016.9430034" transform="matrix(0 1 -1 0 253.941897 -88.700197)"/><path d="m172.734726 82.144614c.262311.7837545-.15863 1.6330821-.939342 1.8953744-.780713.2633332-1.625706-.1582081-1.888017-.9430034-.262311-.7837545.15863-1.6320412.939343-1.8953744.780712-.2633332 1.625705.1592489 1.888016.9430034z" stroke="#a3b1bf" stroke-width=".81" transform="matrix(0 1 -1 0 253.941897 -88.700197)"/><path d="m166.265081 41.582365c.262311.7837545-.158631 1.6330821-.939343 1.8953744-.780712.2633332-1.625706-.158208-1.888017-.9430034-.262311-.7837545.158631-1.6320412.939343-1.8953744s1.625706.1592489 1.888017.9430034" transform="matrix(0 1 -1 0 206.910002 -122.7928)"/><path d="m166.265081 41.582365c.262311.7837545-.158631 1.6330821-.939343 1.8953744-.780712.2633332-1.625706-.158208-1.888017-.9430034-.262311-.7837545.158631-1.6320412.939343-1.8953744s1.625706.1592489 1.888017.9430034z" stroke="#a3b1bf" stroke-width=".81" transform="matrix(0 1 -1 0 206.910002 -122.7928)"/><path d="m169.499903 50.5060598c.262311.7837545-.15863 1.6330821-.939342 1.8953744-.780712.2633332-1.625706-.1582081-1.888017-.9430034-.262311-.7837545.158631-1.6320412.939343-1.8953744s1.625705.1592489 1.888016.9430034" transform="matrix(0 1 -1 0 219.06852 -117.103928)"/><path d="m169.499903 50.5060598c.262311.7837545-.15863 1.6330821-.939342 1.8953744-.780712.2633332-1.625706-.1582081-1.888017-.9430034-.262311-.7837545.158631-1.6320412.939343-1.8953744s1.625705.1592489 1.888016.9430034z" stroke="#a3b1bf" stroke-opacity=".85" stroke-width=".81" transform="matrix(0 1 -1 0 219.06852 -117.103928)"/><path d="m171.926021 58.6185096c.262311.7837545-.158631 1.6330821-.939343 1.8953744-.780712.2633332-1.625706-.1582081-1.888017-.9430034-.262311-.7837545.158631-1.6320412.939343-1.8953744s1.625706.1592489 1.888017.9430034" transform="matrix(0 1 -1 0 229.607087 -111.417595)"/><path d="m171.926021 58.6185096c.262311.7837545-.158631 1.6330821-.939343 1.8953744-.780712.2633332-1.625706-.1582081-1.888017-.9430034-.262311-.7837545.158631-1.6320412.939343-1.8953744s1.625706.1592489 1.888017.9430034z" stroke="#a3b1bf" stroke-width=".81" transform="matrix(0 1 -1 0 229.607087 -111.417595)"/><path d="m175.160844 67.5422044c.26231.7837545-.158631 1.633082-.939343 1.8953744-.780712.2633332-1.625706-.1582081-1.888017-.9430034-.262311-.7837545.158631-1.6320412.939343-1.8953744s1.625706.1592489 1.888017.9430034" transform="matrix(0 1 -1 0 241.765605 -105.728723)"/><path d="m175.160844 67.5422044c.26231.7837545-.158631 1.633082-.939343 1.8953744-.780712.2633332-1.625706-.1582081-1.888017-.9430034-.262311-.7837545.158631-1.6320412.939343-1.8953744s1.625706.1592489 1.888017.9430034z" stroke="#a3b1bf" stroke-width=".81" transform="matrix(0 1 -1 0 241.765605 -105.728723)"/><path d="m177.586961 75.6546542c.262311.7837545-.158631 1.633082-.939343 1.8953744-.780712.2633332-1.625706-.1582081-1.888017-.9430034-.262311-.7837545.158631-1.6320412.939343-1.8953744s1.625706.1592489 1.888017.9430034" transform="matrix(0 1 -1 0 252.304171 -100.042391)"/><path d="m177.586961 75.6546542c.262311.7837545-.158631 1.633082-.939343 1.8953744-.780712.2633332-1.625706-.1582081-1.888017-.9430034-.262311-.7837545.158631-1.6320412.939343-1.8953744s1.625706.1592489 1.888017.9430034z" stroke="#a3b1bf" stroke-width=".81" transform="matrix(0 1 -1 0 252.304171 -100.042391)"/><path d="m180.821784 84.578349c.262311.7837545-.158631 1.633082-.939343 1.8953744-.780712.2633331-1.625706-.1582081-1.888017-.9430034-.262311-.7837545.158631-1.6320413.939343-1.8953744.780712-.2633332 1.625706.1592489 1.888017.9430034" transform="matrix(0 1 -1 0 264.462689 -94.353519)"/><path d="m180.821784 84.578349c.262311.7837545-.158631 1.633082-.939343 1.8953744-.780712.2633331-1.625706-.1582081-1.888017-.9430034-.262311-.7837545.158631-1.6320413.939343-1.8953744.780712-.2633332 1.625706.1592489 1.888017.9430034z" stroke="#a3b1bf" stroke-width=".81" transform="matrix(0 1 -1 0 264.462689 -94.353519)"/><path d="m199.285547 130.323988c.759976 2.2732-.459304 4.735834-2.724717 5.498772-2.264376.762937-4.716413-.461094-5.476389-2.735335-.761013-2.2732.459304-4.734793 2.72368-5.498771 2.265412-.762938 4.71745.462134 5.477426 2.735334" fill="#a3b1bf" transform="matrix(0 1 -1 0 326.890547 -63.479033)"/><path d="m192.77098 15.3911937-1.510621-2.6260459 1.510621-2.6260459h3.020205l1.510621 2.6260459-1.510621 2.6260459z" stroke="#a3b1bf" stroke-width=".81" transform="matrix(0 1 -1 0 207.04623 -181.515934)"/><path d="m262.319672 196.298824-1.510621-2.626046 1.510621-2.626046h3.020205l1.510621 2.626046-1.510621 2.626046z" transform="matrix(0 1 -1 0 457.502552 -70.156996)"/><path d="m262.319672 196.298824-1.510621-2.626046 1.510621-2.626046h3.020205l1.510621 2.626046-1.510621 2.626046z" stroke="#a3b1bf" stroke-width=".81" transform="matrix(0 1 -1 0 457.502552 -70.156996)"/><path d="m196.921299 45.214947 1.510621-2.626046h3.020205l1.510621 2.626046-1.510621 2.6260459h-3.020205z" stroke="#a3b1bf" stroke-width=".81" transform="matrix(0 1 -1 0 245.156969 -154.727075)"/><path d="m200.156122 35.4800072 1.510621-2.6260459h3.020205l1.510621 2.6260459-1.510621 2.6260459h-3.020205z" stroke="#a3b1bf" stroke-width=".81" transform="matrix(0 1 -1 0 238.656852 -167.696838)"/><path d="m28.7090531 149.674699h380.0916899" stroke="#a3b1bf" stroke-width="2.43"/><path d="m126.73696 157.381526h12.219943 11.62861 257.810877s-60.248577 47.052209-134.24515 44.212852c-73.996574-2.839358-98.257745-15.008033-116.857977-21.916498s-55.369811-9.722057-80.8812596-4.043342-48.1073031-18.253012-48.1073031-18.253012z" fill="#a3b1bf" fill-opacity=".25"/><ellipse cx="35.583052" cy="111.546185" fill="#a3b1bf" fill-opacity=".25" rx="35.583052" ry="35.694779" stroke="#a3b1bf" stroke-width="2.43"/><ellipse cx="35.85262" cy="111.8166" fill="#f0f2f5" rx="30.461249" ry="30.556894"/><path d="m39.6265804 107.895582 38.8178747 11.35743" stroke="#a3b1bf" stroke-width=".81"/><path d="m32.7525817 115.60241 33.1569347 25.148594" stroke="#a3b1bf" stroke-width=".81" transform="matrix(-1 0 0 -1 98.662098 256.353414)"/><g fill="#a3b1bf"><g transform="matrix(.94551858 .32556815 -.32556815 .94551858 51.47685 46.402821)"><path d="m42.7522815 72.4570067c0 3.3663408 2.574819 6.1055423 5.740363 6.1055423 3.1652128 0 5.7406941-2.7392015 5.7406941-6.1055423 0-3.3659887-2.5754813-6.1044859-5.7406941-6.1044859-3.165544 0-5.740363 2.7384972-5.740363 6.1044859m-2.561574 0c0-4.8671091 3.7241498-8.8285458 8.301937-8.8285458 4.5781182 0 8.3022681 3.9614367 8.3022681 8.8285458 0 4.8681655-3.7241499 8.8288979-8.3022681 8.8288979-4.5777872 0-8.301937-3.9607324-8.301937-8.8288979l14.0029795.9528014" fill-opacity=".4"/><path d="m37.9000472 72.2309321c0 5.925605 4.5330854 10.7465854 10.1049063 10.7465854 5.5724832 0 10.1052375-4.8209804 10.1052375-10.7465854 0-5.9252529-4.5327543-10.7458811-10.1052375-10.7458811-5.5718209 0-10.1049063 4.8206282-10.1049063 10.7458811m-2.5615741 0c0-7.4274297 5.6820852-13.4699411 12.6664804-13.4699411 6.9843953 0 12.6674738 6.0425114 12.6674738 13.4699411 0 7.4277818-5.6830785 13.4709974-12.6674738 13.4709974-6.9843952 0-12.6664804-6.0432156-12.6664804-13.4709974"/><path d="m1.80809546 66.1576486c0 2.6764754 1.98199765 4.8540143 4.41816088 4.8540143 2.43645277 0 4.41830566-2.1775389 4.41830566-4.8540143 0-2.6763164-1.98185289-4.8536963-4.41830566-4.8536963-2.43616323 0-4.41816088 2.1773799-4.41816088 4.8536963m-1.11999517 0c0-3.3548191 2.48437398-6.0840988 5.53815605-6.0840988 3.05378206 0 5.53859036 2.7292797 5.53859036 6.0840988 0 3.3549781-2.4848083 6.0845759-5.53859036 6.0845759-3.05378207 0-5.53815605-2.7295978-5.53815605-6.0845759"/><path d="m8.98009502 66.0939913 30.19948798-36.940661 48.7218935-5.0773293-43.2262311 44.7142322.8400612.9187011zm-3.6314352 3.289577 40.79942448 4.0357357c.8622465.0077468 1.4754878-.4538927 1.7331022-1.1239917l1.9542929 2.1363588 43.276562-44.7666992 14.9134866 37.8938707c.388077.9866618 1.287079 1.5803491 2.233099 1.5803491.311257 0 .62748-.0644394.933439-.2000085 1.232442-.548615 1.813234-2.0564258 1.298005-3.3663409l-23.6942289-60.20397769h3.9082547v7.35770839c0 .835599.6367511 1.5134448 1.4231703 1.5134448h14.6595149c.384766 0 .753969-.1658521 1.02251-.460583l7.599624-8.34437019c.525162.47044262 1.158271 1.26519484 1.363237 2.46524606.348673 2.04410132-.435759 5.75623153-6.152944 11.83642063-.556288.5905182-.556288 1.5490098 0 2.1402322.277482.2957872.642381.4436809 1.006286.4436809.364236 0 .728803-.1478937 1.006285-.4436809 5.322485-5.6601007 7.653265-10.5684088 6.928435-14.58900291-.667876-3.70755259-3.676137-5.12381021-3.80395-5.18226341-.542712-.24860216-1.174497-.11408938-1.585752.33733834l-7.986376 8.77009258h-12.6333685v-5.84426349h1.8026382c1.3360847 0 2.4191908-1.15216185 2.4191908-2.57264501 0-1.42083528-1.0831061-2.57299712-2.4191908-2.57299712h-12.1929733c-.8095978 0-1.5655536.43065218-2.0138953 1.14723205-.449335.71693201-.5307915 1.62471723-.2178794 2.41911733l6.4853916 16.47887224-49.105335 5.1171198-2.0623252-12.4236212c-.253972-.965182-1.1960193-1.5296427-2.1052854-1.257448-.9082727.2707862-1.4377397 1.2732937-1.1827744 2.23918l2.0398088 12.3408712-32.78026721 40.0988944c-.42019616.5134022-.53476501 1.2349119-.29602472 1.8669811.23774693.6331256.788737 1.0694118 1.42681265 1.1331469z"/></g><path d="m120.0928 133.044177s-2.83047 0-2.83047 1.216867c0 1.216868 10.917527 10.140562 10.917527 10.140562z"/><path d="m146.375736 133.044177s2.83047 0 2.83047 1.216867c0 1.216868-10.917528 10.140562-10.917528 10.140562z"/><path d="m114.922075 137.687235s-2.624366 1.060313-2.168519 2.188572c.455846 1.12826 13.921276 5.312388 13.921276 5.312388z"/><path d="m150.02854 138.516693s2.624366 1.06343 2.169856 2.19169-13.910139 5.300362-13.910139 5.300362z"/></g><path d="m74.4009265 59.626506c-1.4265598-.3577597-6.0311033-1.6694888-6.4696458.811245-.356074 2.0142285 2.5806464 8.0148817 5.6609401 8.9236951 6.8739986 2.0281124 14.5567028-.8112452 21.4307014 1.2168672 6.8739988 2.0281125 6.4770838-1.6150279 5.2565868-2.8393574-2.4261165-2.433735-22.6437598-7.3012049-25.8785825-8.1124499z" stroke="#a3b1bf" stroke-width="2.43"/><ellipse cx="382.267078" cy="111.951807" fill="#dce1e7" rx="35.583052" ry="35.694779" stroke="#a3b1bf" stroke-width="2.43"/><ellipse cx="382.536646" cy="112.222222" fill="#f0f2f5" rx="30.461249" ry="30.556894"/><path d="m364.90109 93.2931727c-1.33426.7480322-2.970407 2.5940411-4.487906 6.1459918-4.852235 11.3574295-3.639176 21.4979925-3.639176 21.4979925s1.617411-19.469881 8.087057-23.1204827" fill="#a3b1bf"/><path d="m408.39639 103.839357c-1.33426.748033-2.970407 2.594042-4.487907 6.145992-4.852234 11.35743-3.639175 21.497992-3.639175 21.497992s1.61741-19.46988 8.087057-23.120482" fill="#a3b1bf" transform="matrix(-1 0 0 -1 808.530914 235.322698)"/></g></svg>