<svg version="1.1"
  baseProfile="full"
  width="52" height="16"
  xmlns="http://www.w3.org/2000/svg">
  <svg width="16" height="16" x="5" y="0">
    <path d="M8 16c4.418 0 8-3.582 8-8s-3.582-8-8-8-8 3.582-8 8 3.582 8 8 8zM8 1.5c3.59 0 6.5 2.91 6.5 6.5s-2.91 6.5-6.5 6.5-6.5-2.91-6.5-6.5 2.91-6.5 6.5-6.5zM4 5c0 0.552 0.448 1 1 1s1-0.448 1-1-0.448-1-1-1-1 0.448-1 1zM10 5c0 0.552 0.448 1 1 1s1-0.448 1-1-0.448-1-1-1-1 0.448-1 1zM6 11h4v1h-4v-1z" fill="#afafaf" />
  </svg>
  <svg width="16" height="16" x="31" y="0">
    <path d="M8 16c4.418 0 8-3.582 8-8s-3.582-8-8-8-8 3.582-8 8 3.582 8 8 8zM8 1.5c3.59 0 6.5 2.91 6.5 6.5s-2.91 6.5-6.5 6.5-6.5-2.91-6.5-6.5 2.91-6.5 6.5-6.5zM4 5c0-0.552 0.448-1 1-1s1 0.448 1 1c0 0.552-0.448 1-1 1s-1-0.448-1-1zM10 5c0-0.552 0.448-1 1-1s1 0.448 1 1c0 0.552-0.448 1-1 1s-1-0.448-1-1zM11.002 9.801l1.286 0.772c-0.874 1.454-2.467 2.427-4.288 2.427s-3.413-0.973-4.288-2.427l1.286-0.772c0.612 1.018 1.727 1.699 3.002 1.699s2.389-0.681 3.002-1.699z" fill="#afafaf" />
  </svg>
</svg>