<svg class="icon" viewBox="0 0 1860 1024" xmlns="http://www.w3.org/2000/svg" width="90" height="45"><path d="M319.333 234c-35.2 7.6-93.2 36-121.6 59.2-78 64.8-117.6 172.4-99.2 269.6 11.6 62 36.8 110.4 79.2 152.8 30 29.6 66.8 54 76.8 50 3.6-1.2 26-28.4 49.6-60s45.6-58.4 49.2-60c3.2-1.2 18.8-4 34.4-5.6 34.8-3.6 59.2-14.8 81.2-36.8 22-22.4 33.6-47.6 35.6-77.6 1.6-22.4.8-24.4-8.8-31.2-14.4-9.2-20-24.4-14.4-39.6 5.2-15.6 14.8-22.4 31.2-22.8 27.2 0 40.8 28.8 26.4 56.4-3.2 6.4-5.2 15.2-4 18.8 3.6 11.2-4.4 52-14.8 74-22.4 48-71.6 83.2-124.4 88.8-14.4 1.6-28.8 4.8-31.6 7.6-13.2 10.4-75.6 98.8-73.6 104 4 9.6 42.4 16.4 92.8 16 55.6-.4 92.8-10 138-36.4 39.2-22.8 86.4-72.4 107.2-112 44.4-85.6 44.4-184.8.4-269.2-29.6-56.8-97.2-119.2-126.4-116.4-2.8 0-23.6 25.2-46.4 55.2-22.8 30.4-44.4 57.6-48 60.8-4 2.8-21.2 6.8-38.8 8.8-64.8 6.4-108.8 48.4-118 112.4-2.4 18-1.6 20 11.6 33.2 18 18 19.6 37.2 4.4 52-27.2 27.6-68.8-2.8-52.8-38.8 3.6-7.2 6.8-26 8-41.2 2.8-43.6 15.6-71.6 46.4-102.4 29.6-29.6 54-41.2 97.2-46.4l25.2-3.2 36.8-48c22.4-29.2 36.8-51.2 36-56-1.2-12-26-18.4-74.8-20.4-28-.8-51.6.4-70 4.4zm839.2 101.2c-2.8 1.6-5.2 15.2-6 32.8l-1.2 30-46 2.4V414c0 14 0 14 17.6 14 30.4 0 30.4 0 30.4 43.6 0 24.8-1.6 40.4-4.8 43.6-2.8 2.8-13.6 4.8-24 4.8h-19.2v27.6l46 2.4 1.2 39.6c.8 24.4-.8 44.4-3.6 51.2-4.8 11.6-21.6 23.2-33.2 23.2-8 0-15.2 13.6-11.6 22 3.2 9.2 34 6 48.8-4.8 24-18 28.4-30.4 28.4-79.2 0-31.6 1.6-46.4 5.2-49.2 2.8-2.4 13.2-4.8 22.8-5.6 17.2-1.2 18-2 19.2-14.4 1.2-12.8 1.2-12.8-16.8-12.8-26.4 0-30.4-6-30.4-45.6s3.6-45.6 28-47.2c17.2-1.2 18-2 18-13.2s-.8-12-18-13.2c-25.2-2-28-5.6-28-36.8 0-21.2-1.6-27.6-6.4-29.6-8-3.2-10.4-2.8-16.4.8zm131.6.4c-3.2 2-4.8 8.4-4 14.8l1.2 11.6h100l1.2-11.6c.8-6.4-.8-12.8-4-14.8-2.8-2-24-3.6-47.2-3.6-23.2 0-44.4 1.6-47.2 3.6zm-506 15.2c-1.6 1.2-2.8 7.6-2.8 14 0 8 2 11.2 7.2 11.2 3.6.4 47.2 0 96.8 0 109.2-.4 106.4-1.2 98 36-9.2 39.2-28 82.8-49.2 114-20.4 29.6-30 35.2-39.2 23.2-15.2-19.6-36.8-62.8-48.4-97.2-12-36-13.2-38-23.2-37.2-6 .4-12 2-13.2 3.2-8.4 8.4 27.2 97.6 55.2 138.4 8.8 12.8 16 26 16 28.8 0 6.4-47.2 42.4-72 55.2-10 4.8-30.4 12.8-46 17.6-24.8 7.6-28 10-29.2 19.2-.8 7.2.8 11.6 5.6 13.6 19.2 7.2 95.6-25.6 139.2-60.8l27.6-22 14.4 12.4c37.2 31.2 109.2 71.2 128.8 71.6 5.6 0 11.2-10.4 11.6-21.2 0-1.6-15.6-10-34.4-18.8-34-15.6-76.8-43.6-90.8-59.2-7.2-8-6.8-8.8 11.2-33.6 34.8-46.8 58.4-102 68.4-159.6 9.6-56.4 20.4-51.6-114-51.6-63.2 0-116.4 1.2-117.6 2.8zm742.8 6.8c-1.2 5.6-1.2 12 .4 14 1.6 2.8 35.6 4.4 100 4.4 86.4 0 97.6-.8 99.6-6.4 1.6-3.6 1.6-10 .4-14-2.4-7.2-8.4-7.6-100-7.6h-98l-2.4 9.6zm-279.6 43.2c-1.2 2.8-1.6 69.2-1.2 147.2l1.2 142 58 1.2c33.6.8 64.4-.4 72.8-3.2 19.2-5.6 37.6-21.2 47.6-40.4 7.2-14.4 7.6-22.8 6.8-132.4l-1.2-117.2-91.2-1.2c-70.8-.8-91.6 0-92.8 4zm153.999 71.2c0 26.4-1.6 44-4 44-36.8 1.2-112.8 0-116-2-4.4-2.8-5.6-79.2-1.2-83.2 1.2-1.6 29.2-2.8 62-2.8h59.2v44zm1.601 82.4c1.2 3.6 2.4 19.6 2.4 36 0 60-14.8 72.4-85.2 70.4l-42.8-1.2v-53.2c0-29.2 1.2-54.4 2.8-55.6 1.2-1.6 29.2-2.8 61.6-2.8 50 0 59.2.8 61.2 6.4zm81.199-79.6c-5.6 1.6-6.8 5.2-6 14.4l1.2 12.8 50 2c40.8 1.6 50 3.2 51.2 8.4.4 3.2-13.2 32.4-31.2 64.4-17.6 32-32 63.2-32 68.8 0 15.6 10.4 33.6 24 40.4 9.2 4.8 29.2 6 103.2 6 94.4 0 100.8-1.2 100.8-16.8 0-7.2-38.4-87.2-42-87.2-6.4 0-22 10.4-22 14.4 0 3.2 4.8 15.2 10.8 27.2 16.8 34.8 16.8 34.8-65.2 33.6-95.2-1.6-92.8 2.8-45.2-81.2 20-35.2 39.2-67.2 42.4-70.8 5.6-6 16-7.2 78.8-8l72.4-1.2 1.2-11.6c.8-6.4-.8-12.8-4-14.8-5.2-3.6-275.2-4-288.4-.8z" fill="#01A0FF"/></svg>