<?xml version="1.0" standalone="no"?><!DOCTYPE svg PUBLIC "-//W3C//DTD SVG 1.1//EN" "http://www.w3.org/Graphics/SVG/1.1/DTD/svg11.dtd"><svg t="1521703844620" class="icon" style="" viewBox="0 0 1024 1024" version="1.1" xmlns="http://www.w3.org/2000/svg" p-id="1063" xmlns:xlink="http://www.w3.org/1999/xlink" width="200" height="200"><defs><style type="text/css"></style></defs><path d="M896 840.533333H128c-29.866667 0-55.466667-25.6-55.466667-55.466666V238.933333c0-29.866667 25.6-55.466667 55.466667-55.466666h768c29.866667 0 55.466667 25.6 55.466667 55.466666v546.133334c0 29.866667-25.6 55.466667-55.466667 55.466666zM836.266667 298.666667c-12.8-12.8-29.866667-12.8-38.4 0l-93.866667 93.866666-132.266667 132.266667c-12.8 12.8-34.133333 21.333333-55.466666 21.333333s-38.4-8.533333-51.2-21.333333L277.333333 349.866667 230.4 298.666667c-12.8-8.533333-29.866667-8.533333-42.666667 0-12.8 12.8-12.8 29.866667 0 38.4L362.666667 512l-174.933334 174.933333c-12.8 12.8-12.8 29.866667 0 38.4 12.8 12.8 29.866667 12.8 38.4 0l174.933334-174.933333 46.933333 46.933333 8.533333 8.533334 4.266667 4.266666c12.8 12.8 29.866667 17.066667 51.2 17.066667s42.666667-8.533333 59.733333-25.6l51.2-51.2 174.933334 174.933333c12.8 12.8 29.866667 12.8 38.4 0 12.8-12.8 12.8-29.866667 0-38.4L657.066667 512l174.933333-174.933333c12.8-8.533333 12.8-25.6 4.266667-38.4z m0 0" p-id="1064" fill="#ffbf00"></path></svg>