<?xml version="1.0" encoding="UTF-8" standalone="no"?><!DOCTYPE svg PUBLIC "-//W3C//DTD SVG 1.1//EN" "http://www.w3.org/Graphics/SVG/1.1/DTD/svg11.dtd"><svg width="100%" height="100%" viewBox="0 0 2144 877" version="1.1" xmlns="http://www.w3.org/2000/svg" xmlns:xlink="http://www.w3.org/1999/xlink" xml:space="preserve" xmlns:serif="http://www.serif.com/" style="fill-rule:evenodd;clip-rule:evenodd;stroke-linejoin:round;stroke-miterlimit:2;"><path d="M1028.16,339.331c148.249,0 268.609,120.36 268.609,268.609c-0,148.249 -120.36,268.608 -268.609,268.608c-148.249,0 -268.608,-120.359 -268.608,-268.608c-0,-148.249 120.359,-268.609 268.608,-268.609Zm0,119.152c82.488,0 149.457,66.969 149.457,149.457c-0,82.487 -66.969,149.456 -149.457,149.456c-82.487,0 -149.456,-66.969 -149.456,-149.456c-0,-82.488 66.969,-149.457 149.456,-149.457Z" style="fill:url(#_Linear1);"/><path d="M1874.58,339.331c148.249,0 268.608,120.36 268.608,268.609c0,148.249 -120.359,268.608 -268.608,268.608c-148.249,0 -268.609,-120.359 -268.609,-268.608c0,-148.249 120.36,-268.609 268.609,-268.609Zm-0,119.152c82.487,0 149.456,66.969 149.456,149.457c0,82.487 -66.969,149.456 -149.456,149.456c-82.488,0 -149.457,-66.969 -149.457,-149.456c0,-82.488 66.969,-149.457 149.457,-149.457Z" style="fill:url(#_Linear2);"/><path d="M1309.27,377.585c-0,-10.083 -7.222,-18.719 -17.146,-20.504c-19.618,-3.528 -51.9,-9.334 -74.172,-13.34c-6.073,-1.092 -12.318,0.564 -17.052,4.522c-4.734,3.959 -7.469,9.812 -7.469,15.983c-0,91.374 -0,407.153 -0,491.469c-0,5.525 2.195,10.824 6.102,14.731c3.907,3.907 9.206,6.102 14.731,6.102c20.987,0 53.186,0 74.173,0c5.525,0 10.824,-2.195 14.731,-6.102c3.907,-3.907 6.102,-9.206 6.102,-14.731c-0,-84.425 -0,-400.286 -0,-478.13Z" style="fill:url(#_Linear3);"/><path d="M1542.59,72.033c0,-8.288 -3.292,-16.237 -9.153,-22.097c-5.86,-5.861 -13.809,-9.153 -22.097,-9.153c-23.867,-0 -56.609,-0 -80.477,-0c-8.288,-0 -16.236,3.292 -22.097,9.153c-5.86,5.86 -9.153,13.809 -9.153,22.097c0,131.79 0,641.475 0,773.265c0,8.288 3.293,16.237 9.153,22.097c5.861,5.861 13.809,9.153 22.097,9.153c23.868,0 56.61,0 80.477,0c8.288,0 16.237,-3.292 22.097,-9.153c5.861,-5.86 9.153,-13.809 9.153,-22.097c0,-131.79 0,-641.475 0,-773.265Z" style="fill:url(#_Linear4);fill-rule:nonzero;"/><g><path d="M506.409,822.063c-0,13.815 5.494,27.062 15.271,36.821c9.777,9.76 23.034,15.23 36.848,15.206c18.674,-0.034 39.711,-0.072 58.369,-0.105c28.696,-0.052 51.932,-23.329 51.932,-52.026l0,-769.586c0,-13.798 -5.481,-27.031 -15.238,-36.788c-9.756,-9.757 -22.99,-15.238 -36.788,-15.238l-58.368,-0c-13.798,-0 -27.031,5.481 -36.788,15.238c-9.757,9.757 -15.238,22.99 -15.238,36.788c-0,155.286 -0,614.283 -0,769.69Z" style="fill:url(#_Linear5);fill-rule:nonzero;"/><path d="M616.746,322.662c13.813,0 27.061,5.487 36.829,15.255c9.767,9.768 15.254,23.015 15.254,36.829c0,105.185 0,341.877 0,447.062c0,13.814 -5.487,27.061 -15.254,36.829c-9.768,9.767 -23.016,15.255 -36.829,15.255c-18.632,-0 -39.622,-0 -58.254,-0c-13.813,-0 -27.061,-5.488 -36.828,-15.255c-9.768,-9.768 -15.255,-23.015 -15.255,-36.829c-0,-68.223 -0,-187.159 -0,-255.383c-0,-13.813 -5.487,-27.061 -15.255,-36.828c-9.767,-9.768 -23.015,-15.255 -36.828,-15.255c-129.249,-0 -454.326,-0 -454.326,-0l0,-191.68l616.746,0Z" style="fill:#0051b0;fill-rule:nonzero;"/><path d="M-0,822.101c0,13.817 5.497,27.067 15.277,36.827c9.781,9.76 23.043,15.229 36.86,15.199c18.675,-0.04 39.713,-0.085 58.368,-0.124c28.69,-0.062 51.916,-23.337 51.916,-52.027c-0,-155.205 -0,-614.509 -0,-769.714c-0,-28.69 -23.226,-51.965 -51.916,-52.026c-18.655,-0.04 -39.693,-0.085 -58.368,-0.125c-13.817,-0.029 -27.079,5.439 -36.86,15.199c-9.78,9.76 -15.277,23.01 -15.277,36.827l-0,769.964Z" style="fill:url(#_Linear6);fill-rule:nonzero;"/></g><defs><linearGradient id="_Linear1" x1="0" y1="0" x2="1" y2="0" gradientUnits="userSpaceOnUse" gradientTransform="matrix(5.19814e-14,-848.921,848.921,5.19814e-14,1308.8,875.397)"><stop offset="0" style="stop-color:#0050b5;stop-opacity:1"/><stop offset="1" style="stop-color:#0b87fd;stop-opacity:1"/></linearGradient><linearGradient id="_Linear2" x1="0" y1="0" x2="1" y2="0" gradientUnits="userSpaceOnUse" gradientTransform="matrix(5.19814e-14,-848.921,848.921,5.19814e-14,1308.8,875.397)"><stop offset="0" style="stop-color:#0050b5;stop-opacity:1"/><stop offset="1" style="stop-color:#0b87fd;stop-opacity:1"/></linearGradient><linearGradient id="_Linear3" x1="0" y1="0" x2="1" y2="0" gradientUnits="userSpaceOnUse" gradientTransform="matrix(5.19814e-14,-848.921,848.921,5.19814e-14,1308.8,875.397)"><stop offset="0" style="stop-color:#0050b5;stop-opacity:1"/><stop offset="1" style="stop-color:#0b87fd;stop-opacity:1"/></linearGradient><linearGradient id="_Linear4" x1="0" y1="0" x2="1" y2="0" gradientUnits="userSpaceOnUse" gradientTransform="matrix(5.19814e-14,-848.921,848.921,5.19814e-14,1308.8,875.397)"><stop offset="0" style="stop-color:#0050b5;stop-opacity:1"/><stop offset="1" style="stop-color:#0b87fd;stop-opacity:1"/></linearGradient><linearGradient id="_Linear5" x1="0" y1="0" x2="1" y2="0" gradientUnits="userSpaceOnUse" gradientTransform="matrix(-3.91885e-13,472.459,-473.895,-3.90698e-13,587.619,-0.861651)"><stop offset="0" style="stop-color:#0048af;stop-opacity:1"/><stop offset="1" style="stop-color:#003580;stop-opacity:1"/></linearGradient><linearGradient id="_Linear6" x1="0" y1="0" x2="1" y2="0" gradientUnits="userSpaceOnUse" gradientTransform="matrix(5.51848e-14,898.506,-901.236,5.50176e-14,162.421,-12.1337)"><stop offset="0" style="stop-color:#0b89ff;stop-opacity:1"/><stop offset="1" style="stop-color:#004eb2;stop-opacity:1"/></linearGradient></defs></svg>