<svg clip-rule="evenodd" fill-rule="evenodd" stroke-linejoin="round" stroke-miterlimit="2" viewBox="0 0 2144 877" xmlns="http://www.w3.org/2000/svg" xmlns:xlink="http://www.w3.org/1999/xlink"><linearGradient id="a" gradientTransform="matrix(0 -848.921 848.921 0 1308.8 875.397)" gradientUnits="userSpaceOnUse" x1="0" x2="1" y1="0" y2="0"><stop offset="0" stop-color="#0050b5"/><stop offset="1" stop-color="#0b87fd"/></linearGradient><linearGradient id="b" gradientTransform="matrix(0 472.459 -473.895 0 587.619 -.861651)" gradientUnits="userSpaceOnUse" x1="0" x2="1" y1="0" y2="0"><stop offset="0" stop-color="#0048af"/><stop offset="1" stop-color="#003580"/></linearGradient><linearGradient id="c" gradientTransform="matrix(0 898.506 -901.236 0 162.421 -12.1337)" gradientUnits="userSpaceOnUse" x1="0" x2="1" y1="0" y2="0"><stop offset="0" stop-color="#0b89ff"/><stop offset="1" stop-color="#004eb2"/></linearGradient><g fill="url(#a)"><path d="m1028.16 339.331c148.249 0 268.609 120.36 268.609 268.609s-120.36 268.608-268.609 268.608-268.608-120.359-268.608-268.608 120.359-268.609 268.608-268.609zm0 119.152c82.488 0 149.457 66.969 149.457 149.457 0 82.487-66.969 149.456-149.457 149.456-82.487 0-149.456-66.969-149.456-149.456 0-82.488 66.969-149.457 149.456-149.457z"/><path d="m1874.58 339.331c148.249 0 268.608 120.36 268.608 268.609s-120.359 268.608-268.608 268.608-268.609-120.359-268.609-268.608 120.36-268.609 268.609-268.609zm0 119.152c82.487 0 149.456 66.969 149.456 149.457 0 82.487-66.969 149.456-149.456 149.456-82.488 0-149.457-66.969-149.457-149.456 0-82.488 66.969-149.457 149.457-149.457z"/><path d="m1309.27 377.585c0-10.083-7.222-18.719-17.146-20.504-19.618-3.528-51.9-9.334-74.172-13.34-6.073-1.092-12.318.564-17.052 4.522-4.734 3.959-7.469 9.812-7.469 15.983v491.469c0 5.525 2.195 10.824 6.102 14.731s9.206 6.102 14.731 6.102h74.173c5.525 0 10.824-2.195 14.731-6.102s6.102-9.206 6.102-14.731c0-84.425 0-400.286 0-478.13z"/><path d="m1542.59 72.033c0-8.288-3.292-16.237-9.153-22.097-5.86-5.861-13.809-9.153-22.097-9.153-23.867 0-56.609 0-80.477 0-8.288 0-16.236 3.292-22.097 9.153-5.86 5.86-9.153 13.809-9.153 22.097v773.265c0 8.288 3.293 16.237 9.153 22.097 5.861 5.861 13.809 9.153 22.097 9.153h80.477c8.288 0 16.237-3.292 22.097-9.153 5.861-5.86 9.153-13.809 9.153-22.097 0-131.79 0-641.475 0-773.265z" fill-rule="nonzero"/></g><path d="m506.409 822.063c0 13.815 5.494 27.062 15.271 36.821 9.777 9.76 23.034 15.23 36.848 15.206 18.674-.034 39.711-.072 58.369-.105 28.696-.052 51.932-23.329 51.932-52.026v-769.586c0-13.798-5.481-27.031-15.238-36.788-9.756-9.757-22.99-15.238-36.788-15.238h-58.368c-13.798 0-27.031 5.481-36.788 15.238s-15.238 22.99-15.238 36.788z" fill="url(#b)" fill-rule="nonzero"/><path d="m616.746 322.662c13.813 0 27.061 5.487 36.829 15.255 9.767 9.768 15.254 23.015 15.254 36.829v447.062c0 13.814-5.487 27.061-15.254 36.829-9.768 9.767-23.016 15.255-36.829 15.255-18.632 0-39.622 0-58.254 0-13.813 0-27.061-5.488-36.828-15.255-9.768-9.768-15.255-23.015-15.255-36.829 0-68.223 0-187.159 0-255.383 0-13.813-5.487-27.061-15.255-36.828-9.767-9.768-23.015-15.255-36.828-15.255-129.249 0-454.326 0-454.326 0v-191.68z" fill="#0051b0" fill-rule="nonzero"/><path d="m0 822.101c0 13.817 5.497 27.067 15.277 36.827 9.781 9.76 23.043 15.229 36.86 15.199 18.675-.04 39.713-.085 58.368-.124 28.69-.062 51.916-23.337 51.916-52.027 0-155.205 0-614.509 0-769.714 0-28.69-23.226-51.965-51.916-52.026-18.655-.04-39.693-.085-58.368-.125-13.817-.029-27.079 5.439-36.86 15.199-9.78 9.76-15.277 23.01-15.277 36.827v769.964z" fill="url(#c)" fill-rule="nonzero"/></svg>