<svg xmlns="http://www.w3.org/2000/svg" width="48" height="48" class="icon" viewBox="0 0 1024 1024"><path d="M141 77.8c-7.4 1.8-11.2 3.8-26.8 14.2-12.4 8.4-21.6 18.8-31.6 37L77 139l-.6 359c-.4 254.4.2 361.6 1.6 367.8 3.6 14.4 20.6 36.8 35.8 47.6 7.2 5 16.2 10.4 19.6 12 5.4 2.2 67.6 2.6 371.2 2.2l364.6-.6 11.8-7c15-9 30-24 39-39l7-11.8.6-362.6c.4-297 0-363.8-2.2-370-1.4-4.2-6.8-14-11.8-22-7.6-11.4-12.4-16.2-24.4-24.4-8.4-5.6-19-11-23.8-12.2-9.8-2.2-715-2.4-724.4-.2zM292.2 196c16 5.4 25.4 11.6 35.6 23.4 26.4 30.6 27.6 63.4 3.8 98-6.4 9.4-25.2 23.2-38.2 28-12.8 4.6-40.2 4.2-51.8-.8-43-19.2-62.8-64.6-45-103.4 18-39 57.8-57.8 95.6-45.2zm403 200c20.2 3.4 26 5.4 38.6 12.6 33.6 19.2 48.2 39.2 60 82.4 6.8 24.4 8 51 8.4 175.2.2 130.2.4 128.2-11.2 133.4-3.6 1.6-20.4 2.4-53.6 2.4-44.6 0-49-.4-54.8-4-3.6-2.2-7-6-7.6-8.4-.6-2.6-1.4-52.8-1.6-111.6-.6-101.2-1-107.8-4.8-121.4-7-24.6-19.6-41-38.2-49.8-17.2-8.2-47.8-4.8-66.8 7.4-18.6 12-31.4 33-35.6 58-1.2 7.6-2 53.8-2 113.4 0 109.2 0 109-11 114-3.6 1.6-20.6 2.4-54.8 2.4-47 0-50-.2-54.8-4-3-2.4-6-7-6.8-10.6-.8-3.6-1.2-90.4-.6-193l1-186.8 5.6-4.8c5.6-4.8 5.8-4.8 53.4-4.8 31.2 0 49.6.8 52.8 2.2 6 2.8 8.6 9 10.4 24.8 2.4 23 11.8 25.2 28.4 7 11.8-12.8 29.6-25.2 44.4-30.8 25.2-9.4 64.4-11.4 101.2-5.2zm-374.4 4c12 4.6 11.4-6.4 11.4 201 .2 180.8 0 189.6-3.6 193.4-2 2.2-5.8 4.8-8.4 5.8-2.6 1.2-26.2 2-52.6 2-51.8 0-56.6-1-61.4-11.6-1.6-3.4-2.2-61.4-2.2-190.8 0-170.4.2-186.6 3.4-191.8 1.8-3.2 5.2-6.6 7.4-7.8 5.4-2.6 99.2-2.8 106-.2z"/></svg>