<svg xmlns="http://www.w3.org/2000/svg" width="48" height="48" class="icon" viewBox="0 0 1024 1024"><path d="M123.4 80.2c-10.6 5.6-39.2 35-43.6 44.8-3.6 7.6-3.8 23.6-3.8 377.6 0 327.2.4 370.4 3 376.8 3.6 8.4 35 40.4 45.2 45.8 6.6 3.6 19.8 3.8 377.8 3.8h371l9.4-5.6c12.2-7 34-28.8 41-41l5.6-9.4V502c0-359.2-.2-371.2-3.8-378-5.2-9.8-37.8-41.6-46.2-45.2-6-2.4-58.2-2.8-377.4-2.8-367.4.2-370.6.2-378.2 4.2zm675 164.6c2 2.2 4.2 7.4 5 11.2 1.8 9.2-3.4 44-13.2 90-4.4 20.4-9.4 48.4-11.2 62.2-2.2 18.2-5.2 31.8-11 48-5.4 16-8.4 28.8-9.8 43.2-1.4 13.8-4.6 27.8-10 44s-8.8 31.6-11 48.6c-1.6 13.8-6.8 42-11.2 62.6-4.4 20.8-9.4 48.8-11 62.6-3.2 26.8-5.6 33.6-15 41.6-12.6 10.6-20.4 9.6-38.4-4.8-7-5.6-18.4-14-25.6-19-30.4-20.8-54.4-38.4-70.2-51.4-13.2-10.8-36.2-23.6-42.4-23.6-9 0-26.6 11.6-54 35.4-38 33.2-47.2 37.4-59.4 27.4-8.4-7.2-11.2-13.2-15.8-34.6-2.6-11.4-6.8-23-11-30.8-4.6-8-8.2-18.4-10.2-28.4-1.6-8.8-6-22.4-9.8-30.2-3.8-7.8-7.4-17.4-8.2-21-2.8-14.6-7.4-25.4-12.6-30.4-7.6-7.2-32.2-18.2-52.4-23.4-9.4-2.4-22.4-7.4-28.8-11.2-6.4-3.8-16.8-8.2-23-9.6-14.2-3.4-22.8-7.6-27.8-14.2-10.6-13.6-6.4-27 10-32 5.6-1.6 14.4-5.6 19.4-8.8 5-3.2 15.8-7.8 24-9.8 8-2.2 17-5.8 20-8 9-6.6 17-10 33.6-14.2 8.8-2.2 22.4-6.8 30-10.2 7.8-3.2 21.2-7.8 29.8-10.2 8.8-2.2 21.6-7.6 28.8-11.8 7.2-4.2 18-8.6 24-10 6-1.4 16-5.6 22-9.2 6-3.6 18.6-8.8 28-11.4 9.4-2.8 24.2-7.8 33-11.4 8.8-3.6 22.8-8.2 31-10.2 8.2-2.2 20-7 26-10.6 6-3.8 16.8-8.4 24-10.2 7.2-2 18-6.6 24-10.2 6-3.8 19-9 28.8-11.8 9.8-2.8 24-7.8 31.8-11 7.6-3.4 21.2-8 30.2-10.2 9-2.2 21.2-7.2 27.4-11 6.2-4 17.6-8.8 25-10.8 7.6-2 16.6-4.6 19.8-5.6 7.6-2.6 13-1.2 17.4 4.4z"/><path d="M645.6 360.8c-23.4 12.6-33 18.2-37.6 22.4-2.8 2.6-11 8-18.4 12.2-33.6 19.2-63.4 37.8-83.6 52.2-6 4.4-16 10.4-22 13.4s-13.6 7.6-17 10c-3.2 2.6-11.2 7-17.6 10-6.2 3-14 7.4-17 10-3 2.6-11 7.8-17.6 11.8-11.4 6.6-23 18.4-28.4 28.6-3.6 6.6-2.8 19.2 1.6 30.6 2.2 5.6 6.8 23 10 38.6 6.8 31.8 9.6 38 17.4 37 8-1 12.2-8.6 18.4-34.2 3.6-14.8 7.8-26.4 11-31.2 7.6-10.8 77-77.4 118.2-113.2 10-8.6 27.6-24.6 39.4-35.6 11.8-11 24.6-22 28.4-24.6C639.4 393 660 367 660 362c0-5.8-5-6.2-14.4-1.2z"/></svg>