<svg xmlns="http://www.w3.org/2000/svg" width="48" height="48" class="icon" viewBox="0 0 1024 1024"><path d="M136.8 78.8c-8.6 2.8-24 12.4-33.6 21-8.6 7.8-21.4 27.8-24.4 37.8-4.2 14-4 723.4 0 733.4 8.6 20.6 36.8 48.6 56 55.6 9 3.4 747.4 3.4 756.4 0 19.8-7.2 49-36.6 56-56.2 2.2-6 2.6-75.6 2.8-366.4 0-233.8-.6-361.4-2-366-1.2-3.8-6.6-13.8-12.2-22.2-8.2-12.2-13.4-17.4-25.8-25.6-8.4-5.8-19-11.4-23.2-12.2-4.6-1.2-163.2-1.8-374.8-1.8-293 0-368.6.6-375.2 2.6zm190 145.6c5.4 7.6 4 17.4-4.8 31.6-9.8 16-10.8 27.4-3 35 2.6 2.8 6.4 5 8.4 5s37.8.4 79.6.6c68 .4 76.6.8 82.4 3.8 9.2 5 12.6 11 12.6 22 0 7-1.2 10.8-4.8 15l-4.8 5.4-38 .2c-53.8 0-53.8 0-55.4 51.2-.6 18-1.6 42.8-2.2 55-1.2 22.8.6 31.6 7.6 36.2 1.4.8 22.2 2 46 2.6l43.2 1 8.8 6c15.4 10.8 17.8 29.2 5 37-5.8 3.6-10.2 4-51.8 4-31 0-47 .8-50.6 2.4-7 3.2-14.2 17.6-17.2 34.4-3.2 16.6-1 21.8 9.6 25.2 13.4 4.2 21.8 11.2 49 41.4 35 38.8 36.6 41 41.8 58.8 7 23.8 2.2 41.8-11.4 41.8-7.6 0-12-3-21-14.6-13.8-17.4-54.4-65.8-62-73.8-15.2-16-29.4-5.8-38.8 27.4-1.8 6.6-8.8 23.2-15.6 37-10.8 22-14 26.8-27.4 39.6-19.6 19.2-26.4 23-53.6 29.6-27.2 6.4-37 5.6-38-3.6-1-8.4 4.4-16.4 20-29 16-13 36.8-36.6 45.2-51.4 3-5.2 8.2-13.8 11.6-19 3.4-5 11.8-20.4 18.6-34.2 10-20 13.6-29.4 17.2-47 2.6-12.2 6.2-25.4 7.8-29.4 4-9.4 4-21.4.2-27-5.2-7.4-16-8.8-62.6-8.4-50.4.4-55.2-.8-57.6-13.2-1.8-10.4 5.8-24.4 16.2-29.8 7.4-3.8 11.8-4.2 56.2-4.8l48.4-.8 4.6-5c4.8-5 4.8-5 5-61.6 0-35.2-.8-59.2-2-63.2-3.8-11.2-11-14.8-30.2-14.8s-21.4 1.4-31.2 18.2c-8.2 14.4-20.6 28.8-33.2 38.8-13.2 10.4-21.6 13-28 9-8.4-5.6-5.2-23.2 8.2-43.2 4-6.4 9.2-18.6 12.2-29.6 3-10.2 7.4-23.2 10-29 2.4-5.6 6-16.8 8-24.6 5.6-23.6 24-50.8 39.4-58.4 11.2-5.4 18.6-5.4 22.4.2zm452 68.2c11.8 7.8 11.4-.8 10.8 216-.6 181-.8 198.8-4 203-7.6 10.8-9.8 11.4-53.6 12.4l-41 1-14 7.8c-7.6 4.2-21.2 13-29.8 19.4-25.8 19.2-35 19.8-43.4 3.2-11.8-23.2-23.6-33.2-39.4-33.4-8.8 0-13.6-2.8-17.2-9.8-2.6-4.8-3-33.8-2.6-208.8.4-199.8.4-203 4.4-207.4 2.2-2.4 5.8-5.2 8-6.2 2.2-.8 51.8-1.4 110-1.2 99 .4 106.6.6 111.8 4z"/><path d="M606.8 337.4c-2.4.4-6.4 3-9 5.8l-4.8 5.2-.6 156.4-.4 156.4 6.4 9.4c3.6 5.2 9.8 15.2 13.6 21.8 8 14.2 16.8 20.6 25.6 18.6 3.2-.6 13.8-7 23.6-14.2 23-17 27.8-19 50.2-20.2 16.4-1 19.2-1.8 23.6-6.2 2.8-2.8 5-6.4 5.2-8.2V505.6c0-116-.6-154.4-2.6-158.6-4.8-10.4-8.4-11-70-10.8-31.2.2-58.6.8-60.8 1.2z"/></svg>