<svg xmlns="http://www.w3.org/2000/svg" width="48" height="48" class="icon" viewBox="0 0 1024 1024"><path d="M138.6 78c-22.4 5.2-55.8 40.2-60.6 63.4-1.4 6.4-2 129.8-1.6 367.6.6 298.6 1 358.8 3.4 363 11 20.2 21.6 32.4 37.2 43 15 10.2 17.4 11.2 33 13 11.2 1.4 136 2 365 1.6 314-.6 348.6-1 355-3.8 15.8-7.2 33.8-22 43.2-35.4 5.2-7.4 10.8-16.6 12.6-20.4 2.8-6.4 3.2-40.8 3.8-354 .4-223-.2-353.4-1.4-365-2-17-2.6-18.6-13-34-8.6-12.6-14.2-18.4-25.2-25.8-7.8-5.4-17.4-11-21.6-12.4-6-2.2-72.8-2.6-365.4-2.6-196.8.2-361 .8-364.4 1.8zm532.8 205c10 4 23 10.8 28.8 15.2 12.6 9.2 16.6 10.6 29.4 9.4 6.6-.6 13-3.2 20.4-8.2 11.2-7.6 19.4-9.2 23.6-5 3.6 3.6 2.8 9-2.8 18.6-7.2 12.4-6 18.8 4.2 24.2 4.4 2.2 8.2 5.6 8.6 7.4 1 4.8-12.6 24.2-22 31.8-11.8 9.2-17.2 22.6-19.6 47.8-4.8 50.4-7.8 66.6-16.4 85.4-3 7-7 17.8-8.8 24-1.8 6.4-5 14.6-7.4 18.4-2.2 3.8-7.4 13-11.4 20.4-17.2 30.8-43.4 61.4-71.4 83.8-25.6 20.4-46 33.2-64.2 40.2-8.4 3.2-18 7.6-21.4 9.6-7.4 4.6-22.4 8.6-57.2 15-62.2 11.6-79.2 11.4-135.6-1-32.4-7-38.6-9-52-16.8-21.4-12.6-24.2-14.8-24.2-19.4 0-6.2 10.2-9.2 35-10.4 22.4-1 28.6-2.6 57-14.2 23.8-9.8 29.4-12.8 30.4-16.8 2.2-8.2-3-13.2-26.8-25.4-25.8-13.2-32.2-18.4-43.8-35.8-9-13.6-10-21.2-3.6-33.6 5.4-10.8 3.6-15-11.8-25.4-9-6-14-11.6-20.8-22.6-23.4-37.8-25-50.8-7.2-59.8 4.8-2.4 9.4-5.4 10.2-6.6 2.8-4.2-.4-15.6-8.4-29-11.6-19.6-13.2-25.8-13.2-55.2 0-28.8 2.6-37.8 12-40.2 9-2.2 14.8 1 35.6 20.2 24.8 22.8 43.6 36.6 62.8 45.8 8 3.8 17.8 9.2 22 12 4.2 2.8 14.8 7 23.4 9.2 8.6 2.2 24.2 6.8 34.8 10.2 13.4 4.4 23.6 6.4 33 6.6 12.8.2 14.2-.2 18.6-5.4 4-4.8 4.8-7.8 4.8-19.2 0-14.4 5.6-39.6 11.2-50.6 4.2-8.4 29.2-34.2 39.8-41.4 7.8-5.4 35.6-16 52-20 14.2-3.6 32.6-1.2 52.4 6.8z"/></svg>