<svg xmlns="http://www.w3.org/2000/svg" width="48" height="48" class="icon" viewBox="0 0 1024 1024"><path d="M138.8 77.8c-7.8 2-32 17.8-38.8 25.6-9.6 10.6-18.4 25-21.2 34-4.2 14.2-4.2 723.6 0 733.6 8.4 20.2 29.4 41.6 53.2 54.2 6.8 3.6 18.8 3.8 370 3.8h363l9-4.2c14-6.8 31.6-22.4 42.6-38 9.4-13.8 10-15.2 11.6-32.6 1.2-10.4 1.6-166.8 1.4-365.6-.6-317.8-.8-348.2-3.8-354.6-9.2-19.2-20.8-33-38.6-45l-17.6-12-362.4-.4c-199.2 0-365 .4-368.4 1.2zM371.2 251c4.2 1.6 22.6 18.2 44.6 39.8 29.8 29.2 39 37.2 45.4 39 10.6 3 73.2 2.8 83.2-.2 6-1.8 15.8-10.4 43.4-37.8 19.8-19.6 39.4-37.4 44-39.6 15.2-7.8 31.6-4 41 9.4 10.4 15.2 8.8 28-6 44.6-15 16.8-11 24.4 14.2 26.8 18.8 1.6 25.2 3.8 43.8 14.8 19.2 11.2 28 21 40.6 44.8L775 411v250l-9.8 19.6c-10.4 20.6-23.8 35.6-43 47.6-18.8 12-18.6 12-226.2 11.4l-189-.6-11.8-4.8c-6.4-2.6-18.6-10.2-26.8-17-16-12.8-25.6-26.4-35-49.2-4.4-11-4.4-11.4-4.4-132.2V414.6l10.4-21c8.4-16.8 13-23.4 22.6-32.2 17.2-16 39.2-26.4 59.2-28.4 27.2-2.4 31.2-9.2 15.8-27.2-5-5.8-9.6-13.4-10.2-17.2-5.2-27.4 19.4-48.2 44.4-37.6z"/><path d="M330.2 400.4c-9 1.6-15 5.4-23 15-11.4 13.4-11.2 12-11.2 120.6s-.2 105.6 11.2 122.4C318 673.8 307 673 492 673.6c90.8.4 170.6 0 177.4-.6 15.6-1.6 23.6-6.8 32.2-21l6.4-10.8V537.8c0-68-.8-105.4-2.2-109.2-3-8-15.2-22.2-22.2-25.8-5.2-2.6-26.6-3.2-175.6-3.4-93.4-.2-173.4.2-177.8 1zm78.4 70.4c9.6 4 22.8 17.8 25.2 26.6 2.8 9.8 2.8 33.4 0 43.2-2.4 8.6-11.8 20.2-20 24.6-8 4-23.6 3.6-31-1-3.6-2.2-8.4-8-11-13.6-4.2-8.4-4.8-12.4-4.8-31.8 0-21 .2-22.6 6-31.8 4-6.4 9-11.2 14.8-14.4 10.2-5.4 12.2-5.6 20.8-1.8zm206 0c20 8.2 29.2 36.4 22.2 67.4-2.8 12-4.8 16.2-10.8 22.2-7 7-8.4 7.6-18.8 7.6-19 0-30.6-9.2-36.4-29.2-3.6-12.4-2.4-37.8 2.2-46.8 5-9.6 24-24 31.6-24 2 0 6.4 1.2 10 2.8z"/></svg>