<svg xmlns="http://www.w3.org/2000/svg" width="48" height="48" class="icon" viewBox="0 0 1024 1024"><path d="M135.2 79c-8.6 3-22.8 12.4-32.8 21.8-8.2 7.8-22.2 31-24.6 40.6-1 4.2-1.6 167-1.6 364.6 0 284.8.4 358.4 2.6 364 1.4 3.8 6.8 13 12 20.4 8.8 12.8 24 25.4 41.8 35 6 3.4 27 3.6 367.4 3.6 286.2 0 362.6-.6 369-2.6 19.8-6.2 51.2-37.6 57.4-57.4 2-6.4 2.6-82.6 2.6-368V141l-4.2-9c-11.6-24-39.2-49.8-58.2-54.2-4.2-1-168.6-1.6-365.6-1.6-300 0-359.2.4-365.8 2.8zm558.6 169c8.6 1.2 16.4 4 24 8.6 6.2 3.6 15.2 8.2 20.2 10.2 5.8 2.2 14.6 8.8 25 18.8 25.4 24.8 32.8 34.8 37.8 51 2.6 8 7.4 19.8 10.8 26.4 7.8 14.6 11.6 42.6 9.4 69-1 14.2-2.2 18.6-7.4 26.4-3.2 5.2-9 12.2-12.8 15.6-13.8 12-34 5.8-38.8-12-1.6-6-1.4-11.4 1.2-23.4 4.2-20 3-46-2.6-58.6-2.2-5-8-12.6-12.8-16.8-4.8-4.2-14.6-16.4-21.8-26.8-7.2-10.6-15.2-20.8-18-22.8-2.8-2-12.6-6-22-9-14.4-4.4-20.8-5.4-43-5.6-28-.2-31.4-1.2-42.4-11.6-7.4-7-8.6-15.6-3.8-25.2 7-13.2 16.4-16 54.2-16 16.6 0 35.8.8 42.8 1.8zm-213.6 75.6c20.2 15.4 20.6 16.4 22 48 .6 15 1.8 29 2.6 31 2.8 6.2 11 6.6 21.6.6 5.4-3.2 14-5.8 20-6.4 5.8-.6 18.8-2.4 29-4.2 17.2-3 19.4-3 36 .4 32 6.6 35.8 9.2 44.2 31.6 5.2 14 5.4 21.4 1.2 32.8-2.2 5.4-2.8 11-2 15.4 1.8 10 17.6 23.4 35 30.2 11.2 4.2 16.2 7.6 27 19 19.2 19.8 20.2 23 20 59-.2 35-.4 35.4-19.8 63.6-13.8 19.8-32.4 38.6-49 50-5 3.4-12.2 8.8-15.8 12-3.8 3.2-11.6 8-17.2 10.4-5.6 2.6-14.6 7.4-19.8 10.6-5.2 3.4-15.8 7.6-23.8 9.4-8 2-21.2 6.6-29.6 10.2-22.4 10-36.2 11.2-121.8 10.4l-75-.6-19-8.4c-10.6-4.6-25.4-9.8-33-11.6-7.6-1.6-18-5.8-23-9s-14.2-8-20.4-10.8c-18-8-59.4-46.2-66-61.2-2.2-5-7.4-14.4-11.4-20.8l-7.2-12V549l7.6-13.6c4.2-7.4 9.4-18.6 11.6-24.8 3.8-11.4 13.4-27.8 24.8-42.6 20.2-26.2 38.4-46.8 53-60 9.2-8.2 21-18.6 26-23.2 5-4.4 13.2-11 18.6-14.6 5.2-3.4 9.4-7.2 9.4-8 0-1 5.6-4.6 12.6-8.2 6.8-3.8 16.4-9.6 21.4-13.2 5-3.6 14.4-8 21-9.8 6.6-2 17.8-6.6 25-10.2 12-6.2 14.4-6.8 32.4-6.8h19.4l12.4 9.6zm203.6 13.2c3 1.6 6.6 4.4 8 6 1.6 1.8 9.4 7 17.4 11.6 17 9.6 19 13 24 42 3.4 20.4 2.6 32.2-3.4 43.8-7.6 15.2-22.8 20.6-31.2 11.2-7-7.6-9.2-13.8-10.6-29.6-1.2-13.2-2.4-16.4-9.6-27.2-11-16-16.8-20.6-27.2-20.6-10 0-24-6.2-27-11.6-5.8-10.8.4-24.6 12.4-28.4 8.6-2.6 40.2-.8 47.2 2.8z"/><path d="M424 477.4c-32.6 3.6-47.8 7-61.8 13.8-8 4-19 8.4-24.2 10-5.2 1.6-12.4 5-16.2 7.8-3.8 2.6-11 7.6-16.2 11-13.4 8.8-35 33.2-38.8 44-1.8 5-5.4 14.4-8.2 21-8.8 21.2-8.2 26.8 4 53 10.6 22.6 11 23.2 27.6 36.4 21 16.8 23.6 18.4 50.8 28.2 20.2 7.2 24.6 8 54 10 17.6 1.2 45.6 2.2 62 2.2l30 .2 17.4-8.4c9.6-4.6 22.4-9.6 28.2-11.4 6-1.8 15.4-6.2 20.8-10 5.4-3.6 13.4-8.6 17.6-10.8 9.2-4.6 39-34.4 39-39 0-1.6 3.8-10.2 8.4-18.8 7.8-14.2 8.6-16.8 8.4-29.6-.2-12.8-1-15.8-10.6-34.6-13.4-26.2-30.4-43.6-50.2-51.4-7.2-2.8-16.2-7-20-9.6-11.4-7.6-17.6-9.2-48.8-12.4-27.6-2.8-56.6-3.4-73.2-1.6zm39.4 44.4c11.2 2.2 22.6 5 25 6.4 7 3.6 26 21.8 30.8 29.4 8.6 13.4 11 54 4.6 77-2.6 9.6-18.8 27.6-39.4 44.2-15.6 12.4-17 13-29.8 14-7.6.8-22.4 2.2-33 3.6-22.6 2.6-45.6 1-53.8-3.8-3.2-2-8-6.8-10.8-10.8-2.6-4.2-8.4-10.4-12.8-13.8-8.2-6.8-13.4-16.4-19.4-37-3.8-13.2-2.8-21.8 5.2-47.6 3.2-10.4 6-14.6 17.4-25.8 12.4-12.2 23.8-22.2 33.2-29.6 4-3 38.6-9.4 53.4-9.8 5 0 18.2 1.6 29.4 3.6z"/><path d="M387.2 606c-12.2 3.8-18.2 13.4-15 24.6 5.8 21.2 27.8 25.8 40.6 8.6 6.6-8.8 7.8-16.2 4.2-24-4.8-10.2-15.4-13.4-29.8-9.2z"/></svg>