<svg xmlns="http://www.w3.org/2000/svg" width="48" height="48" class="icon" viewBox="0 0 1024 1024"><path d="M138.6 78c-22.4 5.2-55.8 40.2-60.6 63.4-1.4 6.4-2 129.8-1.6 367.6.6 298.6 1 358.8 3.4 363 11 20.2 21.6 32.4 37.2 43 15 10.2 17.4 11.2 33 13 11.2 1.4 136 2 365 1.6 314-.6 348.6-1 355-3.8 15.8-7.2 33.8-22 43.2-35.4 5.2-7.4 10.8-16.6 12.6-20.4 2.8-6.4 3.2-40.8 3.8-354 .4-223-.2-353.4-1.4-365-2-17-2.6-18.6-13-34-8.6-12.6-14.2-18.4-25.2-25.8-7.8-5.4-17.4-11-21.6-12.4-6-2.2-72.8-2.6-365.4-2.6-196.8.2-361 .8-364.4 1.8zm657.6 87.8l4.8 3.8v55.2c0 54.6 0 55.2-4.6 59.6-4.4 4.4-6 4.6-50.2 5.6l-45.6 1-7.2 5.6c-10.4 8-16.8 17.2-19.2 27.4-1 5-1.8 24.8-1.8 44 .2 38 1.6 44.6 10.8 48 2.8 1.2 28.4 2 56.8 2 47.8 0 52 .2 56.2 3.8l4.8 3.8v55.2c0 54.6 0 55.2-4.6 59.6-4.4 4.6-5.4 4.6-57 5.2-28.8.2-54.4.8-56.8 1.4-2.4.6-5.6 3-6.8 5.4-1.8 3.2-2.4 41.4-2.6 143.2l-.2 138.8-5.6 4.8-5.6 4.8H609c-52.4 0-52.8 0-58.2-4.6l-5.4-4.6-.2-140.6-.2-140.6-4.8-3.8c-4.2-3.4-8-3.8-35.6-3.8-32.8 0-41-1.8-43.6-10-.6-2.2-1.2-25.4-1.2-51.4 0-60.8-.2-57 3.4-61.6 2.8-3.6 6-4 37.8-5 33-1 35.2-1.2 39.4-5.6 4.6-4.4 4.6-5.2 5.8-71 1.2-73.4.2-67.2 16.6-99.4 8-15.8 12.8-22 28-37 15.2-15.2 21.4-19.6 38.2-28 11-5.4 24-11 29-12.2 6.2-1.8 28.6-2.6 71.2-2.6 58.6-.2 62.6 0 67 3.6z"/></svg>