<svg xmlns="http://www.w3.org/2000/svg" width="48" height="48" class="icon" viewBox="0 0 1024 1024"><path d="M138.6 78c-22.4 5.2-55.8 40.2-60.6 63.4-1.4 6.4-2 129.8-1.6 367.6.6 298.6 1 358.8 3.4 363 11 20.2 21.6 32.4 37.2 43 15 10.2 17.4 11.2 33 13 11.2 1.4 136 2 365 1.6 314-.6 348.6-1 355-3.8 15.8-7.2 33.8-22 43.2-35.4 5.2-7.4 10.8-16.6 12.6-20.4 2.8-6.4 3.2-40.8 3.8-354 .4-223-.2-353.4-1.4-365-2-17-2.6-18.6-13-34-8.6-12.6-14.2-18.4-25.2-25.8-7.8-5.4-17.4-11-21.6-12.4-6-2.2-72.8-2.6-365.4-2.6-196.8.2-361 .8-364.4 1.8zM430 295.4c40.6 15.4 56.6 23.8 72.6 38.4 6.8 6.2 7.2 15.2 1 23.4-6.2 8-33.6 33.8-39 36.6-5.6 2.8-17.6 2.8-23.2-.2-2.4-1.2-8.2-5.2-13-8.8-11.2-8.6-24.6-11.2-55.2-11.2-27.4 0-40.6 2.6-52.2 10.4-4.4 2.8-12.2 7.6-17.2 10.6-23 13.2-51.4 55-55.8 82.4-2.6 15.6-2.4 34.8.2 51 2.8 17.4 19.8 48.8 35.2 65.2 16 16.6 45 33.6 62.8 36.6 26.8 4.4 65.8 1.6 79.4-5.8 20.6-11.4 31-19 41-30.4 18.8-21.6 23.4-34.2 15.6-43.8-3.8-4.8-4.4-4.8-51-5.8-60.8-1.2-56.2 2.2-56.2-43.2 0-32.4.2-33.2 4.8-37 4.4-3.6 9-3.8 92-3.8 79 0 87.8.4 94.2 3.6 11.2 5.6 13 11.4 12.8 43.4 0 25.4-.8 30.8-7.6 58-4 16.6-9.8 34-12.6 39-2.8 5-8.2 14.2-11.6 20.6-8.4 15.4-27.2 36.8-40.8 46.6-5.8 4.4-13.8 10.2-17.6 13.2-3.8 3-11 7-16.2 8.8-5.2 1.8-16.2 6.4-24.4 10-22.4 9.6-34.8 11.6-73 11.6-37.6.2-47-1.4-71-12-8.2-3.6-17.6-7.2-20.8-8-15.8-3.8-67-45.2-77.8-62.8-2.2-3.8-7.6-11.6-11.8-17.2-4.2-5.4-9-14-10.6-19-1.8-4.8-6.2-16-10-24.8-3.6-8.8-7.8-22.2-9.2-29.6-3.2-18.8-1.4-79.4 2.8-91.4 13.8-40.6 35.6-78 58.8-100.2 14-13.6 47.2-36.4 58-39.8 4.2-1.4 13.4-5.2 20.6-8.4 22-10 32.8-11.6 76-11 33.8.6 40.4 1.2 50 4.8zm340.8 80.8c8 3.6 9.6 11.2 9.2 39.2-.6 34.4-.6 34 5 39.6 4.8 5 5.4 5 37.6 5 43.4 0 44.4.8 43.2 36.2-.8 17-1.2 18.4-6.4 23-5.4 4.6-6.6 4.8-37.6 4.8-31.2 0-32 .2-36.8 5-5.6 5.4-5.6 4.4-5 41.2.4 26.4.2 27.4-4.6 33-4.8 5.6-6 5.8-24.4 6.4-20.8.8-29.6-1.4-33.4-8.4-1.4-2.6-2-15.6-1.8-35.6.4-31.2.4-31.6-4.6-36.6s-5.6-5-36-5c-18.8 0-33-.8-36-2.2-7.6-3.6-9.6-11.2-8.8-33.8.8-28.2.4-28 41-28 45.4 0 45.4 0 44.6-42.6-.6-33-.6-33 5-38.4 4.4-4.6 6.2-5 24.8-5 11 0 22.2 1 25 2.2z"/></svg>