<svg xmlns="http://www.w3.org/2000/svg" width="48" height="48" class="icon" viewBox="0 0 1024 1024"><path d="M138.4 78c-6.2 1.4-26.2 14.2-36.2 22.8-2.6 2.4-9 10.8-14.2 18.8-7.4 11-10 17.2-11 25-.6 5.8-1 170.6-.6 366.4.6 296.8 1 356.8 3.4 361 11 20.2 21.6 32.4 37.2 43 15.6 10.6 17.2 11.2 34.2 13.2 11.4 1.2 143.2 1.8 364.8 1.4 313.8-.6 347.6-1 354-3.8 23.2-10.6 42.4-29.2 53.6-51.8l5.4-11 .6-347c.4-223-.2-353.4-1.4-365-2-17-2.6-18.6-13.2-34.2-10.6-15.8-22.4-25.8-43-37-4.2-2.4-65.4-2.8-366-3.2-198.6 0-364 .4-367.6 1.4zm400.4 131.8l5.2 4.8v47.8c0 35.4.6 49.4 2.6 54.2 5.4 12.4 4.8 12.4 62.6 12.6 57.6.2 57 0 62.2 12.2 3.2 8 3.8 93.6.6 105-1.2 4-4.6 9.4-7.4 11.6-5.2 4-7.2 4.2-56 3.6L558 461l-6 6.2c-9.2 9.2-10.4 22.6-9.6 113.6.6 71.4 1 78.8 4.2 85 5 9 18.8 23.8 25.6 27.4 6.6 3.2 42.6 4 50.8.8 2.8-1 9.6-6 15-11.2 8.4-7.8 10.6-9 17.2-8.4 9.2.8 14.8 7.6 17 21 2.8 16.8 2.2 68-1 75.2-4 9.6-25.2 28.8-33.4 30.4-3.8.6-41.4.8-83.8.6-83.6-.6-80.8-.2-94-12.6-3.8-3.6-12-8.2-18-10-18.2-6-27-18.6-29.8-43.6-1.2-8.6-4-19.2-7.4-26.4-7-14.8-7-16.6-7.8-145.8-.6-108.8.8-101.2-17.4-101.2-5.4 0-12.2-1.2-15.2-2.8-10.4-5.4-11.4-10-11.4-55.2 0-35.6.6-42 3.6-46.6 5-7.6 11-13 23.4-21 11.6-7.4 29.2-24.6 37-36.4 2.4-3.8 7.8-10.2 11.8-13.8 6.6-6.4 7.2-8 7.2-18.2 0-6.2 1.2-15.8 2.8-21.2 1.6-5.4 3.4-13.8 4.2-18.8 3.2-21.6 9-24.2 55.4-23.4 34.2.4 35.4.6 40.4 5.2z"/></svg>