<svg xmlns="http://www.w3.org/2000/svg" width="48" height="48" class="icon" viewBox="0 0 1024 1024"><path d="M138.4 78c-6.4 1.4-26.4 14.2-36 22.8-8 7.2-22 29.8-24.4 39.2-1.6 6.4-2 113.2-1.6 368 .6 299.4 1 359.8 3.4 364 11 20.2 21.6 32.4 37.2 43 15.6 10.6 17.2 11.2 34.2 13.2 10.6 1.2 63.4 1.6 127.6 1.4l109.6-.6 6-6.8 6.2-6.8-1.2-25.2c-.8-15.8-.2-33.4 1.4-47.2 3-25.4 1.4-36.2-6-43.2-5-4.6-6.2-4.8-30.6-4.2-27.6.8-24 1.6-68.8-16-8.6-3.4-22.6-18-28.4-29.8-11.4-22.8-27-45-39.2-55.6-14-12.2-19.8-20.8-19.8-28.6 0-11.6 13.6-12.6 33.2-2.4 16.6 8.8 20.8 12.4 40.8 36.2 24.2 28.6 31 33.6 54 39.6 15.2 4 42.2 3 51.4-1.8 9-4.6 18-15.2 24.4-29.2 11.4-24.2 7.4-31.2-20.6-36.8-9.8-2-29.2-8-43.4-13.4-40.4-15.8-64.6-37.4-85.4-76.2-11.6-21.8-15.4-33-18.2-53.6-4.2-32.2-4.8-60.2-1.4-84 3.4-23.8 6.8-32.8 20.2-54 4-6 8.8-15.6 11-21.4 3.8-10 3.8-11.6 1-30-5.2-34.2-3.2-52.4 7.6-70.2 7.2-12.2 15-17.2 24.2-15.8 12.8 2.2 52 17.4 66.8 26.2 26 15 29 15.4 82.4 7.2 24.6-3.8 33.8-4.2 60-3.2 17 .6 41.4 3 54 5.2 38.4 6.6 49.6 5.2 73-10 6.6-4.2 17.4-9.4 24-11.6 6.6-2.2 16-5.8 21-8.2 13-6 28-5.6 35.6.8 12.4 10.4 18.6 41.4 14.4 71.6-4.4 30.6-3 39.4 8.4 53.8 3.4 4.4 11.2 19.2 17.4 33.2L775 443v78l-10 28c-15.2 43.2-36.8 73.2-66.2 92.8-13.4 8.8-57 25.4-76.8 29-28.2 5.2-33.2 12.6-22 32.2 11.2 19.4 12.4 32.8 11.6 129.6l-.6 85.8 5.4 4.6c3.6 3 9.2 5.2 16 6 5.8.8 60.2 1 120.6.6 108.4-.6 110.2-.6 119-5 24-11.6 40-27.4 51.6-50.6l5.4-11 .6-347c.4-223-.2-353.4-1.4-365-2-17-2.6-18.6-13-34-10.6-15.4-22.8-26.2-43.2-37.2-4.2-2.4-64.6-2.8-366-3.2-198.6 0-364 .4-367.6 1.4z"/></svg>