<svg version="1.1" xmlns="http://www.w3.org/2000/svg" xmlns:xlink="http://www.w3.org/1999/xlink" x="0px" y="0px" width="48px" height="48px" viewBox="0 0 48 48"><path d="M6.5,3.7H24c14.4,0,17.2,0,17.4,0.2c0.8,0.5,1.4,0.7,1.9,1.4c0.5,0.8,0.7,1.2,0.8,2v33.4l-0.5,1.5c-0.5,1.1-1.1,1.4-2.2,1.9 c-0.3,0.2-2.2,0.3-5.7,0.3H7.4c-0.8-0.2-1.4-0.4-2.1-0.8c-0.8-0.6-0.8-1-1.4-2V6.7c0-0.5,0.7-1.5,1.2-1.9c0.3-0.3,1.1-1,1.7-1.2H6.5 z M14.3,13c-0.5,0.2-0.8,0.3-0.8,0.5c-0.2,0-0.3,0.4-0.6,0.8v5.9l13.2,0.2l3.6,3.2v0.7l-3.6,3.4H12.9v5.9c0,0.4,0.3,0.7,0.5,0.8 c0.3,0.3,0.5,0.5,0.8,0.5h13.7c0.3,0,0.5,0,0.7-0.2c0.2,0,0.3-0.2,0.6-0.4l9.6-9.3l0.3-0.6v-1.2l-0.3-0.7l-9.6-9.1l-0.6-0.3L27.9,13 H14.3L14.3,13z"/></svg>
