<svg xmlns="http://www.w3.org/2000/svg" width="48" height="48" class="icon" viewBox="0 0 1024 1024"><path d="M140.6 78c-9.8 2.2-28.4 13.8-38.6 24-10.6 10.8-21.6 28.8-24.2 39.4-2.6 11.4-2.4 714.8.4 725.2 5.2 20.4 29 46.2 53.2 57.6 8.2 3.8 15.4 3.8 370.6 3.8 351.8 0 362.8-.2 371-3.8 21-9.2 38.8-27 50-49.2l5-10.2-.4-363.8-.6-364-4.4-8c-10.8-19.6-18-28.2-32.6-38.4-9.2-6.2-18.8-11.2-24.6-12.4-11.2-2.6-714.4-2.8-724.8-.2zM662 202.8c12.6 2.8 60.2 22.2 68.4 28 4.4 3 30.2 31.4 39 42.6 2.8 3.6 9.6 19.4 15.2 35l10 28.6.8 146c.6 106.4.4 149.2-1.4 157.8-1.2 6.6-6 22.2-10.4 34.6-9.8 27.8-23 46.6-48.2 68.8-22.2 19.4-36.8 26.8-61.4 30.8-10.4 1.6-22.6 4-27 5.2-15 3.8-140.6 6.2-213.4 4-37.8-1.2-73-3-78.6-4-5.4-1.2-16.2-2.8-23.8-4-26.8-4-68.8-33.6-89.8-63.8-10.2-14.8-19-36.2-27.6-68.4-3.2-12-3-292.4.2-307.2 4.6-21.2 16.6-53 23.6-63.2 4-5.8 15-18.4 24.4-27.8 14-14.2 20.4-19 35.8-26.8 27-13.4 42.8-17 84.2-19 57.2-2.8 264.4-.6 280 2.8z"/><path d="M356 262.2c-2.8 1-11.2 4.2-18.6 7.2-12.4 4.6-35.4 21-42.8 30.6-6.2 8-21 47.8-22.8 61-.8 7.6-1.4 70.2-1 139 .6 108.6 1.2 126.4 4 135.4 4.4 13.8 18.6 44.6 22.8 49.4 4.4 4.8 30.2 24 37.6 27.8 13 6.6 48 8.4 167.8 8.4 115.2 0 150.8-1.6 166-7.4 6.6-2.4 32.8-21.4 39.2-28.2 7.6-8.2 23.8-44 26-57.6 1.2-7.8 1.8-65 1.4-149l-.6-136.2-12-23.8c-11.4-22.8-12.6-24.4-27-35.2-8.2-6.4-20.8-14-28-17l-13-5.6-147-.4c-91.2-.2-149 .4-152 1.6zm315.6 41c12.2 6 19.6 14.2 22.4 24.8 6.4 24-18.8 51.6-43 47.2-9.8-2-23.6-14.8-30.2-28.4-4.6-9.2-4.8-11.4-3-17.4 2.6-7.8 16.4-22.4 26.4-27.6 9.4-5 15.2-4.6 27.4 1.4zM536.8 338c5 1 18.6 7 30.4 13.4 25 13.2 47.2 32.8 63 55.6 5.4 7.6 11.6 16.2 13.8 19 5.8 7.2 14.8 55 13.4 71-1.6 16.6-10 53.8-13.6 58.6-1.6 2.2-7.4 10.6-13.2 18.6-16.4 23.6-48.6 52-63.2 55.8-4.6 1.4-15.6 5.6-24.4 9.6-15.8 7.2-16.4 7.4-40 7.2-23.2-.2-24.4-.4-39-7.4-8.2-4-19.2-8.2-24.4-9.4-16.6-4.2-49-34-69.2-63.6-16.2-24-19-35-19-74.4 0-33 3.8-54.8 11.2-64.8 2.6-3.4 7.2-10.6 10.4-16 8.4-14.4 24.4-31.8 38.4-42 20.2-14.8 53.8-31.2 67.6-33 14.2-2 45.6-1 57.8 1.8z"/><path d="M491 398c-4.4.8-16.4 6-26.6 11.4-16 8.4-20 11.6-31.4 25.4-7.6 9.2-14 19.2-15.4 24-3.2 11.2-3.2 52 0 62.6 3.2 11 24.4 36.4 35 42 14.8 8 37 16.6 45.8 17.8 6.2.8 12 0 20.6-3.2 6.6-2.2 17.8-6.2 24.6-8.6 10.8-3.6 15-6.6 27.4-19.6 12-12.6 15-17 17.2-26 3.4-13.2 3.6-55.4.2-66.8-5-17.4-29.4-40.4-58.4-55.2-8.4-4.2-27.8-6.2-39-3.8z"/></svg>